# Blender v2.78 (sub 0) OBJ File: 'Low_Poly_Trees_Pack.blend'
# www.blender.org
g Palm_Tree_Coconut_OneSided_s_06_Collider
v 0.118904 0.000000 0.090536
v 0.122872 0.000000 -0.086170
v -0.106925 0.000000 -0.110106
v -0.111799 0.000000 0.106924
v -0.140591 1.149459 0.205734
v -0.005401 1.159496 0.064840
v -0.137322 1.157012 0.036179
v -0.007676 1.154240 0.182836
v -0.498005 3.404057 0.459693
v -0.497906 3.407724 0.430606
v -0.524883 3.401998 0.420661
v -0.525044 3.396063 0.467724
vn 0.9940 0.1071 0.0230
vn -0.9858 -0.1657 -0.0259
vn 0.1081 -0.0749 0.9913
vn 0.1417 0.1355 -0.9806
vn 0.9774 0.2095 0.0285
vn 0.2213 0.2026 -0.9539
vn 0.1953 -0.0791 0.9775
vn -0.2484 0.9611 0.1204
vn -0.2484 0.9612 0.1203
vn -0.9995 -0.0234 -0.0215
s off
f 2//1 6//1 8//1 1//1
f 5//2 12//2 11//2 7//2
f 1//3 8//3 5//3 4//3
f 3//4 7//4 6//4 2//4
f 6//5 10//5 9//5 8//5
f 7//6 11//6 10//6 6//6
f 8//7 9//7 12//7 5//7
f 9//8 11//8 12//8
f 10//9 11//9 9//9
f 4//10 5//10 7//10 3//10
