# Blender v2.78 (sub 0) OBJ File: 'Low_Poly_Trees_Pack.blend'
# www.blender.org
g Palm_Tree_Coconut_OneSided_l_05_Collider
v 0.000000 0.000000 -0.273989
v -0.260579 0.000000 -0.084667
v -0.161047 0.000000 0.221662
v 0.161047 0.000000 0.221662
v 0.278965 0.696658 0.151210
v -0.010498 0.776285 -0.068036
v 0.057835 0.757488 0.151210
v 0.168400 0.727073 -0.203538
v 5.115558 3.842453 -0.070034
v 5.070210 3.850896 -0.036520
v 5.087532 3.847672 0.017707
v 5.143585 3.837234 0.017707
v 0.579489 1.167615 0.119001
v 0.434234 1.365322 -0.060432
v 0.468524 1.318650 0.119001
v 0.524007 1.243133 -0.171328
v 4.841271 2.679179 0.063885
v 4.694823 2.721631 -0.047421
v 4.729394 2.711609 0.063885
v 4.785333 2.695394 -0.116212
v 3.093168 1.791923 0.107615
v 2.949159 1.934781 -0.041958
v 2.983155 1.901057 0.107615
v 3.038162 1.846490 -0.134399
vn 0.9337 -0.1878 -0.3049
vn -0.5582 0.1933 -0.8069
vn -0.5670 0.2041 -0.7980
vn 0.0142 0.0223 0.9997
vn 0.0105 0.0940 0.9955
vn 0.7965 -0.5295 -0.2920
vn -0.3995 0.8812 0.2528
vn -0.9090 0.2885 0.3007
vn 0.0096 0.0375 0.9993
vn 0.4283 -0.8661 -0.2578
vn -0.9040 0.2975 0.3072
vn 0.1831 0.9831 0.0000
vn 0.1830 0.9831 -0.0000
vn 0.2293 -0.9335 -0.2757
vn -0.7646 0.5749 0.2912
vn 0.0276 0.0433 0.9987
vn -0.4830 0.3782 -0.7897
vn -0.2151 0.9375 0.2737
vn 0.0038 0.0032 1.0000
vn -0.1374 0.6254 -0.7681
vn -0.2812 0.6063 -0.7438
vn 0.9175 -0.2518 -0.3078
s off
f 8//1 5//1 4//1 1//1
f 18//2 10//2 9//2 20//2
f 2//3 6//3 8//3 1//3
f 21//4 17//4 19//4 23//4
f 4//5 5//5 7//5 3//5
f 8//6 16//6 13//6 5//6
f 19//7 18//7 22//7 23//7
f 3//8 7//8 6//8 2//8
f 17//9 12//9 11//9 19//9
f 20//10 17//10 21//10 24//10
f 18//11 19//11 11//11 10//11
f 11//12 12//12 9//12
f 10//13 11//13 9//13
f 16//14 24//14 21//14 13//14
f 7//15 15//15 14//15 6//15
f 5//16 13//16 15//16 7//16
f 6//17 14//17 16//17 8//17
f 15//18 23//18 22//18 14//18
f 13//19 21//19 23//19 15//19
f 14//20 22//20 24//20 16//20
f 22//21 18//21 20//21 24//21
f 20//22 9//22 12//22 17//22
