# Blender v2.78 (sub 0) OBJ File: 'Low_Poly_Trees_Pack.blend'
# www.blender.org
g Palm_Tree_Coconut_OneSided_m_05_Collider
v 0.000000 0.000000 -0.191792
v -0.182405 0.000000 -0.059267
v -0.112733 0.000000 0.155163
v 0.112733 0.000000 0.155163
v 0.195276 0.487661 0.105847
v -0.007349 0.543399 -0.047625
v 0.040484 0.530241 0.105847
v 0.117880 0.508951 -0.142476
v 3.580891 2.689718 -0.049024
v 3.549147 2.695627 -0.025564
v 3.561272 2.693370 0.012395
v 3.600509 2.686064 0.012395
v 0.405642 0.817331 0.083300
v 0.303964 0.955725 -0.042303
v 0.327967 0.923055 0.083300
v 0.366805 0.870193 -0.119930
v 3.388890 1.875425 0.044719
v 3.286376 1.905141 -0.033195
v 3.310576 1.898126 0.044719
v 3.349733 1.886776 -0.081349
v 2.165218 1.254346 0.075331
v 2.064411 1.354347 -0.029370
v 2.088208 1.330740 0.075331
v 2.126713 1.292543 -0.094079
vn 0.9337 -0.1878 -0.3049
vn -0.5582 0.1933 -0.8069
vn -0.5670 0.2041 -0.7980
vn 0.0142 0.0223 0.9997
vn 0.0105 0.0940 0.9955
vn 0.7965 -0.5295 -0.2920
vn -0.3995 0.8812 0.2528
vn -0.9090 0.2885 0.3007
vn 0.0096 0.0375 0.9993
vn 0.4283 -0.8661 -0.2578
vn -0.9040 0.2975 0.3072
vn 0.1831 0.9831 0.0000
vn 0.1830 0.9831 0.0000
vn 0.2293 -0.9335 -0.2757
vn -0.7646 0.5749 0.2912
vn 0.0276 0.0433 0.9987
vn -0.4830 0.3782 -0.7897
vn -0.2151 0.9375 0.2737
vn 0.0038 0.0032 1.0000
vn -0.1374 0.6254 -0.7681
vn -0.2812 0.6063 -0.7438
vn 0.9175 -0.2518 -0.3078
s off
f 8//1 5//1 4//1 1//1
f 18//2 10//2 9//2 20//2
f 2//3 6//3 8//3 1//3
f 21//4 17//4 19//4 23//4
f 4//5 5//5 7//5 3//5
f 8//6 16//6 13//6 5//6
f 19//7 18//7 22//7 23//7
f 3//8 7//8 6//8 2//8
f 17//9 12//9 11//9 19//9
f 20//10 17//10 21//10 24//10
f 18//11 19//11 11//11 10//11
f 11//12 12//12 9//12
f 10//13 11//13 9//13
f 16//14 24//14 21//14 13//14
f 7//15 15//15 14//15 6//15
f 5//16 13//16 15//16 7//16
f 6//17 14//17 16//17 8//17
f 15//18 23//18 22//18 14//18
f 13//19 21//19 23//19 15//19
f 14//20 22//20 24//20 16//20
f 22//21 18//21 20//21 24//21
f 20//22 9//22 12//22 17//22
