# Blender v2.78 (sub 0) OBJ File: 'Low_Poly_Trees_Pack.blend'
# www.blender.org
g Palm_Tree_OneSided_s_01_Collider
v 0.066862 0.000000 -0.129834
v -0.147398 0.000000 -0.047893
v -0.091097 0.000000 0.125384
v 0.133872 0.000000 0.076401
v 0.120184 4.081645 -0.039615
v 0.092889 4.083776 -0.024614
v 0.105388 4.082801 0.013972
v 0.136261 4.080389 0.010016
vn 0.2028 0.0164 0.9791
vn -0.9496 0.0541 0.3086
vn 0.9511 -0.0056 -0.3089
vn -0.3721 0.0263 -0.9278
vn 0.0779 0.9970 -0.0000
vn 0.0778 0.9970 -0.0000
s off
f 4//1 8//1 7//1 3//1
f 3//2 7//2 6//2 2//2
f 8//3 4//3 1//3 5//3
f 2//4 6//4 5//4 1//4
f 7//5 8//5 5//5
f 6//6 7//6 5//6
