# Blender v2.78 (sub 0) OBJ File: 'Low_Poly_Trees_Pack.blend'
# www.blender.org
g Palm_Tree_Coconut_OneSided_m_01_Collider
v 0.083577 0.000000 -0.162293
v -0.184248 0.000000 -0.059866
v -0.113871 0.000000 0.156731
v 0.167340 0.000000 0.095502
v 0.150230 5.102057 -0.049519
v 0.116112 5.104721 -0.030767
v 0.131736 5.103501 0.017465
v 0.170327 5.100487 0.012520
vn 0.2028 0.0164 0.9791
vn -0.9496 0.0541 0.3086
vn 0.9511 -0.0056 -0.3089
vn -0.3721 0.0263 -0.9278
vn 0.0779 0.9970 -0.0000
vn 0.0778 0.9970 0.0000
s off
f 4//1 8//1 7//1 3//1
f 3//2 7//2 6//2 2//2
f 8//3 4//3 1//3 5//3
f 2//4 6//4 5//4 1//4
f 7//5 8//5 5//5
f 6//6 7//6 5//6
