# Blender v2.78 (sub 0) OBJ File: 'Low_Poly_Trees_Pack.blend'
# www.blender.org
g Birch_Tree_l_03_Collider
v 0.211852 0.000000 -0.214367
v -0.225501 0.000000 -0.063077
v -0.101318 0.000000 0.175882
v 0.361686 0.000000 0.073951
v 0.419417 2.103438 -0.242847
v 0.071564 2.103647 -0.143407
v 0.150809 2.103574 0.100319
v 0.513999 2.103350 0.048048
v 0.226097 6.132112 -0.210148
v 0.096444 6.164477 -0.109802
v 0.128367 6.027450 0.050924
v 0.306226 6.112106 0.051607
v 0.530266 7.403830 -0.434627
v 0.517373 7.403448 -0.266384
v 0.652394 7.407426 -0.266385
v 0.493225 9.449497 -0.447651
v 0.180825 6.269560 0.047558
v -0.468427 7.456149 1.134581
vn 0.1835 0.0061 0.9830
vn 0.9181 -0.0835 -0.3874
vn -0.9133 0.1335 0.3849
vn 0.8573 -0.3049 -0.4149
vn 0.0936 0.0085 0.9956
vn 0.9529 0.0489 -0.2995
vn -0.9642 0.0008 0.2653
vn 0.8091 0.0109 -0.5876
vn 0.2440 -0.5193 0.8190
vn 0.1145 0.2198 0.9688
vn -0.6110 0.0064 -0.7916
vn -0.3860 -0.0005 -0.9225
vn -0.0026 0.0882 0.9961
vn -0.9969 -0.0185 -0.0764
vn 0.2717 0.7267 -0.6310
vn -0.9383 0.3313 0.0995
vn 0.7684 0.6068 -0.2034
vn -0.9414 -0.3250 -0.0901
vn -0.3042 0.0118 -0.9525
s off
f 4//1 8//1 7//1 3//1
f 4//2 1//2 5//2 8//2
f 3//3 7//3 6//3 2//3
f 9//4 13//4 15//4 12//4
f 8//5 12//5 11//5 7//5
f 12//6 8//6 5//6 9//6
f 7//7 11//7 10//7 6//7
f 16//8 15//8 13//8
f 12//9 18//9 11//9
f 12//10 15//10 14//10 17//10
f 10//11 13//11 9//11
f 6//12 10//12 9//12 5//12
f 15//13 16//13 14//13
f 14//14 16//14 13//14
f 10//15 18//15 17//15
f 10//16 17//16 14//16 13//16
f 17//17 18//17 12//17
f 11//18 18//18 10//18
f 2//19 6//19 5//19 1//19
