# Blender v2.78 (sub 0) OBJ File: 'Low_Poly_Trees_Pack.blend'
# www.blender.org
g Birch_Tree_NoLeaves_m_07_Collider
v 0.066650 0.000000 -0.127240
v 0.019007 0.000000 -0.039667
v -0.074494 0.000000 0.102030
v 0.280686 0.000000 0.102030
v -0.314384 2.513581 -0.085243
v -0.449738 2.498399 -0.029752
v -0.421147 2.504198 0.060035
v -0.272700 2.527722 0.059194
v -0.475215 5.797108 0.002992
vn -0.3799 0.0062 -0.9250
vn -0.9520 -0.1569 -0.2630
vn 0.0009 0.0170 0.9999
vn -0.9526 -0.0104 0.3040
vn 0.0029 0.0174 0.9998
vn 0.8132 0.1506 -0.5622
vn 0.9579 0.0545 -0.2818
vn -0.6082 -0.0950 -0.7881
s off
f 6//1 9//1 5//1
f 3//2 7//2 6//2 2//2
f 4//3 8//3 7//3 3//3
f 6//4 7//4 9//4
f 7//5 8//5 9//5
f 1//6 5//6 8//6 4//6
f 5//7 9//7 8//7
f 2//8 6//8 5//8 1//8
