# Blender v2.78 (sub 0) OBJ File: 'Low_Poly_Trees_Pack.blend'
# www.blender.org
g Birch_Tree_NoLeaves_m_04_Collider
v 0.108536 0.000000 -0.127692
v -0.118359 0.000000 -0.041699
v -0.073150 0.000000 0.097440
v 0.181685 0.000000 0.097440
v 0.199427 3.506785 -0.077786
v 0.091718 3.508300 -0.030468
v 0.116598 3.508192 0.046110
v 0.239685 3.506610 0.046122
v 0.048449 5.910004 -0.062134
vn -0.3699 0.0240 -0.9288
vn 0.9493 0.0616 -0.3083
vn -0.9496 0.0559 0.3086
vn 0.0000 0.0146 0.9999
vn -0.4024 -0.0193 -0.9153
vn -0.9510 -0.0131 0.3090
vn 0.0005 0.0450 0.9990
vn 0.9509 -0.0202 -0.3090
s off
f 2//1 6//1 5//1 1//1
f 5//2 9//2 8//2
f 3//3 7//3 6//3 2//3
f 4//4 8//4 7//4 3//4
f 6//5 9//5 5//5
f 7//6 9//6 6//6
f 8//7 9//7 7//7
f 1//8 5//8 8//8 4//8
