# Blender v2.78 (sub 0) OBJ File: 'Low_Poly_Trees_Pack.blend'
# www.blender.org
g Birch_Tree_m_02_Collider
v -0.123475 0.000000 -0.202508
v -0.227518 0.000000 0.117701
v 0.120738 0.000000 0.143393
v 0.195358 0.000000 -0.086264
v -0.338897 3.766184 -0.080537
v -0.407790 3.819824 0.054265
v -0.567296 3.739477 0.028794
v -0.513124 3.758309 -0.108813
v -0.947790 5.394528 -0.062179
v -0.976292 5.396707 0.025798
v -1.112168 5.403757 0.025798
v -1.066050 5.400232 -0.116552
v -1.389783 7.484998 -0.019578
vn 0.2803 0.0471 -0.9588
vn 0.9286 0.1339 0.3460
vn -0.8934 -0.2977 -0.3363
vn -0.1021 0.0117 0.9947
vn 0.8928 0.3289 0.3079
vn 0.2699 0.0990 -0.9578
vn -0.9439 -0.1325 -0.3025
vn 0.9351 0.1916 0.2982
vn 0.4196 0.1071 -0.9014
vn 0.0011 0.0219 0.9998
vn -0.0814 -0.0183 0.9965
vn -0.9400 -0.0912 -0.3286
s off
f 1//1 8//1 5//1 4//1
f 4//2 5//2 6//2 3//2
f 12//3 8//3 7//3 11//3
f 3//4 6//4 7//4 2//4
f 5//5 9//5 10//5 6//5
f 8//6 12//6 9//6 5//6
f 13//7 12//7 11//7
f 9//8 13//8 10//8
f 12//9 13//9 9//9
f 10//10 13//10 11//10
f 7//11 6//11 10//11 11//11
f 8//12 1//12 2//12 7//12
