# Blender v2.78 (sub 0) OBJ File: 'Low_Poly_Trees_Pack.blend'
# www.blender.org
g Birch_Tree_crk_l_01_Collider
v -0.021531 0.000000 -0.216000
v -0.302585 0.000000 -0.066748
v -0.195232 0.000000 0.410774
v 0.259524 0.000000 0.169279
v 0.100825 1.611480 -0.060412
v 0.279489 1.618027 -0.191918
v 0.168964 1.614754 0.150139
v 0.459487 1.614754 -0.060938
v 0.068280 1.616255 -0.126786
v 0.246597 1.858636 -0.322775
v 0.225687 1.641635 -0.281176
v -1.520220 1.428066 -1.887505
v 0.016014 1.796748 -0.098137
v -1.364689 1.639475 -2.058449
v -1.168941 1.475436 -1.790958
v -6.013945 1.257555 -6.247912
v -1.640338 1.443600 -2.220079
v -1.689592 1.175930 -3.365961
v -1.625722 1.028259 -3.357759
v -1.808540 1.069652 -3.283897
v -3.444346 0.736651 -6.294972
vn -0.5582 -0.5753 0.5978
vn 0.6443 -0.3425 -0.6838
vn -0.0269 0.9978 -0.0611
vn 0.1266 -0.9877 -0.0919
vn -0.2009 0.9776 0.0631
vn -0.8532 -0.4350 0.2878
vn -0.5626 0.7976 0.2174
vn 0.7930 0.3140 -0.5221
vn 0.7362 -0.1561 -0.6585
vn -0.1448 -0.9718 0.1861
vn 0.5186 0.0392 0.8541
vn -0.9403 0.2425 0.2387
vn -0.5186 0.1211 -0.8464
vn 0.1393 -0.9900 -0.0198
vn 0.7310 -0.1950 -0.6539
vn -0.6909 -0.3042 0.6558
vn -0.5792 0.7990 -0.1617
vn 0.8484 0.3926 -0.3551
vn -0.0003 -0.9650 0.2624
vn 0.6877 0.0778 0.7218
vn -0.0091 0.9999 0.0066
s off
f 13//1 16//1 12//1
f 14//2 17//2 16//2
f 14//3 16//3 13//3
f 12//4 16//4 17//4
f 13//5 10//5 14//5
f 17//6 20//6 12//6
f 20//7 18//7 21//7
f 18//8 19//8 21//8
f 4//9 1//9 6//9 8//9
f 19//10 20//10 21//10
f 7//11 3//11 4//11 8//11
f 2//12 3//12 7//12 5//12
f 1//13 2//13 5//13 6//13
f 15//14 11//14 9//14 12//14
f 10//15 11//15 15//15 14//15
f 13//16 12//16 9//16
f 18//17 20//17 17//17 14//17
f 19//18 18//18 14//18 15//18
f 19//19 15//19 12//19 20//19
f 11//20 10//20 13//20 9//20
f 8//21 6//21 5//21 7//21
