# Blender v2.78 (sub 0) OBJ File: 'Low_Poly_Trees_Pack.blend'
# www.blender.org
g Birch_Tree_NoLeaves_crk_l_02_Collider
v -0.502468 -0.004308 0.313870
v 0.162342 -0.013410 0.322305
v 0.335966 -0.009070 -0.153250
v -0.221884 -0.000996 -0.383977
v -0.281544 4.146717 0.236763
v -0.007779 4.143682 0.246363
v 0.083901 4.148725 -0.011503
v -0.131588 4.145691 -0.179976
v 4.942682 1.893098 2.071630
v 4.694447 1.785099 1.974581
v 4.883636 1.695472 1.832291
v 4.953870 1.870635 1.755111
v 9.610278 0.514368 2.783077
v 3.130347 2.840043 1.484159
v 3.075421 2.538087 1.267635
v 3.024871 2.567767 1.486083
v 3.212226 2.791356 1.212333
v 5.059175 1.641122 2.058600
v 4.988924 1.111346 2.697112
v 4.821886 1.029218 2.636543
v 4.949175 0.930500 2.544974
v 5.122861 1.021140 2.622614
v 6.202449 0.223554 3.715548
v 0.172560 4.500038 0.262087
v 0.056404 4.186180 0.256562
v 0.139521 4.132172 0.001414
v 0.307048 4.412649 -0.063738
vn 0.9392 0.0450 0.3403
vn -0.0190 0.0185 0.9996
vn 0.4584 0.0459 -0.8875
vn 0.4944 0.8690 -0.0189
vn -0.4837 -0.8750 0.0181
vn 0.2174 -0.3311 -0.9182
vn -0.4271 -0.9041 0.0152
vn 0.1189 -0.3453 -0.9309
vn -0.2841 0.0244 0.9585
vn 0.2909 0.9550 -0.0575
vn -0.5009 0.5217 0.6906
vn 0.0746 -0.4270 -0.9012
vn -0.1888 -0.1376 0.9723
vn -0.6844 -0.5348 -0.4956
vn -0.2320 -0.9713 -0.0533
vn 0.7699 0.4469 0.4555
vn 0.5924 -0.5155 -0.6191
vn 0.5278 -0.3476 -0.7750
vn -0.5612 -0.8210 0.1050
vn 0.5713 0.8200 0.0341
vn -0.4588 0.3226 0.8279
vn -0.8410 0.3610 -0.4029
vn -0.0019 1.0000 0.0053
vn -0.9321 0.0405 -0.3600
vn -0.3239 0.1167 0.9389
vn 0.4728 0.8806 -0.0317
s off
f 3//1 7//1 6//1 2//1
f 2//2 6//2 5//2 1//2
f 4//3 8//3 7//3 3//3
f 24//4 14//4 17//4 27//4
f 26//5 15//5 16//5 25//5
f 27//6 17//6 15//6 26//6
f 15//7 11//7 10//7 16//7
f 17//8 12//8 11//8 15//8
f 16//9 10//9 9//9 14//9
f 12//10 9//10 13//10
f 9//11 10//11 20//11 19//11
f 12//12 13//12 11//12
f 13//13 9//13 18//13
f 10//14 11//14 21//14 20//14
f 11//15 13//15 18//15
f 18//16 9//16 19//16 22//16
f 11//17 18//17 22//17 21//17
f 21//18 22//18 23//18
f 20//19 21//19 23//19
f 22//20 19//20 23//20
f 19//21 20//21 23//21
f 25//22 24//22 27//22 26//22
f 6//23 7//23 8//23 5//23
f 4//24 1//24 5//24 8//24
f 25//25 16//25 14//25 24//25
f 14//26 9//26 12//26 17//26
