# Blender v2.78 (sub 0) OBJ File: 'Low_Poly_Trees_Pack.blend'
# www.blender.org
g Birch_Tree_crk_l_02_Collider
v -0.502468 -0.004308 0.313870
v 0.162342 -0.013410 0.322305
v 0.335966 -0.009070 -0.153250
v -0.221884 -0.000996 -0.383977
v -0.281544 4.146717 0.236763
v -0.007779 4.143682 0.246363
v 0.083901 4.148725 -0.011503
v -0.131588 4.145691 -0.179976
v 5.348206 2.798459 2.267990
v 5.120802 2.649472 2.174217
v 5.323596 2.583258 2.037973
v 5.367576 2.763316 1.953025
v 10.159555 2.182453 3.083434
v 3.422306 3.429558 1.620679
v 3.417273 3.113047 1.418511
v 3.359424 3.144763 1.634851
v 3.514831 3.381382 1.352198
v 5.501833 2.566876 2.268076
v 5.503049 2.062765 2.930771
v 5.351393 1.953395 2.872857
v 5.493609 1.871114 2.787201
v 5.650278 1.990692 2.861811
v 6.821508 1.418688 4.000752
v 0.265841 4.560408 0.295743
v 0.198841 4.232589 0.304390
v 0.293141 4.180121 0.052833
v 0.417076 4.479548 -0.024375
vn 0.9392 0.0450 0.3403
vn -0.0190 0.0185 0.9996
vn 0.4584 0.0459 -0.8875
vn 0.3568 0.9325 -0.0567
vn -0.3453 -0.9368 0.0563
vn 0.2793 -0.3363 -0.8994
vn -0.2849 -0.9570 0.0552
vn 0.1844 -0.3659 -0.9122
vn -0.2993 0.0252 0.9538
vn 0.1432 0.9845 -0.1010
vn -0.5850 0.4706 0.6605
vn 0.1526 -0.4519 -0.8789
vn -0.1808 -0.1196 0.9762
vn -0.5875 -0.6553 -0.4748
vn -0.0808 -0.9967 -0.0084
vn 0.6859 0.5798 0.4398
vn 0.6734 -0.4472 -0.5887
vn 0.5864 -0.2985 -0.7530
vn -0.4314 -0.8912 0.1398
vn 0.4394 0.8983 -0.0007
vn -0.5153 0.2868 0.8076
vn -0.8798 0.2094 -0.4267
vn -0.0019 1.0000 0.0053
vn -0.9321 0.0405 -0.3600
vn -0.3523 0.1093 0.9295
vn 0.3339 0.9400 -0.0702
s off
f 3//1 7//1 6//1 2//1
f 2//2 6//2 5//2 1//2
f 4//3 8//3 7//3 3//3
f 24//4 14//4 17//4 27//4
f 26//5 15//5 16//5 25//5
f 27//6 17//6 15//6 26//6
f 15//7 11//7 10//7 16//7
f 17//8 12//8 11//8 15//8
f 16//9 10//9 9//9 14//9
f 12//10 9//10 13//10
f 9//11 10//11 20//11 19//11
f 12//12 13//12 11//12
f 13//13 9//13 18//13
f 10//14 11//14 21//14 20//14
f 11//15 13//15 18//15
f 18//16 9//16 19//16 22//16
f 11//17 18//17 22//17 21//17
f 21//18 22//18 23//18
f 20//19 21//19 23//19
f 22//20 19//20 23//20
f 19//21 20//21 23//21
f 25//22 24//22 27//22 26//22
f 6//23 7//23 8//23 5//23
f 4//24 1//24 5//24 8//24
f 25//25 16//25 14//25 24//25
f 14//26 9//26 12//26 17//26
