# Blender v2.78 (sub 0) OBJ File: 'Low_Poly_Trees_Pack.blend'
# www.blender.org
g Birch_Tree_NoLeaves_crk_m_01_Collider
v -0.000000 0.000000 -0.189172
v -0.138664 0.000000 -0.088427
v -0.085699 0.000000 0.074582
v 0.085699 0.000000 0.074582
v 0.095468 1.706080 -0.154628
v -0.002529 1.677229 -0.080408
v 0.034903 1.688249 0.039684
v 0.153826 1.592530 0.040793
v -0.127792 6.339958 -0.070931
vn 0.0030 0.0208 0.9998
vn -0.9508 0.0749 0.3007
vn 0.0101 0.0241 0.9997
vn -0.6010 -0.0145 -0.7991
vn -0.9537 -0.0262 0.2997
vn -0.5977 0.0510 -0.8001
vn 0.9497 -0.0470 -0.3096
vn 0.9647 0.0511 -0.2584
s off
f 4//1 8//1 7//1 3//1
f 3//2 7//2 6//2 2//2
f 7//3 8//3 9//3
f 5//4 6//4 9//4
f 6//5 7//5 9//5
f 2//6 6//6 5//6 1//6
f 8//7 4//7 1//7 5//7
f 9//8 8//8 5//8
