# Blender v2.78 (sub 0) OBJ File: 'Low_Poly_Trees_Pack.blend'
# www.blender.org
g Birch_Tree_NoLeaves_l_04_Collider
v 0.057488 -0.000000 -0.360000
v -0.544338 0.000000 -0.111246
v -0.356300 0.000000 0.291246
v 0.361741 -0.000000 0.291246
v 1.046466 0.681404 -0.180649
v 0.785211 0.706613 -0.068907
v 0.843162 0.696984 0.111895
v 1.140234 0.665823 0.111895
v 1.907880 3.430360 -0.136280
v 1.691849 3.442169 -0.058433
v 1.732526 3.437658 0.067527
v 1.973698 3.423062 0.067527
v 1.951288 5.311476 -0.132726
v 1.863666 5.261693 -0.054644
v 1.898083 5.263799 0.051477
v 2.052560 5.277163 -0.029919
v 1.717541 6.289640 -0.032421
vn 0.0075 0.2443 0.9697
vn 0.5854 -0.7680 -0.2596
vn -0.4656 0.8596 0.2106
vn -0.2916 0.6054 -0.7406
vn 0.0013 0.0157 0.9999
vn 0.9101 -0.2801 -0.3055
vn -0.9045 0.2985 0.3046
vn 0.9495 -0.0566 -0.3087
vn -0.9474 0.0887 0.3075
vn 0.7098 -0.0150 -0.7042
vn 0.2015 0.0168 0.9793
vn -0.4594 0.0285 -0.8878
vn 0.4505 0.1512 0.8799
vn -0.6396 -0.0744 -0.7651
vn -0.3579 0.1246 -0.9254
vn -0.9410 -0.1404 0.3080
vn 0.7304 0.2401 -0.6394
s off
f 4//1 8//1 7//1 3//1
f 1//2 5//2 8//2 4//2
f 3//3 7//3 6//3 2//3
f 2//4 6//4 5//4 1//4
f 8//5 12//5 11//5 7//5
f 12//6 8//6 5//6 9//6
f 7//7 11//7 10//7 6//7
f 12//8 9//8 16//8
f 11//9 15//9 14//9 10//9
f 9//10 13//10 16//10
f 12//11 16//11 15//11 11//11
f 10//12 14//12 13//12 9//12
f 16//13 17//13 15//13
f 14//14 17//14 13//14
f 6//15 10//15 9//15 5//15
f 15//16 17//16 14//16
f 16//17 13//17 17//17
