# Blender v2.78 (sub 0) OBJ File: 'Low_Poly_Trees_Pack.blend'
# www.blender.org
g Birch_Firewood_06_Collider
v -0.280612 0.000000 0.126709
v -0.280612 0.077009 0.151400
v -0.280612 0.000000 0.044194
v -0.280612 0.038291 0.031441
v 0.280612 0.000000 0.126709
v 0.280612 0.077009 0.151400
v 0.280612 0.000000 0.044194
v 0.280612 0.038291 0.031441
v -0.175807 -0.000000 -0.081755
v -0.177890 0.077009 -0.057152
v -0.168847 -0.000000 -0.163977
v -0.175006 0.100880 -0.091216
v 0.383417 -0.000000 -0.034418
v 0.381334 0.077009 -0.009815
v 0.390377 -0.000000 -0.116640
v 0.384218 0.100880 -0.043879
vn -1.0000 0.0000 0.0000
vn 0.0000 -0.3160 -0.9488
vn 1.0000 -0.0000 0.0000
vn 0.0000 -0.3053 0.9523
vn 0.0000 -1.0000 0.0000
vn 0.0000 0.9517 -0.3072
vn -0.9964 0.0000 -0.0843
vn 0.0683 0.5863 -0.8072
vn 0.9964 0.0000 0.0843
vn -0.0803 -0.3053 0.9489
vn -0.0483 0.8199 0.5705
s off
f 1//1 2//1 4//1 3//1
f 3//2 4//2 8//2 7//2
f 7//3 8//3 6//3 5//3
f 5//4 6//4 2//4 1//4
f 3//5 7//5 5//5 1//5
f 8//6 4//6 2//6 6//6
f 9//7 10//7 12//7 11//7
f 11//8 12//8 16//8 15//8
f 15//9 16//9 14//9 13//9
f 13//10 14//10 10//10 9//10
f 11//5 15//5 13//5 9//5
f 16//11 12//11 10//11 14//11
