# Blender v2.78 (sub 0) OBJ File: 'Low_Poly_Trees_Pack.blend'
# www.blender.org
g Simple_Firewood_Pile_01_Collider
v -0.295808 -0.000000 0.355058
v -0.295808 -0.000000 -0.484011
v 0.293292 -0.000000 0.355058
v 0.293292 -0.000000 -0.484011
v -0.295808 0.068487 0.355058
v -0.295808 0.233250 -0.122300
v 0.293292 0.233250 -0.122300
v 0.293292 0.068487 0.355058
v -0.295808 0.233250 -0.182477
v -0.295808 0.058904 -0.484011
v 0.293292 0.058904 -0.484011
v 0.293292 0.233250 -0.182477
vn 1.0000 0.0000 0.0000
vn 0.0000 1.0000 0.0000
vn 0.0000 0.0000 -1.0000
vn -0.0000 0.9453 0.3263
vn 0.0000 0.0000 1.0000
vn 0.0000 0.8657 -0.5006
vn -1.0000 0.0000 0.0000
s off
f 3//1 7//1 8//1
f 12//2 9//2 6//2 7//2
f 2//3 10//3 11//3 4//3
f 7//4 6//4 5//4 8//4
f 3//5 8//5 5//5 1//5
f 9//6 12//6 11//6 10//6
f 1//7 5//7 6//7
f 4//1 11//1 12//1 7//1
f 3//1 4//1 7//1
f 2//7 1//7 6//7 9//7
f 10//7 2//7 9//7
