# Blender v2.78 (sub 0) OBJ File: 'Low_Poly_Trees_Pack.blend'
# www.blender.org
g Simple_Firewood_01_Collider
v -0.279696 0.000000 0.066282
v -0.279696 0.125297 0.066282
v -0.279696 0.000000 -0.066032
v -0.279696 0.125297 -0.066032
v 0.281528 0.000000 0.014539
v 0.281528 0.125297 0.014539
v 0.281528 0.000000 -0.117775
v 0.281528 0.125297 -0.117775
v 0.000916 0.000000 -0.066032
v 0.000916 0.125297 -0.066032
v 0.000916 0.000000 0.066282
v 0.000916 0.125297 0.066282
vn -1.0000 0.0000 0.0000
vn -0.1813 0.0000 -0.9834
vn 1.0000 0.0000 0.0000
vn 0.0000 0.0000 1.0000
vn 0.0000 -1.0000 0.0000
vn 0.0000 1.0000 0.0000
vn 0.1813 0.0000 0.9834
vn 0.0000 0.0000 -1.0000
s off
f 1//1 2//1 4//1 3//1
f 9//2 10//2 8//2 7//2
f 7//3 8//3 6//3 5//3
f 11//4 12//4 2//4 1//4
f 9//5 7//5 5//5 11//5
f 10//6 4//6 2//6 12//6
f 8//6 10//6 12//6 6//6
f 3//5 9//5 11//5 1//5
f 5//7 6//7 12//7 11//7
f 3//8 4//8 10//8 9//8
