# Blender v2.78 (sub 0) OBJ File: 'Low_Poly_Trees_Pack.blend'
# www.blender.org
g Dead_Tree_m_07_Collider
v 0.000000 0.000000 -0.490066
v -0.490066 0.000000 0.000000
v 0.000000 0.000000 0.490066
v 0.490066 0.000000 -0.000000
v -0.237271 0.899348 -0.284216
v -0.347315 0.899348 0.161423
v 0.098324 0.899348 0.271467
v 0.208368 0.899348 -0.174172
v 0.001740 2.392675 0.014342
v 0.016203 2.394074 0.212674
v 0.293960 2.424499 0.230378
v 0.279261 2.423079 -0.028952
v -0.034025 3.351570 -0.313496
v -0.009262 3.318934 -0.188415
v 0.111560 3.394746 -0.193762
v 0.084182 3.430714 -0.316354
v -0.525549 3.820906 -0.615682
vn 0.2305 0.2745 -0.9335
vn -0.2319 0.2536 0.9391
vn 0.9162 0.3308 0.2262
vn -0.9525 0.1934 -0.2352
vn 0.7040 0.0941 0.7040
vn -0.7070 -0.0147 0.7070
vn -0.7069 -0.0247 -0.7069
vn 0.7046 0.0842 -0.7046
vn 0.0854 0.1364 -0.9870
vn -0.1750 0.0291 0.9841
vn 0.9869 -0.0908 0.1337
vn -0.9667 0.2118 -0.1439
vn -0.9788 0.0327 0.2023
vn -0.0277 -0.3014 -0.9531
vn -0.9973 0.0041 0.0727
vn 0.9854 0.1605 -0.0567
vn -0.2529 0.4630 0.8495
vn 0.2173 -0.3573 -0.9084
vn -0.6696 -0.7403 -0.0606
vn 0.4814 0.8643 0.1461
vn 0.9745 0.1381 -0.1771
vn -0.1306 0.3837 0.9142
s off
f 1//1 5//1 8//1
f 3//2 7//2 6//2
f 4//3 8//3 7//3
f 2//4 6//4 5//4
f 3//5 4//5 7//5
f 2//6 3//6 6//6
f 1//7 2//7 5//7
f 4//8 1//8 8//8
f 5//9 9//9 12//9 8//9
f 7//10 11//10 10//10 6//10
f 8//11 12//11 11//11 7//11
f 6//12 10//12 9//12 5//12
f 9//13 14//13 13//13
f 12//14 9//14 13//14 16//14
f 9//15 10//15 14//15
f 11//16 12//16 15//16
f 14//17 15//17 17//17
f 16//18 13//18 17//18
f 13//19 14//19 17//19
f 15//20 16//20 17//20
f 12//21 16//21 15//21
f 10//22 11//22 15//22 14//22
