# Blender v2.78 (sub 0) OBJ File: 'Low_Poly_Trees_Pack.blend'
# www.blender.org
g Dead_Tree_m_06_Collider
v 0.000000 0.000000 -0.490066
v -0.490066 0.000000 0.000000
v 0.000000 0.000000 0.490066
v 0.490066 0.000000 -0.000000
v -0.050320 0.899348 -0.171533
v -0.160364 0.899348 0.274106
v 0.285275 0.899348 0.384150
v 0.395319 0.899348 -0.061489
v 0.216737 2.392675 0.014342
v 0.231199 2.394074 0.212674
v 0.508957 2.424499 0.230378
v 0.494257 2.423079 -0.028952
v -0.133475 3.340455 0.027798
v -0.108712 3.307819 0.152880
v 0.012110 3.383631 0.147533
v -0.015268 3.419599 0.024940
v -0.502934 3.928976 -0.146043
vn 0.2258 0.3364 -0.9142
vn -0.2355 0.1870 0.9537
vn 0.9641 0.1178 0.2381
vn -0.8922 0.3942 -0.2203
vn 0.7002 -0.1396 0.7002
vn -0.7064 0.0437 0.7064
vn -0.6919 0.2063 -0.6919
vn 0.7069 0.0261 -0.7069
vn 0.0892 0.0611 -0.9941
vn -0.1772 0.1058 0.9785
vn 0.9861 -0.0990 0.1336
vn -0.9651 0.2187 -0.1437
vn -0.9334 -0.3462 0.0944
vn -0.1117 -0.0150 -0.9936
vn -0.9364 -0.3437 0.0707
vn 0.8886 0.4557 -0.0529
vn -0.1706 0.3372 0.9258
vn 0.1186 -0.2121 -0.9700
vn -0.8507 -0.5247 0.0315
vn 0.7139 0.6988 0.0456
vn 0.8871 0.4571 -0.0640
vn -0.0457 0.0555 0.9974
s off
f 1//1 5//1 8//1
f 3//2 7//2 6//2
f 4//3 8//3 7//3
f 2//4 6//4 5//4
f 3//5 4//5 7//5
f 2//6 3//6 6//6
f 1//7 2//7 5//7
f 4//8 1//8 8//8
f 5//9 9//9 12//9 8//9
f 7//10 11//10 10//10 6//10
f 8//11 12//11 11//11 7//11
f 6//12 10//12 9//12 5//12
f 9//13 14//13 13//13
f 12//14 9//14 13//14 16//14
f 9//15 10//15 14//15
f 11//16 12//16 15//16
f 14//17 15//17 17//17
f 16//18 13//18 17//18
f 13//19 14//19 17//19
f 15//20 16//20 17//20
f 12//21 16//21 15//21
f 10//22 11//22 15//22 14//22
