# Blender v2.78 (sub 0) OBJ File: 'Low_Poly_Trees_Pack.blend'
# www.blender.org
g Dead_Tree_s_04_Collider
v 0.000000 0.000000 -0.120000
v -0.103923 0.000000 0.060000
v 0.103923 0.000000 0.060000
v -0.011356 0.681330 -0.009065
v -0.040212 0.664073 0.109768
v 0.067667 0.720860 0.083336
v -0.184046 1.169030 -0.062239
v -0.227321 1.179279 0.017577
v -0.140770 1.158781 -0.003993
v -0.128600 1.730055 -0.159675
v -0.149096 1.740243 -0.085714
v -0.084245 1.789943 -0.108356
v -0.299216 1.933295 -0.154764
v 0.014786 0.831961 0.061181
v 0.087557 0.986794 0.400860
v 0.133073 1.005367 0.376674
v 0.107835 1.047415 0.351975
vn 0.8218 0.0819 -0.5638
vn 0.0930 -0.0543 0.9942
vn -0.9124 0.0834 -0.4006
vn 0.7017 0.1975 -0.6846
vn 0.1999 0.2580 0.9452
vn -0.8725 -0.3608 -0.3295
vn 0.8058 -0.1716 -0.5667
vn 0.2530 0.1382 0.9576
vn -0.9211 0.0404 -0.3873
vn 0.0437 0.3664 0.9294
vn 0.4310 0.3815 -0.8177
vn -0.7615 -0.6363 -0.1234
vn 0.7465 0.2090 -0.6317
vn -0.9420 0.3319 0.0505
vn 0.8365 0.2831 -0.4692
vn 0.5082 -0.6757 0.5341
vn 0.1861 0.5783 0.7943
s off
f 1//1 4//1 6//1 3//1
f 3//2 6//2 5//2 2//2
f 2//3 5//3 4//3 1//3
f 6//4 4//4 14//4
f 5//5 14//5 9//5 8//5
f 4//6 5//6 8//6 7//6
f 9//7 7//7 10//7 12//7
f 8//8 9//8 12//8 11//8
f 7//9 8//9 11//9 10//9
f 11//10 12//10 13//10
f 12//11 10//11 13//11
f 10//12 11//12 13//12
f 14//13 4//13 7//13 9//13
f 14//14 5//14 15//14 17//14
f 6//15 14//15 17//15 16//15
f 5//16 6//16 16//16 15//16
f 16//17 17//17 15//17
