# Blender v2.78 (sub 0) OBJ File: 'Low_Poly_Trees_Pack.blend'
# www.blender.org
g Dead_Tree_s_05_Collider
v 0.118177 0.000000 -0.020838
v -0.077135 0.000000 -0.091925
v -0.041042 0.000000 0.112763
v -0.033778 0.681330 -0.243768
v -0.155816 0.664073 -0.251550
v -0.111053 0.720860 -0.149900
v 0.037084 1.155495 -0.116389
v -0.047973 1.172846 -0.143239
v -0.011700 1.152348 -0.061748
v -0.104572 1.705158 -0.362045
v -0.147502 1.694114 -0.346823
v -0.115195 1.717594 -0.312407
v 0.023092 1.222866 -0.141328
v 0.257143 1.313411 0.132669
v -0.426643 2.095979 -0.703943
vn 0.6819 0.3334 0.6510
vn -0.9655 -0.0246 0.2594
vn 0.2465 -0.2257 -0.9425
vn 0.6943 -0.2875 0.6598
vn -0.9164 0.1223 0.3812
vn 0.1616 0.2022 -0.9659
vn 0.8046 0.3821 0.4545
vn -0.8601 0.0515 0.5076
vn 0.2324 -0.2948 -0.9268
vn 0.0905 -0.3704 -0.9245
vn -0.6482 0.6880 0.3263
vn 0.7703 -0.0745 -0.6334
vn 0.3503 -0.8996 0.2609
vn 0.7697 0.6384 0.0048
vn -0.7493 0.0651 0.6590
vn -0.0768 -0.6916 -0.7182
s off
f 1//1 4//1 6//1 3//1
f 3//2 6//2 5//2 2//2
f 2//3 5//3 4//3 1//3
f 6//4 4//4 7//4 9//4
f 5//5 6//5 9//5 8//5
f 4//6 5//6 8//6 7//6
f 9//7 13//7 10//7 12//7
f 8//8 9//8 12//8 11//8
f 7//9 8//9 13//9
f 13//10 8//10 11//10 10//10
f 13//11 9//11 14//11
f 7//12 13//12 14//12
f 9//13 7//13 14//13
f 12//14 10//14 15//14
f 11//15 12//15 15//15
f 10//16 11//16 15//16
