# Blender v2.78 (sub 0) OBJ File: 'Low_Poly_Trees_Pack.blend'
# www.blender.org
g Dead_Tree_s_03_Collider
v 0.000000 0.000000 -0.120000
v -0.103923 0.000000 0.060000
v 0.103923 0.000000 0.060000
v -0.011356 0.681330 -0.009065
v -0.040212 0.664073 0.109768
v 0.067667 0.720860 0.083336
v -0.184046 1.169030 -0.062239
v -0.227321 1.179279 0.017577
v -0.140770 1.158781 -0.003993
v -0.321191 1.898121 -0.159674
v -0.344037 1.899516 -0.085714
v -0.270692 1.890712 -0.107951
v -0.564982 2.602975 -0.111562
vn 0.8218 0.0819 -0.5638
vn 0.0930 -0.0543 0.9942
vn -0.9124 0.0834 -0.4006
vn 0.7394 0.2072 -0.6406
vn 0.1864 0.2560 0.9485
vn -0.8725 -0.3608 -0.3295
vn 0.7639 0.0510 -0.6433
vn 0.2909 0.1834 0.9390
vn -0.9039 -0.2099 -0.3728
vn 0.3019 0.1295 0.9445
vn -0.9139 -0.2972 -0.2767
vn 0.7055 0.2882 -0.6475
s off
f 1//1 4//1 6//1 3//1
f 3//2 6//2 5//2 2//2
f 2//3 5//3 4//3 1//3
f 6//4 4//4 7//4 9//4
f 5//5 6//5 9//5 8//5
f 4//6 5//6 8//6 7//6
f 9//7 7//7 10//7 12//7
f 8//8 9//8 12//8 11//8
f 7//9 8//9 11//9 10//9
f 11//10 12//10 13//10
f 10//11 11//11 13//11
f 12//12 10//12 13//12
