# Blender v2.78 (sub 0) OBJ File: 'Low_Poly_Trees_Pack.blend'
# www.blender.org
g Dead_Tree_crk_m_03_Collider
v -0.992111 0.158134 1.025647
v -0.969680 -0.078762 1.256566
v -0.692531 0.012475 1.407189
v -0.725798 0.271788 1.159829
v -1.203623 0.314011 1.811661
v -1.148018 0.089032 1.836406
v -0.915773 0.149812 1.804943
v -0.967054 0.354682 1.782217
v 0.000000 0.000000 -0.490066
v -0.490066 0.000000 0.000000
v 0.000000 0.000000 0.490066
v 0.490066 0.000000 -0.000000
v -0.160282 0.899348 -0.322432
v -0.340266 0.899348 0.099835
v 0.082001 0.899348 0.279820
v 0.261985 0.899348 -0.142447
v -0.119950 1.725487 0.155070
v 0.088810 1.804476 -0.135105
v 0.186477 1.738873 0.341750
v 0.342497 1.826979 0.057200
vn 0.1878 -0.9130 0.3621
vn 0.8790 0.3491 0.3249
vn -0.2397 0.9416 -0.2367
vn -0.9405 -0.2718 -0.2040
vn 0.5408 -0.5515 -0.6351
vn 0.0992 0.1336 0.9861
vn 0.3812 0.2346 -0.8942
vn -0.3803 0.2433 0.8923
vn 0.8822 0.2833 0.3760
vn -0.9026 0.1931 -0.3847
vn 0.7035 0.1003 0.7035
vn -0.7066 0.0393 0.7066
vn -0.7071 0.0058 -0.7071
vn 0.7055 0.0672 -0.7055
vn 0.8996 -0.1546 0.4084
vn -0.8528 0.2919 -0.4330
vn 0.4776 0.0985 -0.8731
vn -0.4497 0.0249 0.8928
vn -0.1769 0.9695 0.1696
s off
f 6//1 2//1 3//1 7//1
f 3//2 4//2 8//2 7//2
f 8//3 4//3 1//3 5//3
f 1//4 2//4 6//4 5//4
f 2//5 1//5 4//5 3//5
f 6//6 7//6 8//6 5//6
f 9//7 13//7 16//7
f 11//8 15//8 14//8
f 12//9 16//9 15//9
f 10//10 14//10 13//10
f 11//11 12//11 15//11
f 10//12 11//12 14//12
f 9//13 10//13 13//13
f 12//14 9//14 16//14
f 15//15 16//15 20//15 19//15
f 13//16 14//16 17//16 18//16
f 16//17 13//17 18//17 20//17
f 14//18 15//18 19//18 17//18
f 17//19 19//19 20//19 18//19
