# Blender v2.78 (sub 0) OBJ File: 'Low_Poly_Trees_Pack.blend'
# www.blender.org
g Dead_Tree_crk_m_01_Collider
v 0.072343 2.146932 0.094096
v 1.088677 1.760487 -0.010391
v 1.195462 1.648790 -0.443305
v 1.182956 2.228488 -0.308514
v 0.749758 1.958657 -0.272439
v 0.983636 2.228614 0.167069
v 1.056128 1.386765 -1.462397
v 0.916359 1.506948 -1.610122
v 0.836715 1.266974 -1.540142
v 1.926050 0.736543 -2.644417
v 1.946215 3.063280 0.999054
v 1.786457 2.922290 1.266362
v 2.178444 3.149612 1.437288
v 1.908043 0.361882 0.369401
v 1.369048 1.920476 -0.007295
v 2.315244 2.945198 -0.772627
v -0.437742 0.000000 0.870915
v 0.626056 0.000000 0.534515
v -0.774142 0.000000 -0.192883
v 0.184942 1.078266 0.382345
v 0.344834 0.009878 -0.565653
v 0.017076 2.135595 0.558088
v -0.059216 2.462258 0.227182
v 0.086855 2.378919 0.622132
v -0.289760 1.948387 0.392986
v -0.237568 2.120254 0.016066
vn 0.2073 0.9744 0.0866
vn -0.6528 -0.6829 0.3278
vn -0.8512 -0.5193 -0.0760
vn 0.8666 0.1880 -0.4622
vn -0.3128 0.1712 -0.9343
vn -0.3605 -0.9304 -0.0657
vn -0.8626 -0.4541 0.2232
vn 0.3492 -0.3309 0.8767
vn -0.9482 0.2997 -0.1056
vn 0.8698 -0.0047 -0.4935
vn 0.2775 -0.9319 0.2336
vn -0.3663 -0.9061 -0.2115
vn 0.4063 -0.2428 0.8809
vn 0.9468 0.2014 -0.2510
vn -0.7024 0.6432 -0.3047
vn 0.2169 -0.7791 0.5882
vn -0.7050 0.0273 -0.7086
vn 0.6293 0.7763 0.0361
vn 0.3225 -0.7925 0.5176
vn -0.6033 -0.3975 0.6914
vn -0.5366 0.8353 0.1198
vn 0.7650 -0.6373 0.0925
vn -0.1211 0.1934 0.9736
vn -0.5832 0.8019 -0.1298
vn -0.1125 0.6592 0.7435
vn -0.4729 0.1899 -0.8604
vn -0.9616 0.1757 0.2107
vn 0.3328 0.2230 0.9163
vn 0.9117 0.3405 -0.2300
vn -0.3765 0.9140 0.1510
vn -0.3617 -0.2085 0.9087
vn 0.9908 0.1207 0.0606
vn -0.3434 0.3232 -0.8818
vn 0.2325 0.9655 0.1177
vn 0.2065 0.3126 -0.9272
s off
f 6//1 4//1 24//1
f 5//2 9//2 2//2
f 2//3 3//3 14//3
f 15//4 14//4 3//4
f 26//5 21//5 19//5
f 2//6 22//6 1//6
f 24//7 23//7 1//7
f 22//8 2//8 24//8
f 22//9 24//9 1//9
f 11//10 13//10 15//10 4//10
f 9//11 7//11 3//11 2//11
f 1//12 5//12 2//12
f 2//13 6//13 24//13
f 8//14 4//14 3//14 7//14
f 8//15 9//15 5//15 4//15
f 10//16 7//16 9//16
f 10//17 9//17 8//17
f 10//18 8//18 7//18
f 12//19 2//19 15//19 13//19
f 6//20 2//20 12//20
f 13//21 11//21 12//21
f 16//22 15//22 3//22
f 2//23 14//23 15//23
f 11//24 4//24 6//24 12//24
f 16//25 4//25 15//25
f 16//26 3//26 4//26
f 19//27 17//27 25//27 26//27
f 17//28 18//28 20//28 25//28
f 21//29 20//29 18//29
f 22//30 1//30 26//30 25//30
f 20//31 22//31 25//31
f 20//32 21//32 1//32 22//32
f 5//33 1//33 23//33 4//33
f 24//34 4//34 23//34
f 26//35 1//35 21//35
