# Blender v2.78 (sub 0) OBJ File: 'Low_Poly_Trees_Pack.blend'
# www.blender.org
g Acacia_Tree_l_05_Collider
v 0.377159 0.000000 -0.269239
v -0.308527 0.000000 -0.150028
v -0.158923 0.000000 0.505431
v 0.490854 0.000000 0.228888
v 0.146569 2.365431 -0.277153
v -0.313881 2.366716 -0.229515
v -0.215752 2.393305 0.228975
v 0.185760 2.377928 0.100040
v 0.111604 5.165453 -0.186436
v -0.100558 5.275869 -0.236463
v -0.012653 5.267001 0.095843
v 0.148200 5.235335 -0.008399
v 1.404538 7.616161 -0.087871
vn -0.1440 -0.0255 -0.9892
vn 0.9793 0.1056 -0.1726
vn -0.9762 0.0035 0.2170
vn -0.9710 0.0754 0.2267
vn 0.0060 0.0145 -0.9999
vn 0.3849 0.0278 0.9226
vn 0.1970 -0.0646 -0.9783
vn 0.4959 -0.2338 0.8363
vn -0.8248 0.5157 0.2319
vn 0.8844 -0.4667 0.0014
vn 0.3592 0.1060 0.9272
vn 0.9905 0.0123 -0.1370
s off
f 2//1 6//1 5//1 1//1
f 5//2 8//2 4//2 1//2
f 3//3 7//3 6//3 2//3
f 6//4 7//4 11//4 10//4
f 5//5 6//5 10//5 9//5
f 7//6 8//6 12//6 11//6
f 10//7 13//7 9//7
f 12//8 13//8 11//8
f 10//9 11//9 13//9
f 12//10 9//10 13//10
f 4//11 8//11 7//11 3//11
f 9//12 12//12 8//12 5//12
