# Blender v2.78 (sub 0) OBJ File: 'Low_Poly_Trees_Pack.blend'
# www.blender.org
g Acacia_Tree_crk_l_04_Collider
v 0.377159 0.000000 -0.269239
v -0.308527 0.000000 -0.150028
v -0.158923 0.000000 0.505431
v 0.490854 0.000000 0.228888
v -0.039075 2.512102 -0.387147
v -0.302454 2.462964 -0.009654
v -0.457735 2.891173 -0.123997
v -0.181757 2.859433 -0.441647
v -1.791627 1.535883 -2.473400
v -1.965387 1.408253 -2.358398
v -2.048118 1.732052 -2.439288
v -1.897080 1.680519 -2.550080
v -2.625416 0.707925 -4.367947
v -0.313881 2.366716 -0.229515
v 0.146569 2.365431 -0.277153
v -0.215752 2.393305 0.228975
v 0.185760 2.377928 0.100040
vn -0.1440 -0.0255 -0.9892
vn 0.9793 0.1056 -0.1726
vn -0.9762 0.0035 0.2170
vn -0.7945 -0.0958 0.5997
vn 0.4409 -0.8948 0.0702
vn -0.1760 0.9186 -0.3540
vn 0.6198 -0.7817 0.0689
vn -0.0351 0.8870 -0.4605
vn -0.9233 -0.1473 0.3546
vn 0.8054 0.3242 -0.4962
vn 0.3592 0.1060 0.9272
vn 0.7117 0.1777 -0.6797
vn 0.7192 0.4000 0.5681
vn 0.0094 0.9988 -0.0483
s off
f 2//1 14//1 15//1 1//1
f 15//2 17//2 4//2 1//2
f 3//3 16//3 14//3 2//3
f 6//4 7//4 11//4 10//4
f 5//5 6//5 10//5 9//5
f 7//6 8//6 12//6 11//6
f 10//7 13//7 9//7
f 12//8 13//8 11//8
f 10//9 11//9 13//9
f 12//10 9//10 13//10
f 4//11 17//11 16//11 3//11
f 9//12 12//12 8//12 5//12
f 8//13 7//13 6//13 5//13
f 14//14 16//14 17//14 15//14
