# Blender v2.78 (sub 0) OBJ File: 'Low_Poly_Trees_Pack.blend'
# www.blender.org
g Acacia_Tree_crk_m_01_Collider
v -0.332590 2.699640 0.033915
v -0.263531 2.909476 -0.176795
v -0.163890 2.713604 -0.168182
v -1.383524 1.853330 -0.829844
v -1.312882 2.055065 -1.007066
v -1.222416 1.875875 -0.997235
v -3.232867 0.448682 -2.851814
v -3.389024 0.483003 -2.715075
v -3.317003 0.609667 -2.847737
v -0.131064 0.000000 -0.091772
v -0.127782 0.000000 0.096290
v 0.140584 0.000000 0.151283
v 0.135273 0.000000 -0.153009
v -0.234923 2.727652 0.257273
v -0.238144 2.714508 0.094908
v 0.009235 2.722631 0.305114
v 0.004025 2.701364 0.042401
v -1.427088 2.019276 -0.880346
v -3.431899 0.611414 -2.743297
v -0.376945 2.869637 -0.033331
vn 0.2981 -0.8898 0.3455
vn 0.4954 0.2096 -0.8430
vn 0.5433 0.2654 -0.7965
vn -0.6812 -0.0043 0.7320
vn -0.5156 0.8329 -0.2012
vn 0.9986 0.0497 -0.0204
vn -0.2164 0.0592 -0.9745
vn -0.9990 -0.0406 0.0201
vn 0.4338 -0.8484 0.3034
vn 0.0364 0.9960 -0.0814
vn -0.1969 -0.0651 0.9783
vn -0.6690 0.0838 0.7385
vn -0.3911 0.8836 -0.2574
vn 0.6803 0.3957 0.6170
vn -0.6497 -0.3418 -0.6790
s off
f 6//1 4//1 8//1 7//1
f 2//2 3//2 6//2 5//2
f 6//3 7//3 9//3 5//3
f 18//4 19//4 8//4 4//4
f 20//5 2//5 5//5 18//5
f 13//6 17//6 16//6 12//6
f 10//7 15//7 17//7 13//7
f 11//8 14//8 15//8 10//8
f 3//9 1//9 4//9 6//9
f 15//10 14//10 16//10 17//10
f 12//11 16//11 14//11 11//11
f 1//12 20//12 18//12 4//12
f 5//13 9//13 19//13 18//13
f 1//14 3//14 2//14 20//14
f 7//15 8//15 19//15 9//15
