# Blender v2.78 (sub 0) OBJ File: 'Low_Poly_Trees_Pack.blend'
# www.blender.org
g Acacia_Tree_m_05_Collider
v -0.148277 0.000000 -0.096280
v -0.117590 0.000000 0.129443
v 0.070501 0.000000 0.129443
v 0.101189 0.000000 -0.096280
v -0.164771 1.129215 -0.007761
v -0.130654 1.135082 0.229999
v 0.058541 1.167613 0.229999
v 0.092659 1.173480 -0.007761
v -0.122524 3.899203 -0.133003
v -0.089202 3.893041 0.051033
v 0.052653 3.866809 0.051033
v 0.085975 3.860647 -0.133003
v -0.069026 6.154125 -0.051439
v -0.146673 6.103710 0.031365
v -0.082897 6.163883 0.121397
v 0.019886 6.144366 0.097422
v 0.020607 6.073832 -0.007653
v -0.036115 6.267520 0.006734
v 0.466216 6.280560 -0.327750
v 0.526185 6.273119 -0.242555
v 0.505489 6.231129 -0.305931
v 0.468519 6.334377 -0.280999
v -0.551010 6.219370 0.184171
v -0.569615 6.172793 0.230902
v -0.530280 6.214324 0.290471
v -0.513739 6.278135 0.218617
vn 0.9904 -0.0025 0.1384
vn -0.0067 0.0766 -0.9970
vn 0.0075 -0.0869 0.9962
vn 0.0006 -0.0459 -0.9989
vn 0.0067 0.0360 -0.9993
vn 0.9874 0.0112 0.1579
vn -0.9872 0.0236 0.1579
vn -0.0012 0.0655 0.9979
vn -0.9410 -0.0215 0.3376
vn 0.4836 0.0637 -0.8730
vn 0.0929 -0.0250 0.9954
vn -0.7414 0.0418 -0.6698
vn 0.9935 0.0174 0.1124
vn 0.0995 -0.8534 0.5116
vn 0.3269 0.6454 0.6904
vn 0.2976 0.6639 0.6861
vn -0.2463 -0.6211 -0.7440
vn -0.4772 0.5370 -0.6957
vn -0.3181 0.5465 -0.7747
vn 0.2875 0.6493 0.7041
vn -0.4283 -0.5413 -0.7236
vn 0.4987 -0.7469 0.4398
vn 0.7667 0.3965 -0.5050
vn -0.8580 0.4773 0.1900
vn -0.9900 -0.0245 0.1387
s off
f 4//1 8//1 7//1 3//1
f 1//2 5//2 8//2 4//2
f 3//3 7//3 6//3 2//3
f 8//4 5//4 9//4 12//4
f 9//5 13//5 12//5
f 7//6 8//6 12//6 11//6
f 5//7 6//7 10//7 9//7
f 6//8 7//8 11//8 10//8
f 9//9 10//9 15//9 14//9
f 17//10 12//10 13//10
f 10//11 11//11 16//11 15//11
f 9//12 14//12 13//12
f 11//13 12//13 17//13 16//13
f 15//14 25//14 24//14 14//14
f 18//15 26//15 25//15 15//15
f 16//16 20//16 22//16 18//16
f 13//17 19//17 21//17 17//17
f 18//18 22//18 19//18 13//18
f 13//19 23//19 26//19 18//19
f 15//20 16//20 18//20
f 14//21 24//21 23//21 13//21
f 17//22 21//22 20//22 16//22
f 21//23 19//23 22//23 20//23
f 23//24 24//24 25//24 26//24
f 2//25 6//25 5//25 1//25
