# Blender v2.78 (sub 0) OBJ File: 'Low_Poly_Trees_Pack.blend'
# www.blender.org
g Acacia_Tree_NoLeaves_crk_l_01_Collider
v -0.565482 0.000000 -0.245358
v -0.415973 0.000000 0.409686
v 0.220759 0.000000 0.514080
v 0.443024 0.000000 -0.446032
v 0.137577 1.847078 -0.383549
v -0.168820 1.847078 -0.235996
v -0.032461 1.847078 0.361435
v 0.307615 1.847078 0.361435
v 0.443975 1.847078 -0.235996
v 0.569150 0.741891 -0.158158
v 0.461589 0.741891 0.313099
v -0.116195 0.741891 0.319298
v -0.226586 0.741891 -0.164357
v -0.148135 2.584234 -0.266480
v -0.490971 2.584234 -0.278576
v -0.354611 2.584234 0.318855
v -0.050975 2.584234 0.159206
v -0.214895 3.509483 -0.123809
v -0.542740 3.517184 -0.170465
v -0.402768 3.518812 0.274138
v -0.198269 3.593416 0.125912
v 0.161522 2.147403 0.279045
v 0.018152 2.155203 -0.334615
v 0.533417 2.599033 -0.180045
v 1.162549 2.882417 0.199053
v 1.080685 2.482902 0.173494
v 1.103492 2.955762 -0.086869
v 3.194941 1.733470 0.508208
v 3.224072 1.923494 0.801442
v 3.123837 1.628153 0.783029
v 3.246114 1.929296 0.582999
v 4.862074 1.072920 0.707359
v 4.875107 1.230605 0.923953
v 4.803302 1.032650 0.910747
v 4.897012 1.241843 0.757723
v 6.735786 0.461784 1.331735
v -0.571460 8.434164 -0.288992
v 0.900442 2.394061 -0.223913
v 0.782643 2.462026 0.161407
v 1.040546 2.699599 -0.187168
v 0.520926 2.598336 0.101886
vn 0.4338 -0.0143 -0.9009
vn 0.7759 -0.5830 0.2410
vn -0.8985 0.3881 0.2051
vn -0.4336 -0.0357 -0.9004
vn 0.0067 -0.0407 0.9991
vn -0.9010 -0.3819 0.2057
vn -0.0786 0.2196 0.9724
vn 0.9673 0.1251 0.2208
vn 0.0076 -0.1970 -0.9804
vn -0.9648 -0.0603 0.2559
vn -0.4337 -0.0251 -0.9007
vn 0.2910 0.2599 0.9207
vn 0.0880 0.1387 -0.9864
vn 0.5071 0.0854 0.8576
vn 0.9767 0.1182 -0.1792
vn 0.9010 0.3819 -0.2057
vn -0.9538 0.0017 0.3003
vn 0.9936 0.0689 -0.0893
vn -0.2782 0.0121 0.9604
vn 0.1403 -0.0230 -0.9898
vn 0.0159 0.3225 0.9464
vn -0.1401 -0.0370 -0.9894
vn -0.2347 -0.8624 -0.4485
vn 0.0000 0.2646 0.9644
vn 0.1678 0.0533 -0.9844
vn 0.1190 0.2005 -0.9724
vn -0.7093 0.6962 0.1103
vn 0.3945 0.2436 -0.8860
vn 0.3958 0.9112 0.1139
vn -0.0877 -0.0332 0.9956
vn 0.2158 0.2709 -0.9381
vn 0.3779 0.9220 0.0840
vn -0.2098 0.0109 0.9777
vn -0.2987 -0.8873 -0.3513
vn -0.2235 -0.9418 -0.2511
vn 0.3668 0.1953 -0.9096
vn 0.3589 0.9269 0.1100
vn 0.5556 0.1134 0.8237
vn -0.1032 0.2703 -0.9572
vn -0.9729 0.0652 0.2220
vn 0.9444 -0.2463 0.2176
vn -0.9600 0.1692 0.2232
vn 0.4770 0.8789 0.0045
s off
f 5//1 9//1 10//1
f 8//2 9//2 38//2 39//2
f 2//3 12//3 13//3 1//3
f 13//4 6//4 5//4
f 11//5 8//5 7//5 12//5
f 6//6 7//6 16//6 15//6
f 3//7 11//7 12//7 2//7
f 10//8 9//8 8//8 11//8
f 13//9 5//9 10//9
f 15//10 16//10 20//10 19//10
f 5//11 6//11 23//11
f 7//12 22//12 17//12 16//12
f 14//13 15//13 19//13 18//13
f 16//14 17//14 21//14 20//14
f 18//15 21//15 17//15 14//15
f 14//16 17//16 22//16 23//16
f 20//17 37//17 19//17
f 18//18 37//18 21//18
f 26//19 30//19 29//19 25//19
f 19//20 37//20 18//20
f 22//21 8//21 39//21 41//21
f 23//22 6//22 15//22 14//22
f 40//23 28//23 30//23 26//23
f 22//24 7//24 8//24
f 9//25 5//25 24//25 38//25
f 5//26 23//26 24//26
f 23//27 22//27 41//27 24//27
f 27//28 31//28 28//28 40//28
f 25//29 29//29 31//29 27//29
f 33//30 29//30 30//30 34//30
f 31//31 35//31 32//31 28//31
f 29//32 33//32 35//32 31//32
f 33//33 34//33 36//33
f 28//34 32//34 34//34 30//34
f 34//35 32//35 36//35
f 32//36 35//36 36//36
f 35//37 33//37 36//37
f 21//38 37//38 20//38
f 13//39 10//39 4//39 1//39
f 6//40 13//40 12//40 7//40
f 10//41 11//41 3//41 4//41
f 40//42 26//42 25//42 27//42
f 38//43 24//43 41//43 39//43
