# Blender v2.78 (sub 0) OBJ File: 'Low_Poly_Trees_Pack.blend'
# www.blender.org
g Acacia_Tree_NoLeaves_m_01_Collider
v -0.148277 0.000000 -0.096280
v -0.117590 0.000000 0.129443
v 0.070501 0.000000 0.129443
v 0.101189 0.000000 -0.096280
v -0.324630 2.725561 -0.091709
v -0.295396 2.722631 0.110082
v -0.133279 2.706384 0.110082
v -0.104045 2.703454 -0.091709
v -0.230220 4.324394 -0.088318
v -0.196898 4.318233 0.095718
v -0.055043 4.292001 0.095718
v -0.021721 4.285839 -0.088318
v 0.201176 6.809480 -0.112219
v 0.090332 6.750300 -0.038266
v 0.139230 6.820934 0.081663
v 0.263122 6.798024 0.081663
v 0.291965 6.715227 -0.038263
v 0.223286 6.942589 -0.036942
v 1.737533 7.046108 -0.087522
v 1.742751 7.035782 0.056966
v 1.766679 6.977510 -0.032407
v 1.704806 7.120794 -0.031411
v -1.783205 7.351193 -0.099566
v -1.847910 7.295702 -0.035265
v -1.791471 7.345582 0.069010
v -1.713113 7.424890 -0.034129
vn 0.9876 0.0750 0.1379
vn 0.0001 0.0017 -1.0000
vn 0.0003 0.0072 1.0000
vn 0.0003 0.0021 -1.0000
vn -0.0017 -0.0093 -1.0000
vn 0.9857 -0.0494 0.1610
vn -0.9851 0.0600 0.1611
vn 0.0013 0.0090 1.0000
vn -0.9640 0.1267 0.2339
vn 0.5923 -0.0599 -0.8035
vn 0.0010 0.0055 1.0000
vn -0.5868 0.0941 -0.8042
vn 0.9642 -0.1251 0.2338
vn -0.2254 -0.8101 0.5413
vn 0.1712 0.6644 0.7275
vn -0.0865 0.6508 0.7543
vn 0.1028 -0.5703 -0.8150
vn -0.0645 0.5310 -0.8449
vn 0.1317 0.5169 -0.8459
vn 0.1201 0.6493 0.7510
vn -0.1787 -0.6338 -0.7526
vn 0.1398 -0.8044 0.5774
vn 0.9180 0.3965 -0.0048
vn -0.6919 0.7220 -0.0099
vn -0.9884 -0.0639 0.1381
s off
f 4//1 8//1 7//1 3//1
f 1//2 5//2 8//2 4//2
f 3//3 7//3 6//3 2//3
f 8//4 5//4 9//4 12//4
f 9//5 13//5 12//5
f 7//6 8//6 12//6 11//6
f 5//7 6//7 10//7 9//7
f 6//8 7//8 11//8 10//8
f 9//9 10//9 15//9 14//9
f 17//10 12//10 13//10
f 10//11 11//11 16//11 15//11
f 9//12 14//12 13//12
f 11//13 12//13 17//13 16//13
f 15//14 25//14 24//14 14//14
f 18//15 26//15 25//15 15//15
f 16//16 20//16 22//16 18//16
f 13//17 19//17 21//17 17//17
f 18//18 22//18 19//18 13//18
f 13//19 23//19 26//19 18//19
f 15//20 16//20 18//20
f 14//21 24//21 23//21 13//21
f 17//22 21//22 20//22 16//22
f 21//23 19//23 22//23 20//23
f 23//24 24//24 25//24 26//24
f 2//25 6//25 5//25 1//25
