# Blender v2.78 (sub 0) OBJ File: 'Low_Poly_Trees_Pack.blend'
# www.blender.org
g Acacia_Tree_NoLeaves_l_04_Collider
v 0.377159 0.000000 -0.269239
v -0.308527 0.000000 -0.150028
v -0.158923 0.000000 0.505431
v 0.490854 0.000000 0.228888
v 0.150545 3.747669 -0.123809
v -0.175967 3.778193 -0.170465
v -0.036222 3.770066 0.274138
v 0.172978 3.830240 0.125913
v 0.151652 9.575628 -0.341101
vn -0.9662 0.0412 0.2544
vn 0.4398 0.0507 0.8966
vn 0.9799 0.0715 -0.1863
vn 0.1380 -0.0369 -0.9897
vn 0.5635 0.0690 0.8233
vn -0.9518 0.0626 0.3003
vn 0.9961 -0.0035 -0.0883
vn -0.0710 0.0157 -0.9974
s off
f 3//1 7//1 6//1 2//1
f 4//2 8//2 7//2 3//2
f 5//3 8//3 4//3 1//3
f 6//4 9//4 5//4
f 8//5 9//5 7//5
f 6//6 7//6 9//6
f 8//7 5//7 9//7
f 2//8 6//8 5//8 1//8
