# Blender v2.78 (sub 0) OBJ File: 'Low_Poly_Trees_Pack.blend'
# www.blender.org
g Acacia_Tree_NoLeaves_crk_s_02_Collider
v -0.003069 0.000001 -0.213246
v -0.252549 0.000001 0.058269
v -0.022160 0.000001 0.225656
v 0.178776 0.000001 -0.081128
v 0.068059 3.569931 0.076648
v -0.116734 1.492995 0.030066
v 0.030657 1.492995 0.137152
v 0.153910 1.523810 -0.056922
v 0.025925 1.523810 -0.149908
v -0.073202 2.419688 0.110217
v 0.016934 2.420435 -0.002756
v -0.100253 2.402403 -0.083327
v -0.190817 2.390866 -0.001145
vn -0.7557 0.0489 -0.6531
vn -0.6973 0.1063 0.7089
vn -0.6726 0.1948 -0.7139
vn 0.5629 0.0320 -0.8259
vn 0.5876 0.0224 -0.8088
vn -0.5864 0.0686 0.8071
vn 0.7796 -0.0776 0.6215
vn 0.8124 0.0987 0.5747
vn -0.6332 -0.0371 0.7731
vn 0.5653 0.1391 -0.8131
vn -0.7397 -0.0701 -0.6693
vn 0.8394 0.0038 0.5435
s off
f 2//1 6//1 9//1 1//1
f 10//2 5//2 13//2
f 5//3 12//3 13//3
f 5//4 11//4 12//4
f 1//5 9//5 8//5 4//5
f 3//6 7//6 6//6 2//6
f 11//7 5//7 10//7
f 8//8 11//8 10//8 7//8
f 7//9 10//9 13//9 6//9
f 9//10 12//10 11//10 8//10
f 6//11 13//11 12//11 9//11
f 4//12 8//12 7//12 3//12
