# Blender v2.78 (sub 0) OBJ File: 'Low_Poly_Trees_Pack.blend'
# www.blender.org
g Acacia_Tree_s_01_Collider
v -0.003069 0.000001 -0.213246
v -0.252549 0.000001 0.058269
v -0.022160 0.000001 0.225656
v 0.178776 0.000001 -0.081128
v 0.233249 4.021039 -0.026575
v -0.116734 1.492995 0.030066
v 0.030657 1.492995 0.137152
v 0.153910 1.523810 -0.056922
v 0.025925 1.523810 -0.149908
v -0.024716 2.686297 0.086710
v 0.057141 2.670692 -0.031375
v -0.063914 2.690829 -0.105468
v -0.150485 2.698388 -0.018652
vn -0.7557 0.0489 -0.6531
vn -0.6206 0.1846 0.7620
vn -0.6860 0.1948 -0.7010
vn 0.5132 -0.0639 -0.8559
vn 0.5876 0.0224 -0.8088
vn -0.5864 0.0686 0.8071
vn 0.8103 -0.1077 0.5760
vn 0.8329 0.0600 0.5502
vn -0.6136 0.0098 0.7895
vn 0.5597 0.0701 -0.8257
vn -0.7561 -0.0406 -0.6532
vn 0.8394 0.0038 0.5435
s off
f 2//1 6//1 9//1 1//1
f 10//2 5//2 13//2
f 5//3 12//3 13//3
f 5//4 11//4 12//4
f 1//5 9//5 8//5 4//5
f 3//6 7//6 6//6 2//6
f 11//7 5//7 10//7
f 8//8 11//8 10//8 7//8
f 7//9 10//9 13//9 6//9
f 9//10 12//10 11//10 8//10
f 6//11 13//11 12//11 9//11
f 4//12 8//12 7//12 3//12
