# Blender v2.78 (sub 0) OBJ File: 'Low_Poly_Trees_Pack.blend'
# www.blender.org
g Acacia_Tree_crk_m_03_Collider
v -0.148277 0.000000 -0.096280
v -0.117590 0.000000 0.129443
v 0.070501 0.000000 0.129443
v 0.101189 0.000000 -0.096280
v -0.096026 1.140515 -0.014467
v -0.061908 1.143933 0.223294
v 0.867145 -0.023553 0.890465
v 0.908369 0.213087 0.887606
v 2.621095 0.324583 2.973634
v 2.627816 0.142694 2.930173
v 2.706653 0.147575 2.809459
v 2.736970 0.331757 2.796209
v 4.257812 0.449506 4.471641
v 4.162603 0.371154 4.486584
v 4.244215 0.276392 4.474182
v 4.302505 0.303827 4.388335
v 4.258833 0.415606 4.348159
v 4.358604 0.380475 4.520642
v 4.735672 0.719512 4.193138
v 4.766173 0.636468 4.137610
v 4.725665 0.703506 4.129063
v 4.773104 0.667506 4.224468
v 3.957606 0.201054 4.846107
v 3.908172 0.159090 4.823868
v 3.961437 0.096170 4.818912
v 4.023497 0.161315 4.856504
v 0.723073 -0.024507 1.014546
v 0.712334 0.211789 1.056436
v 0.127286 1.162883 0.223294
v 0.161404 1.166301 -0.014467
vn 0.9886 -0.0601 0.1378
vn -0.0036 0.0709 -0.9975
vn 0.0041 -0.0813 0.9967
vn -0.0452 0.9988 -0.0163
vn -0.0708 0.9975 -0.0059
vn 0.7196 -0.1483 -0.6784
vn -0.6920 -0.1720 0.7011
vn 0.0593 -0.9978 0.0302
vn -0.6430 -0.3435 0.6845
vn 0.2103 0.9432 -0.2572
vn 0.1455 -0.9877 -0.0579
vn -0.5054 0.7081 0.4931
vn 0.7090 -0.0942 -0.6989
vn -0.5802 -0.4194 -0.6982
vn 0.6468 -0.7481 0.1483
vn 0.6402 -0.7462 0.1825
vn -0.5703 0.8002 -0.1856
vn 0.1033 0.6292 0.7703
vn 0.2248 0.7093 0.6680
vn 0.6216 -0.7628 0.1783
vn -0.6395 0.7688 -0.0009
vn -0.2235 -0.3528 -0.9086
vn 0.8469 0.4732 -0.2425
vn -0.2591 -0.2513 0.9326
vn -0.9898 0.0361 0.1381
vn -0.6494 0.1040 -0.7533
vn -0.0997 0.9950 -0.0000
s off
f 4//1 30//1 29//1 3//1
f 1//2 5//2 30//2 4//2
f 3//3 29//3 6//3 2//3
f 8//4 28//4 9//4 12//4
f 9//5 13//5 12//5
f 7//6 8//6 12//6 11//6
f 28//7 27//7 10//7 9//7
f 27//8 7//8 11//8 10//8
f 9//9 10//9 15//9 14//9
f 17//10 12//10 13//10
f 10//11 11//11 16//11 15//11
f 9//12 14//12 13//12
f 11//13 12//13 17//13 16//13
f 15//14 25//14 24//14 14//14
f 18//15 26//15 25//15 15//15
f 16//16 20//16 22//16 18//16
f 13//17 19//17 21//17 17//17
f 18//18 22//18 19//18 13//18
f 13//19 23//19 26//19 18//19
f 15//20 16//20 18//20
f 14//21 24//21 23//21 13//21
f 17//22 21//22 20//22 16//22
f 21//23 19//23 22//23 20//23
f 23//24 24//24 25//24 26//24
f 2//25 6//25 5//25 1//25
f 27//26 28//26 8//26 7//26
f 29//27 30//27 5//27 6//27
