# Blender v2.78 (sub 0) OBJ File: 'Low_Poly_Trees_Pack.blend'
# www.blender.org
g Acacia_Tree_l_02_Collider
v -0.465184 0.000000 -0.180863
v -0.327962 0.000000 0.334959
v 0.256436 0.000000 0.417166
v 0.460432 0.000000 -0.338886
v 0.137577 1.847078 -0.383549
v -0.152219 1.847078 -0.163262
v -0.049062 1.847078 0.288701
v 0.307615 1.847078 0.361435
v 0.443975 1.847078 -0.235996
v 0.572414 0.741891 -0.160094
v 0.463969 0.741891 0.315035
v -0.118563 0.741891 0.321285
v -0.229862 0.741891 -0.166345
v -0.007679 2.818845 -0.266480
v -0.331570 2.770664 -0.211184
v -0.227123 2.786201 0.251464
v 0.088424 2.833141 0.159206
v -0.937795 5.644350 -0.249166
v -1.077961 5.602817 -0.269965
v -1.018790 5.622635 -0.071766
v -0.942210 5.682237 -0.137843
v 0.161522 2.147403 0.279045
v 0.018152 2.155203 -0.334615
v 0.533417 2.599033 -0.180045
v 0.678747 2.523088 0.204391
v 0.796547 2.455123 -0.180928
v 0.520926 2.598336 0.101886
v 2.618828 4.129043 -0.181709
v 2.725576 4.053205 0.125285
v 2.811408 3.986664 -0.182415
v 2.608870 4.129846 0.043429
v 3.658786 5.719286 -0.073173
v 3.731763 5.676351 0.125331
v 3.790748 5.638245 -0.073630
v 3.652326 5.719251 0.072402
v 4.083525 7.465895 -0.071450
v -1.059367 7.420664 -0.340867
vn 0.4339 -0.0115 -0.9009
vn 0.8515 -0.4599 0.2520
vn -0.9321 0.2792 0.2308
vn -0.6046 0.0447 -0.7953
vn -0.0706 -0.0090 0.9975
vn -0.9597 -0.1740 0.2208
vn -0.0647 0.0957 0.9933
vn 0.9670 0.1275 0.2207
vn 0.0076 -0.1953 -0.9807
vn -0.9396 -0.2384 0.2454
vn -0.6017 -0.1075 -0.7915
vn 0.1163 0.1134 0.9867
vn -0.0688 -0.0277 -0.9972
vn 0.3187 0.2031 0.9258
vn 0.9309 0.3123 -0.1893
vn 0.9725 0.0627 -0.2245
vn -0.9586 0.0209 0.2841
vn 0.9975 0.0691 0.0160
vn 0.5752 -0.7547 0.3155
vn 0.1583 -0.0401 -0.9866
vn -0.1244 0.3554 0.9264
vn -0.3931 -0.0391 -0.9187
vn -0.0022 0.0020 -1.0000
vn -0.1969 0.1691 0.9657
vn 0.2589 0.0410 -0.9650
vn 0.1190 0.2005 -0.9724
vn -0.7093 0.6962 0.1103
vn -0.5915 0.8058 -0.0264
vn -0.3091 0.4550 0.8351
vn 0.8017 -0.4971 0.3318
vn -0.8351 0.5488 -0.0381
vn -0.4302 0.2667 0.8625
vn 0.9395 -0.1509 0.3074
vn 0.0297 0.0484 -0.9984
vn -0.0025 0.0016 -1.0000
vn -0.9708 0.2361 -0.0430
vn -0.4725 0.1876 0.8611
vn 0.5862 0.1328 0.7992
vn -0.0865 0.1486 -0.9851
vn -0.9727 0.0677 0.2220
vn 0.9464 -0.2162 0.2402
s off
f 5//1 9//1 10//1
f 8//2 9//2 26//2 25//2
f 2//3 12//3 13//3 1//3
f 13//4 6//4 5//4
f 11//5 8//5 7//5 12//5
f 6//6 7//6 16//6 15//6
f 3//7 11//7 12//7 2//7
f 10//8 9//8 8//8 11//8
f 13//9 5//9 10//9
f 15//10 16//10 20//10 19//10
f 5//11 6//11 23//11
f 7//12 22//12 17//12 16//12
f 14//13 15//13 19//13 18//13
f 16//14 17//14 21//14 20//14
f 18//15 21//15 17//15 14//15
f 14//16 17//16 22//16 23//16
f 20//17 37//17 19//17
f 18//18 37//18 21//18
f 26//19 30//19 29//19 25//19
f 19//20 37//20 18//20
f 22//21 8//21 25//21 27//21
f 23//22 6//22 15//22 14//22
f 24//23 28//23 30//23 26//23
f 22//24 7//24 8//24
f 9//25 5//25 24//25 26//25
f 5//26 23//26 24//26
f 23//27 22//27 27//27 24//27
f 27//28 31//28 28//28 24//28
f 25//29 29//29 31//29 27//29
f 33//30 29//30 30//30 34//30
f 31//31 35//31 32//31 28//31
f 29//32 33//32 35//32 31//32
f 33//33 34//33 36//33
f 28//34 32//34 34//34 30//34
f 34//35 32//35 36//35
f 32//36 35//36 36//36
f 35//37 33//37 36//37
f 21//38 37//38 20//38
f 13//39 10//39 4//39 1//39
f 6//40 13//40 12//40 7//40
f 10//41 11//41 3//41 4//41
