# Blender v2.78 (sub 0) OBJ File: 'Low_Poly_Trees_Pack.blend'
# www.blender.org
g Palm_Tree_NoLeaves_crk_m_03_Collider
v -0.078502 0.000000 -0.181934
v -0.172646 0.000000 0.107812
v 0.130028 0.000000 0.178969
v 0.210390 0.000000 -0.068360
v 0.438527 1.119478 0.122087
v 0.495662 1.116325 -0.054932
v 0.182807 1.129193 0.081908
v 0.257546 1.125068 -0.149655
v 0.545229 1.981424 0.101588
v 0.594134 1.982708 -0.050093
v 0.334065 1.883334 0.067730
v 0.401648 1.884407 -0.141853
v 1.294876 1.221842 0.589431
v 1.385255 1.295665 0.569138
v 1.341128 1.306724 0.754023
v 1.267605 1.228677 0.703696
v 2.897209 -0.039332 1.017964
v 2.870891 -0.071645 0.998407
v 2.878489 -0.070626 0.953014
v 2.909505 -0.037685 0.944518
v 0.672906 2.138339 -0.108833
v 0.552236 2.016766 0.086004
v 1.881908 0.694785 0.823303
v 1.922047 0.758720 0.955575
v 1.953188 0.754519 0.806876
v 1.862662 0.697381 0.915205
v 0.604627 1.987705 -0.052949
v 0.588135 2.185363 0.115997
vn -0.1931 0.0930 0.9768
vn 0.3651 -0.0823 -0.9273
vn 0.9231 -0.2393 0.3009
vn 0.9458 -0.1095 0.3057
vn 0.4062 -0.0535 -0.9122
vn -0.1652 0.0475 0.9851
vn 0.6599 0.7425 0.1149
vn -0.5970 -0.7950 -0.1076
vn -0.0402 -0.2178 -0.9752
vn -0.3038 -0.3005 0.9041
vn -0.6885 -0.7161 -0.1151
vn -0.6313 0.0277 0.7750
vn 0.2576 -0.4688 -0.8449
vn 0.7376 -0.6665 0.1085
vn 0.6245 0.7728 0.1132
vn -0.6398 -0.7607 -0.1096
vn -0.4463 -0.1486 0.8824
vn 0.0682 -0.3403 -0.9378
vn 0.7069 0.6964 0.1237
vn -0.8852 0.2574 -0.3876
vn -0.4027 0.9069 -0.1239
vn -0.9356 0.1813 -0.3031
vn -0.9124 0.2807 -0.2978
s off
f 3//1 5//1 7//1 2//1
f 1//2 8//2 6//2 4//2
f 4//3 6//3 5//3 3//3
f 6//4 10//4 9//4 5//4
f 8//5 12//5 10//5 6//5
f 5//6 9//6 11//6 7//6
f 25//7 14//7 15//7 24//7
f 23//8 19//8 18//8 26//8
f 25//9 20//9 19//9 23//9
f 26//10 18//10 17//10 24//10
f 27//11 13//11 16//11 22//11
f 22//12 16//12 15//12 28//12
f 21//13 14//13 13//13 27//13
f 18//14 19//14 20//14 17//14
f 17//15 20//15 25//15 24//15
f 13//16 23//16 26//16 16//16
f 16//17 26//17 24//17 15//17
f 14//18 25//18 23//18 13//18
f 28//19 15//19 14//19 21//19
f 21//20 27//20 22//20 28//20
f 10//21 12//21 11//21 9//21
f 7//22 11//22 12//22 8//22
f 2//23 7//23 8//23 1//23
