# Blender v2.78 (sub 0) OBJ File: 'Low_Poly_Trees_Pack.blend'
# www.blender.org
g Palm_Tree_crk_l_01_Collider
v 0.000000 0.000000 -0.302016
v -0.287234 0.000000 -0.093328
v -0.116824 0.000000 0.271313
v 0.314211 0.000000 0.061786
v 0.179013 2.474441 -0.224358
v -0.025200 2.485710 -0.074995
v 0.113499 2.481406 0.193655
v 0.410202 2.463171 0.080119
v 0.099892 0.127348 2.487267
v -0.251409 0.335484 2.463073
v -0.307301 0.087726 2.464004
v 0.000250 0.359972 2.477449
v 0.123470 0.261762 7.470720
v 0.061206 0.256908 7.477776
v 0.047400 0.196335 7.487282
v 0.148145 0.204188 7.475865
vn -0.5865 0.0678 -0.8071
vn 0.7741 -0.0308 -0.6323
vn -0.8944 0.0939 0.4372
vn -0.9729 0.2221 0.0640
vn 0.0927 -0.9956 0.0147
vn 0.9194 0.3931 -0.0150
vn 0.1015 0.1316 0.9861
vn 0.0587 -0.0170 -0.9981
vn 0.0546 0.9985 -0.0081
vn -0.0935 0.9954 0.0217
vn 0.4054 -0.0158 0.9140
s off
f 2//1 6//1 5//1 1//1
f 1//2 5//2 8//2 4//2
f 3//3 7//3 6//3 2//3
f 11//4 15//4 14//4 10//4
f 9//5 16//5 15//5 11//5
f 12//6 13//6 16//6 9//6
f 13//7 15//7 16//7
f 14//7 15//7 13//7
f 10//8 9//8 11//8
f 12//8 9//8 10//8
f 5//9 6//9 7//9 8//9
f 10//10 14//10 13//10 12//10
f 4//11 8//11 7//11 3//11
