# Blender v2.78 (sub 0) OBJ File: 'Low_Poly_Trees_Pack.blend'
# www.blender.org
g Palm_Tree_NoLeaves_m_02_Collider
v 0.123062 0.000000 -0.191935
v -0.220949 0.000000 -0.071791
v -0.136554 0.000000 0.187951
v 0.233372 0.000000 0.147566
v 0.303155 1.898459 0.105689
v -0.019384 1.912085 -0.057689
v 0.040617 1.908774 0.128214
v 0.220610 1.903015 -0.150058
v 0.785842 5.693096 -0.059383
v 0.747864 5.702447 -0.030966
v 0.762370 5.698876 0.015014
v 0.809314 5.687315 0.015014
vn -0.3411 0.0405 -0.9391
vn 0.0993 0.0201 0.9949
vn 0.9424 -0.1332 -0.3068
vn -0.9466 0.0975 0.3074
vn -0.3925 0.0832 -0.9160
vn 0.0736 0.0149 0.9972
vn -0.9337 0.1869 0.3055
vn 0.2391 0.9710 0.0000
vn 0.9504 -0.0418 -0.3082
s off
f 2//1 6//1 8//1 1//1
f 4//2 5//2 7//2 3//2
f 8//3 9//3 12//3 5//3
f 3//4 7//4 6//4 2//4
f 6//5 10//5 9//5 8//5
f 5//6 12//6 11//6 7//6
f 7//7 11//7 10//7 6//7
f 11//8 12//8 9//8
f 10//8 11//8 9//8
f 8//9 5//9 4//9 1//9
