# Blender v2.78 (sub 0) OBJ File: 'Low_Poly_Trees_Pack.blend'
# www.blender.org
g Palm_Tree_Coconut_m_01_Collider
v 0.085283 0.000000 -0.165605
v -0.188008 0.000000 -0.061087
v -0.116195 0.000000 0.159929
v 0.170755 0.000000 0.097451
v 0.153296 5.206180 -0.050529
v 0.118481 5.208899 -0.031395
v 0.134424 5.207654 0.017822
v 0.173803 5.204579 0.012776
vn 0.2028 0.0164 0.9791
vn -0.9496 0.0541 0.3086
vn 0.9511 -0.0056 -0.3089
vn -0.3721 0.0263 -0.9278
vn 0.0779 0.9970 -0.0000
s off
f 4//1 8//1 7//1 3//1
f 3//2 7//2 6//2 2//2
f 8//3 4//3 1//3 5//3
f 2//4 6//4 5//4 1//4
f 7//5 8//5 5//5
f 6//5 7//5 5//5
