# Blender v2.78 (sub 0) OBJ File: 'Low_Poly_Trees_Pack.blend'
# www.blender.org
g Palm_Tree_crk_m_03_Collider
v -0.080368 0.000000 -0.186260
v -0.176751 0.000000 0.110375
v 0.133120 0.000000 0.183224
v 0.215393 0.000000 -0.069985
v 0.448954 1.146094 0.124989
v 0.507446 1.142866 -0.056238
v 0.187153 1.156040 0.083855
v 0.263669 1.151817 -0.153213
v 0.558192 2.028534 0.104003
v 0.608260 2.029848 -0.051284
v 0.342007 1.928111 0.069341
v 0.411197 1.929210 -0.145225
v 1.325663 1.250892 0.603445
v 1.418190 1.326470 0.582670
v 1.373014 1.337792 0.771951
v 1.297743 1.257889 0.720427
v 2.966092 -0.040267 1.042167
v 2.939148 -0.073348 1.022145
v 2.946927 -0.072305 0.975672
v 2.978680 -0.038581 0.966974
v 0.688905 2.189179 -0.111421
v 0.565365 2.064716 0.088048
v 1.926652 0.711304 0.842878
v 1.967744 0.776759 0.978295
v 1.999626 0.772458 0.826060
v 1.906948 0.713962 0.936964
v 0.619002 2.034963 -0.054208
v 0.602118 2.237321 0.118755
vn -0.1931 0.0930 0.9768
vn 0.3651 -0.0823 -0.9273
vn 0.9231 -0.2393 0.3009
vn 0.9458 -0.1095 0.3057
vn 0.4062 -0.0535 -0.9122
vn -0.1652 0.0475 0.9851
vn 0.6599 0.7425 0.1149
vn -0.5970 -0.7950 -0.1076
vn -0.0402 -0.2178 -0.9752
vn -0.3038 -0.3005 0.9041
vn -0.6885 -0.7161 -0.1151
vn -0.6313 0.0277 0.7750
vn 0.2576 -0.4688 -0.8449
vn 0.7376 -0.6665 0.1085
vn 0.6245 0.7728 0.1132
vn -0.6398 -0.7607 -0.1096
vn -0.4463 -0.1486 0.8824
vn 0.0682 -0.3403 -0.9378
vn 0.7069 0.6964 0.1237
vn -0.8852 0.2574 -0.3876
vn -0.4027 0.9069 -0.1239
vn -0.9356 0.1813 -0.3031
vn -0.9124 0.2807 -0.2978
s off
f 3//1 5//1 7//1 2//1
f 1//2 8//2 6//2 4//2
f 4//3 6//3 5//3 3//3
f 6//4 10//4 9//4 5//4
f 8//5 12//5 10//5 6//5
f 5//6 9//6 11//6 7//6
f 25//7 14//7 15//7 24//7
f 23//8 19//8 18//8 26//8
f 25//9 20//9 19//9 23//9
f 26//10 18//10 17//10 24//10
f 27//11 13//11 16//11 22//11
f 22//12 16//12 15//12 28//12
f 21//13 14//13 13//13 27//13
f 18//14 19//14 20//14 17//14
f 17//15 20//15 25//15 24//15
f 13//16 23//16 26//16 16//16
f 16//17 26//17 24//17 15//17
f 14//18 25//18 23//18 13//18
f 28//19 15//19 14//19 21//19
f 21//20 27//20 22//20 28//20
f 10//21 12//21 11//21 9//21
f 7//22 11//22 12//22 8//22
f 2//23 7//23 8//23 1//23
