# Blender v2.78 (sub 0) OBJ File: 'Low_Poly_Trees_Pack.blend'
# www.blender.org
g Palm_Tree_Coconut_m_02_Collider
v 0.115186 0.000000 -0.179651
v -0.206809 0.000000 -0.067196
v -0.127815 0.000000 0.175922
v 0.218436 0.000000 0.138121
v 0.283753 1.776958 0.098925
v -0.018144 1.789711 -0.053997
v 0.038018 1.786612 0.120008
v 0.206491 1.781222 -0.140454
v 0.735548 5.328738 -0.055582
v 0.700001 5.337491 -0.028984
v 0.713579 5.334148 0.014053
v 0.757518 5.323328 0.014053
vn -0.3411 0.0405 -0.9391
vn 0.0993 0.0201 0.9949
vn 0.9424 -0.1332 -0.3068
vn -0.9466 0.0975 0.3074
vn -0.3925 0.0832 -0.9160
vn 0.0736 0.0149 0.9972
vn -0.9337 0.1869 0.3055
vn 0.2391 0.9710 0.0000
vn 0.9504 -0.0418 -0.3082
s off
f 2//1 6//1 8//1 1//1
f 4//2 5//2 7//2 3//2
f 8//3 9//3 12//3 5//3
f 3//4 7//4 6//4 2//4
f 6//5 10//5 9//5 8//5
f 5//6 12//6 11//6 7//6
f 7//7 11//7 10//7 6//7
f 11//8 12//8 9//8
f 10//8 11//8 9//8
f 8//9 5//9 4//9 1//9
