# Blender v2.78 (sub 0) OBJ File: 'Low_Poly_Trees_Pack.blend'
# www.blender.org
g Palm_Tree_crk_m_01_Collider
v 0.000000 0.000000 -0.235491
v -0.223965 0.000000 -0.072771
v -0.091091 0.000000 0.211550
v 0.244999 0.000000 0.048176
v 0.139581 1.929393 -0.174938
v -0.019649 1.938180 -0.058476
v 0.088499 1.934824 0.150998
v 0.319846 1.920606 0.062471
v 0.077889 0.099297 1.939393
v -0.196031 0.261587 1.920529
v -0.239612 0.068402 1.921255
v 0.000195 0.280680 1.931739
v 0.096273 0.204103 5.825136
v 0.047724 0.200319 5.830637
v 0.036959 0.153088 5.838049
v 0.115513 0.159211 5.829148
vn -0.5865 0.0678 -0.8071
vn 0.7741 -0.0308 -0.6323
vn -0.8944 0.0939 0.4372
vn -0.9729 0.2221 0.0640
vn 0.0927 -0.9956 0.0147
vn 0.9194 0.3931 -0.0150
vn 0.1015 0.1316 0.9861
vn 0.0587 -0.0170 -0.9981
vn 0.0546 0.9985 -0.0081
vn -0.0935 0.9954 0.0217
vn 0.4054 -0.0158 0.9140
s off
f 2//1 6//1 5//1 1//1
f 1//2 5//2 8//2 4//2
f 3//3 7//3 6//3 2//3
f 11//4 15//4 14//4 10//4
f 9//5 16//5 15//5 11//5
f 12//6 13//6 16//6 9//6
f 13//7 15//7 16//7
f 14//7 15//7 13//7
f 10//8 9//8 11//8
f 12//8 9//8 10//8
f 5//9 6//9 7//9 8//9
f 10//10 14//10 13//10 12//10
f 4//11 8//11 7//11 3//11
