# Blender v2.78 (sub 0) OBJ File: 'Low_Poly_Trees_Pack.blend'
# www.blender.org
g Palm_Tree_Coconut_l_03_Collider
v 0.100433 0.000000 -0.214057
v -0.260579 0.000000 -0.084667
v -0.161047 0.000000 0.221662
v 0.222534 0.000000 0.161729
v -0.323366 1.417590 0.151210
v -0.382151 4.380106 0.086791
v -0.688459 1.434132 -0.068036
v -0.571292 4.405072 -0.052828
v -0.526642 4.399179 0.086791
v -0.617696 1.430227 0.151210
v -0.367967 4.389642 -0.139118
v -0.390175 1.423908 -0.203538
v 0.312315 6.696784 -0.070034
v 0.268435 6.711008 -0.036520
v 0.285196 6.705575 0.017707
v 0.339434 6.687992 0.017707
v -0.518545 2.832288 0.119001
v -0.762995 2.853042 -0.060432
v -0.705288 2.848143 0.119001
v -0.509831 2.840216 -0.171328
vn 0.0052 0.0282 0.9996
vn 0.9951 -0.0894 0.0411
vn -0.8961 0.3244 0.3028
vn -0.3720 -0.1108 -0.9216
vn -0.3931 0.0541 -0.9179
vn 0.0890 0.0596 0.9942
vn 0.0022 0.0206 0.9998
vn 0.9901 0.1101 -0.0867
vn -0.9147 -0.2769 0.2943
vn -0.9447 0.1152 0.3070
vn 0.9135 0.3332 -0.2333
vn -0.4160 0.1536 -0.8963
vn 0.3084 0.9513 0.0000
vn 0.9553 -0.2902 -0.0564
vn -0.9509 -0.0517 0.3053
vn 0.0014 0.0229 0.9997
vn -0.4084 -0.0152 -0.9127
s off
f 6//1 16//1 15//1 9//1
f 11//2 6//2 17//2 20//2
f 9//3 15//3 14//3 8//3
f 2//4 7//4 12//4 1//4
f 18//5 8//5 11//5 20//5
f 4//6 5//6 10//6 3//6
f 17//7 6//7 9//7 19//7
f 12//8 20//8 17//8 5//8
f 3//9 10//9 7//9 2//9
f 19//10 9//10 8//10 18//10
f 12//11 5//11 4//11 1//11
f 8//12 14//12 13//12 11//12
f 15//13 16//13 13//13
f 14//13 15//13 13//13
f 11//14 13//14 16//14 6//14
f 10//15 19//15 18//15 7//15
f 5//16 17//16 19//16 10//16
f 7//17 18//17 20//17 12//17
