# Blender v2.78 (sub 0) OBJ File: 'Low_Poly_Trees_Pack.blend'
# www.blender.org
g Palm_Tree_Coconut_s_06_Collider
v 0.126386 0.000000 0.096233
v 0.130604 0.000000 -0.091593
v -0.113654 0.000000 -0.117034
v -0.118834 0.000000 0.113652
v -0.149438 1.221789 0.218680
v -0.005741 1.232458 0.068920
v -0.145963 1.229818 0.038455
v -0.008159 1.226870 0.194341
v -0.529342 3.618258 0.488619
v -0.529237 3.622156 0.457702
v -0.557912 3.616069 0.447131
v -0.558082 3.609761 0.497156
vn 0.9940 0.1071 0.0230
vn -0.9858 -0.1657 -0.0259
vn 0.1081 -0.0749 0.9913
vn 0.1417 0.1355 -0.9806
vn 0.9774 0.2095 0.0285
vn 0.2213 0.2026 -0.9539
vn 0.1953 -0.0791 0.9775
vn -0.2484 0.9611 0.1204
vn -0.2484 0.9612 0.1204
vn -0.9995 -0.0234 -0.0215
s off
f 2//1 6//1 8//1 1//1
f 5//2 12//2 11//2 7//2
f 1//3 8//3 5//3 4//3
f 3//4 7//4 6//4 2//4
f 6//5 10//5 9//5 8//5
f 7//6 11//6 10//6 6//6
f 8//7 9//7 12//7 5//7
f 9//8 11//8 12//8
f 10//9 11//9 9//9
f 4//10 5//10 7//10 3//10
