# Blender v2.78 (sub 0) OBJ File: 'Low_Poly_Trees_Pack.blend'
# www.blender.org
g Palm_Tree_Coconut_s_01_Collider
v 0.071069 0.000000 -0.138004
v -0.156673 0.000000 -0.050906
v -0.096829 0.000000 0.133274
v 0.142296 0.000000 0.081209
v 0.127747 4.338484 -0.042108
v 0.098734 4.340749 -0.026163
v 0.112020 4.339712 0.014851
v 0.144836 4.337149 0.010646
vn 0.2028 0.0164 0.9791
vn -0.9496 0.0541 0.3086
vn 0.9511 -0.0056 -0.3089
vn -0.3721 0.0263 -0.9278
vn 0.0779 0.9970 0.0000
vn 0.0778 0.9970 0.0000
s off
f 4//1 8//1 7//1 3//1
f 3//2 7//2 6//2 2//2
f 8//3 4//3 1//3 5//3
f 2//4 6//4 5//4 1//4
f 7//5 8//5 5//5
f 6//6 7//6 5//6
