# Blender v2.78 (sub 0) OBJ File: 'Low_Poly_Trees_Pack.blend'
# www.blender.org
g Palm_Tree_l_06_Collider
v 0.210643 0.000000 0.160388
v 0.217673 0.000000 -0.152655
v -0.189423 0.000000 -0.195057
v -0.198056 0.000000 0.189420
v -0.249063 2.036314 0.364467
v -0.009568 2.054096 0.114866
v -0.243272 2.049696 0.064092
v -0.013598 2.044784 0.323902
v -0.882237 6.030430 0.814365
v -0.882061 6.036927 0.762837
v -0.929853 6.026782 0.745218
v -0.930137 6.016267 0.828593
vn 0.9940 0.1071 0.0230
vn -0.9858 -0.1657 -0.0259
vn 0.1081 -0.0749 0.9913
vn 0.1417 0.1355 -0.9806
vn 0.9774 0.2095 0.0285
vn 0.2213 0.2026 -0.9539
vn 0.1953 -0.0791 0.9775
vn -0.2484 0.9611 0.1204
vn -0.2484 0.9612 0.1204
vn -0.9995 -0.0234 -0.0215
s off
f 2//1 6//1 8//1 1//1
f 5//2 12//2 11//2 7//2
f 1//3 8//3 5//3 4//3
f 3//4 7//4 6//4 2//4
f 6//5 10//5 9//5 8//5
f 7//6 11//6 10//6 6//6
f 8//7 9//7 12//7 5//7
f 9//8 11//8 12//8
f 10//9 11//9 9//9
f 4//10 5//10 7//10 3//10
