# Blender v2.78 (sub 0) OBJ File: 'Low_Poly_Trees_Pack.blend'
# www.blender.org
g Palm_Tree_m_04_Collider
v 0.099205 0.000000 -0.223428
v -0.212493 0.000000 -0.069043
v -0.131328 0.000000 0.180757
v 0.131328 0.000000 0.180757
v 0.304717 3.425268 0.070775
v 0.150479 3.445627 -0.043080
v 0.186889 3.440821 0.070775
v 0.328350 3.433045 -0.063446
v 0.628665 5.476494 -0.057110
v 0.592072 5.485206 -0.029780
v 0.606049 5.481879 0.014439
v 0.651280 5.471110 0.014439
v 0.579629 2.235103 0.097041
v 0.379852 2.224512 -0.049280
v 0.427013 2.227012 0.097041
v 0.606372 2.231058 -0.102167
v 0.343538 4.245276 0.052096
v 0.221195 4.266593 -0.038670
v 0.250076 4.261561 0.052096
v 0.296807 4.253418 -0.094767
vn 0.9966 -0.0069 -0.0823
vn -0.5646 0.1779 -0.8060
vn -0.0007 0.0377 0.9993
vn -0.1785 -0.0191 -0.9838
vn 0.9637 0.2220 0.1481
vn 0.0006 0.0220 0.9998
vn -0.9233 0.2429 0.2976
vn 0.9207 -0.2405 -0.3072
vn -0.9373 -0.1783 0.2995
vn 0.0057 0.0292 0.9996
vn -0.9113 0.2752 0.3064
vn 0.2316 0.9728 0.0000
vn -0.2896 -0.0088 -0.9571
vn 0.0034 0.0226 0.9997
vn 0.9779 -0.2091 -0.0073
vn -0.9485 0.0800 0.3065
vn -0.3581 0.1177 -0.9262
s off
f 20//1 17//1 5//1 8//1
f 18//2 10//2 9//2 20//2
f 4//3 13//3 15//3 3//3
f 14//4 6//4 8//4 16//4
f 8//5 5//5 13//5 16//5
f 13//6 5//6 7//6 15//6
f 3//7 15//7 14//7 2//7
f 20//8 9//8 12//8 17//8
f 15//9 7//9 6//9 14//9
f 17//10 12//10 11//10 19//10
f 18//11 19//11 11//11 10//11
f 11//12 12//12 9//12
f 10//12 11//12 9//12
f 6//13 18//13 20//13 8//13
f 5//14 17//14 19//14 7//14
f 13//15 4//15 1//15 16//15
f 7//16 19//16 18//16 6//16
f 2//17 14//17 16//17 1//17
