# Blender v2.78 (sub 0) OBJ File: 'Low_Poly_Trees_Pack.blend'
# www.blender.org
g Palm_Tree_crk_m_02_Collider
v -0.177938 0.000000 -0.148306
v -0.099501 0.000000 0.187133
v 0.147227 0.000000 0.152458
v 0.153240 0.000000 -0.194850
v 0.066254 1.374127 0.595817
v 0.505827 0.321331 2.612401
v -0.147776 1.111608 0.576390
v 0.364715 0.171401 2.611869
v 0.474587 0.177944 2.584243
v 0.025781 1.120489 0.536801
v 0.338275 0.311352 2.654530
v -0.174721 1.361796 0.650784
v 0.955722 0.022994 4.407695
v 0.969693 -0.057756 4.396606
v 1.011711 -0.054529 4.383594
v 1.023709 0.028217 4.386640
v 0.233492 0.752725 1.523930
v 0.061673 0.575122 1.512533
v 0.203388 0.582834 1.478926
v 0.040732 0.742235 1.569643
v -0.222644 1.101451 0.355990
v -0.144306 1.109359 0.515322
v 0.032219 1.106339 0.490865
v 0.062979 1.096563 0.316418
vn -0.9279 -0.2395 0.2856
vn -0.9605 -0.2082 0.1846
vn -0.9416 -0.1514 0.3008
vn 0.9519 -0.1206 -0.2818
vn 0.1310 -0.2769 0.9519
vn 0.9954 0.0662 0.0689
vn -0.0288 -0.9409 -0.3376
vn 0.9440 -0.1392 -0.2992
vn 0.0350 0.9321 0.3606
vn 0.0273 -0.9903 -0.1362
vn 0.3004 -0.0786 0.9506
vn -0.0184 0.9855 0.1684
vn -0.0667 -0.8720 -0.4849
vn 0.9652 -0.1017 -0.2410
vn -0.9798 -0.1531 0.1290
vn 0.0096 0.9985 -0.0543
vn -0.1229 0.4100 -0.9038
vn 0.0823 0.8350 0.5440
vn -0.2274 0.2550 -0.9398
s off
f 8//1 14//1 13//1 11//1
f 18//2 8//2 11//2 20//2
f 2//3 22//3 21//3 1//3
f 17//4 6//4 9//4 19//4
f 3//5 23//5 22//5 2//5
f 4//6 24//6 23//6 3//6
f 19//7 9//7 8//7 18//7
f 6//8 16//8 15//8 9//8
f 11//9 6//9 17//9 20//9
f 9//10 15//10 14//10 8//10
f 15//11 16//11 13//11
f 14//11 15//11 13//11
f 11//12 13//12 16//12 6//12
f 10//13 19//13 18//13 7//13
f 5//14 17//14 19//14 10//14
f 7//15 18//15 20//15 12//15
f 24//16 21//16 22//16 23//16
f 24//17 4//17 1//17 21//17
f 12//18 20//18 17//18 5//18
f 12//19 5//19 10//19 7//19
