# Blender v2.78 (sub 0) OBJ File: 'Low_Poly_Trees_Pack.blend'
# www.blender.org
g Palm_Tree_crk_m_04_Collider
v -0.059807 -0.000000 -0.160442
v -0.150916 -0.000000 0.119965
v 0.124576 0.000000 0.171464
v 0.201568 0.000000 -0.065494
v 0.215791 0.538893 0.116967
v 0.268649 0.524353 -0.052629
v -0.003962 0.599549 0.075809
v 0.066693 0.580113 -0.150885
v 0.448258 0.903198 0.092052
v 0.474783 0.867095 -0.046747
v 0.349023 1.046124 0.051835
v 0.380082 1.003850 -0.110689
v 1.127040 1.145335 0.116979
v 1.152004 1.114380 -0.006421
v 1.029548 1.276421 0.094827
v 1.064696 1.232839 -0.078911
v 2.392691 1.386125 0.083245
v 2.418988 1.360037 -0.032456
v 2.272063 1.509011 0.056989
v 2.307976 1.473384 -0.101020
vn -0.7571 0.5851 -0.2906
vn -0.1684 0.1200 0.9784
vn 0.3795 -0.0478 -0.9239
vn 0.9434 -0.1285 0.3059
vn 0.8163 -0.4985 0.2920
vn -0.2909 0.9117 -0.2901
vn 0.3695 -0.1959 -0.9083
vn -0.1447 0.1633 0.9759
vn 0.3122 -0.9039 0.2925
vn -0.1864 0.9458 -0.2658
vn 0.1757 -0.3638 -0.9148
vn -0.1016 0.1509 0.9833
vn 0.1879 -0.9455 0.2659
vn 0.0744 -0.4712 -0.8789
vn -0.0063 0.1820 0.9833
vn 0.7132 0.7010 0.0041
vn -0.9298 0.2066 -0.3045
s off
f 11//1 12//1 8//1 7//1
f 3//2 5//2 7//2 2//2
f 1//3 8//3 6//3 4//3
f 4//4 6//4 5//4 3//4
f 6//5 10//5 9//5 5//5
f 15//6 16//6 12//6 11//6
f 8//7 12//7 10//7 6//7
f 5//8 9//8 11//8 7//8
f 10//9 14//9 13//9 9//9
f 19//10 20//10 16//10 15//10
f 12//11 16//11 14//11 10//11
f 9//12 13//12 15//12 11//12
f 14//13 18//13 17//13 13//13
f 16//14 20//14 18//14 14//14
f 13//15 17//15 19//15 15//15
f 18//16 20//16 19//16 17//16
f 2//17 7//17 8//17 1//17
