# Blender v2.78 (sub 0) OBJ File: 'Low_Poly_Trees_Pack.blend'
# www.blender.org
g Palm_Tree_s_04_Collider
v 0.077380 0.000000 -0.174274
v -0.165744 0.000000 -0.053854
v -0.102436 0.000000 0.140990
v 0.102436 0.000000 0.140990
v 0.237679 2.671709 0.055205
v 0.117373 2.687590 -0.033602
v 0.145774 2.683841 0.055205
v 0.256113 2.677775 -0.049488
v 0.490359 4.271666 -0.044546
v 0.461816 4.278461 -0.023229
v 0.472718 4.275867 0.011263
v 0.507999 4.267467 0.011263
v 0.452111 1.743381 0.075692
v 0.296285 1.735119 -0.038439
v 0.333070 1.737069 0.075692
v 0.472970 1.740225 -0.079691
v 0.267959 3.311316 0.040635
v 0.172532 3.327943 -0.030163
v 0.195059 3.324018 0.040635
v 0.231509 3.317667 -0.073918
vn 0.9966 -0.0069 -0.0823
vn -0.5646 0.1779 -0.8060
vn -0.0007 0.0377 0.9993
vn -0.1785 -0.0191 -0.9838
vn 0.9637 0.2220 0.1481
vn 0.0006 0.0220 0.9998
vn -0.9233 0.2429 0.2976
vn 0.9207 -0.2405 -0.3072
vn -0.9373 -0.1783 0.2995
vn 0.0057 0.0292 0.9996
vn -0.9113 0.2752 0.3064
vn 0.2316 0.9728 -0.0000
vn -0.2896 -0.0088 -0.9571
vn 0.0034 0.0226 0.9997
vn 0.9779 -0.2091 -0.0073
vn -0.9485 0.0800 0.3065
vn -0.3581 0.1177 -0.9262
s off
f 20//1 17//1 5//1 8//1
f 18//2 10//2 9//2 20//2
f 4//3 13//3 15//3 3//3
f 14//4 6//4 8//4 16//4
f 8//5 5//5 13//5 16//5
f 13//6 5//6 7//6 15//6
f 3//7 15//7 14//7 2//7
f 20//8 9//8 12//8 17//8
f 15//9 7//9 6//9 14//9
f 17//10 12//10 11//10 19//10
f 18//11 19//11 11//11 10//11
f 11//12 12//12 9//12
f 10//12 11//12 9//12
f 6//13 18//13 20//13 8//13
f 5//14 17//14 19//14 7//14
f 13//15 4//15 1//15 16//15
f 7//16 19//16 18//16 6//16
f 2//17 14//17 16//17 1//17
