# Blender v2.78 (sub 0) OBJ File: 'Low_Poly_Trees_Pack.blend'
# www.blender.org
g Palm_Tree_NoLeaves_crk_m_04_Collider
v -0.058418 -0.000000 -0.156716
v -0.147412 -0.000000 0.117179
v 0.121683 0.000000 0.167482
v 0.196887 0.000000 -0.063973
v 0.210780 0.526379 0.114251
v 0.262410 0.512176 -0.051406
v -0.003870 0.585626 0.074048
v 0.065144 0.566641 -0.147381
v 0.437848 0.882223 0.089914
v 0.463757 0.846958 -0.045661
v 0.340918 1.021829 0.050631
v 0.371255 0.980537 -0.108118
v 1.100866 1.118737 0.114262
v 1.125251 1.088500 -0.006272
v 1.005639 1.246778 0.092625
v 1.039970 1.204208 -0.077079
v 2.337125 1.353934 0.081311
v 2.362811 1.328453 -0.031702
v 2.219298 1.473966 0.055665
v 2.254377 1.439167 -0.098674
vn -0.7571 0.5851 -0.2906
vn -0.1684 0.1200 0.9784
vn 0.3795 -0.0478 -0.9239
vn 0.9434 -0.1285 0.3059
vn 0.8163 -0.4985 0.2920
vn -0.2909 0.9117 -0.2901
vn 0.3695 -0.1959 -0.9083
vn -0.1447 0.1633 0.9759
vn 0.3122 -0.9039 0.2925
vn -0.1864 0.9458 -0.2658
vn 0.1757 -0.3638 -0.9148
vn -0.1016 0.1509 0.9833
vn 0.1879 -0.9455 0.2659
vn 0.0744 -0.4712 -0.8789
vn -0.0063 0.1820 0.9833
vn 0.7132 0.7010 0.0041
vn -0.9298 0.2066 -0.3045
s off
f 11//1 12//1 8//1 7//1
f 3//2 5//2 7//2 2//2
f 1//3 8//3 6//3 4//3
f 4//4 6//4 5//4 3//4
f 6//5 10//5 9//5 5//5
f 15//6 16//6 12//6 11//6
f 8//7 12//7 10//7 6//7
f 5//8 9//8 11//8 7//8
f 10//9 14//9 13//9 9//9
f 19//10 20//10 16//10 15//10
f 12//11 16//11 14//11 10//11
f 9//12 13//12 15//12 11//12
f 14//13 18//13 17//13 13//13
f 16//14 20//14 18//14 14//14
f 13//15 17//15 19//15 15//15
f 18//16 20//16 19//16 17//16
f 2//17 7//17 8//17 1//17
