# Blender v2.78 (sub 0) OBJ File: 'Low_Poly_Trees_Pack.blend'
# www.blender.org
g Simple_Tree_NoLeaves_m_02_Collider
v 0.000000 0.000000 -0.400000
v -0.380423 0.000000 -0.123607
v -0.235114 0.000000 0.323607
v 0.257204 0.000000 0.255620
v 0.358332 0.000000 -0.055620
v -0.315354 1.072057 -0.319893
v -0.608425 1.035962 -0.104696
v -0.496482 1.049749 0.243500
v 0.102142 1.368248 0.269431
v 0.199423 1.366940 -0.037931
v -0.558925 2.189124 -0.245337
v -0.776146 2.205012 -0.087096
v -0.693175 2.198944 0.168945
v -0.424676 2.179304 0.168945
v -0.341705 2.173235 -0.087096
v -0.656351 4.072918 -0.026725
v 0.009867 1.202775 -0.190608
v -0.148812 1.148849 0.239756
v 0.626881 2.712166 0.310955
v 0.628857 2.711801 0.166200
v 0.846924 2.671557 0.241670
v 0.000000 0.000000 0.394806
v 0.271305 0.000000 -0.344965
v 0.761653 2.687294 0.357597
v 1.276741 4.571494 0.248471
vn 0.8058 0.1698 -0.5673
vn -0.6109 0.7761 -0.1566
vn -0.9294 -0.2091 0.3042
vn 0.4263 0.1969 -0.8829
vn 0.9311 -0.2039 0.3025
vn -0.5871 -0.0731 -0.8062
vn -0.9417 -0.1405 0.3056
vn 0.9421 0.1464 0.3018
vn -0.9497 0.0509 0.3090
vn 0.5902 0.1231 -0.7978
vn 0.0076 0.1037 0.9946
vn -0.5846 0.0636 -0.8088
vn 0.9002 0.2768 0.3362
vn -0.9169 0.3439 -0.2026
vn -0.0025 0.0660 0.9978
vn -0.5819 -0.1122 -0.8055
vn -0.1283 0.0818 0.9884
vn 0.7827 -0.1697 0.5988
vn 0.2583 0.1636 -0.9521
vn -0.0921 -0.0205 0.9955
vn -0.3105 0.0920 0.9461
vn 0.3151 -0.0679 -0.9466
vn 0.7808 -0.1788 0.5986
vn -0.3013 0.1370 0.9436
vn -0.9441 0.3295 -0.0137
vn 0.1783 0.0766 0.9810
vn 0.3166 0.0459 -0.9474
s off
f 10//1 5//1 23//1 17//1
f 17//2 18//2 9//2 10//2
f 3//3 8//3 7//3 2//3
f 6//4 11//4 15//4 17//4
f 5//5 21//5 4//5
f 7//6 12//6 11//6 6//6
f 8//7 13//7 12//7 7//7
f 14//8 15//8 16//8
f 12//9 13//9 16//9
f 15//10 11//10 16//10
f 13//11 14//11 16//11
f 11//12 12//12 16//12
f 18//13 17//13 15//13 14//13
f 10//14 9//14 19//14 20//14
f 8//15 18//15 14//15 13//15
f 2//16 7//16 6//16 1//16
f 22//17 18//17 8//17 3//17
f 21//18 24//18 4//18
f 17//19 23//19 1//19 6//19
f 9//20 4//20 24//20
f 19//21 9//21 24//21
f 21//22 20//22 25//22
f 24//23 21//23 25//23
f 19//24 24//24 25//24
f 20//25 19//25 25//25
f 18//26 22//26 4//26 9//26
f 10//27 20//27 21//27 5//27
