# Blender v2.78 (sub 0) OBJ File: 'Low_Poly_Trees_Pack.blend'
# www.blender.org
g Simple_Tree_s_01_Collider
v 0.031950 0.000000 -0.094063
v -0.095368 0.000000 -0.026571
v -0.061292 0.000000 0.085776
v 0.087325 0.000000 0.087508
v -0.100177 0.443402 -0.048971
v -0.198214 0.446093 -0.010112
v -0.183609 0.445065 0.069636
v -0.076235 0.441739 0.079836
v 0.072856 0.936631 0.036544
v -0.031913 0.949671 0.063064
v -0.032513 0.945583 0.141480
v 0.073435 0.929892 0.162943
v 0.041129 1.423834 0.092471
v -0.047492 1.429797 0.099532
v -0.062641 1.429991 0.164840
v 0.017945 1.424029 0.197948
v -0.293166 2.076854 -0.071674
vn 0.9501 -0.2951 -0.1010
vn -0.0464 0.0119 0.9989
vn -0.4267 -0.0502 -0.9030
vn -0.9418 -0.2380 0.2374
vn 0.9920 0.0790 0.0989
vn -0.9531 0.2877 0.0937
vn -0.1553 -0.1067 0.9821
vn -0.2805 0.2433 -0.9285
vn 0.8546 0.4845 0.1869
vn -0.2886 -0.0821 0.9539
vn -0.1622 0.0860 -0.9830
vn -0.9931 -0.0402 -0.1099
vn -0.8953 -0.3946 -0.2065
vn -0.3589 0.2050 0.9106
vn -0.0953 -0.2883 -0.9528
vn 0.9193 0.3170 -0.2332
s off
f 8//1 5//1 9//1 12//1
f 4//2 8//2 7//2 3//2
f 2//3 6//3 5//3 1//3
f 3//4 7//4 6//4 2//4
f 12//5 9//5 13//5 16//5
f 6//6 7//6 11//6 10//6
f 7//7 8//7 12//7 11//7
f 5//8 6//8 10//8 9//8
f 16//9 13//9 17//9
f 11//10 12//10 16//10 15//10
f 9//11 10//11 14//11 13//11
f 10//12 11//12 15//12 14//12
f 14//13 15//13 17//13
f 15//14 16//14 17//14
f 13//15 14//15 17//15
f 8//16 4//16 1//16 5//16
