# Blender v2.78 (sub 0) OBJ File: 'Low_Poly_Trees_Pack.blend'
# www.blender.org
g Simple_Tree_NoLeaves_crk_m_01_Collider
v 0.000000 0.000000 -0.300000
v -0.285317 0.000000 -0.092619
v -0.176336 0.000000 0.242726
v 0.176336 0.000000 0.242705
v 0.285317 0.000000 -0.092705
v -0.181343 1.303533 -0.039940
v 0.064566 1.335526 -0.222766
v -0.087414 1.315753 0.250457
v 0.216546 1.355299 0.247171
v 0.310474 1.367519 -0.045262
v 0.064566 0.463998 1.338549
v -0.181343 0.280415 1.311234
v -0.087414 -0.009575 1.330865
v 0.216546 -0.005280 1.370314
v 0.310474 0.287369 1.375063
v 0.051135 0.241805 2.290420
v -0.030052 -0.023055 2.272926
v -0.292777 -0.025891 2.194495
v -0.373964 0.237216 2.163516
v -0.161414 0.402684 2.222800
v -0.968486 0.177174 4.510628
v -1.020792 0.136906 4.495103
v -1.000813 0.072596 4.503067
v -0.936159 0.073118 4.523516
v -0.916180 0.137751 4.528187
vn 0.9513 -0.0287 0.3069
vn -0.9497 0.0629 0.3067
vn 0.5858 0.0179 -0.8102
vn 0.0053 -0.0048 1.0000
vn -0.1290 0.9916 0.0000
vn -0.5856 0.8004 -0.1279
vn -0.5917 0.8006 -0.0944
vn 0.0158 -0.9998 -0.0153
vn 0.5518 0.8104 0.1969
vn -0.9228 -0.3128 -0.2249
vn 0.9218 -0.2994 0.2461
vn -0.0024 -0.9991 0.0418
vn 0.8818 -0.2955 0.3675
vn -0.9115 -0.3133 -0.2663
vn 0.5259 0.8082 0.2651
vn -0.3016 0.0243 0.9531
vn 0.1290 -0.0253 -0.9913
vn -0.5932 0.0773 -0.8013
s off
f 5//1 10//1 9//1 4//1
f 3//2 8//2 6//2 2//2
f 1//3 7//3 10//3 5//3
f 4//4 9//4 8//4 3//4
f 6//5 8//5 9//5
f 7//5 6//5 9//5 10//5
f 19//6 22//6 21//6 20//6
f 11//7 12//7 19//7 20//7
f 13//8 14//8 17//8 18//8
f 15//9 11//9 20//9 16//9
f 12//10 13//10 18//10 19//10
f 14//11 15//11 16//11 17//11
f 17//12 24//12 23//12 18//12
f 16//13 25//13 24//13 17//13
f 18//14 23//14 22//14 19//14
f 20//15 21//15 25//15 16//15
f 21//16 24//16 25//16
f 22//16 23//16 24//16 21//16
f 11//17 15//17 14//17 13//17
f 12//17 11//17 13//17
f 2//18 6//18 7//18 1//18
