# Blender v2.78 (sub 0) OBJ File: 'Low_Poly_Trees_Pack.blend'
# www.blender.org
g Simple_Tree_s_02_Collider
v 0.001097 0.000000 -0.094063
v -0.095368 0.000000 -0.026571
v -0.045492 0.000000 0.111622
v 0.079055 0.000000 0.024276
v 0.008813 0.443402 -0.048971
v -0.062644 0.446093 -0.010112
v -0.036407 0.444628 0.089390
v 0.056064 0.441149 0.038861
v -0.177272 1.520342 0.109416
v -0.226539 1.516092 0.114208
v -0.227386 1.515301 0.174715
v -0.165663 1.520596 0.168269
v -0.288091 2.890500 -0.067769
vn 0.8539 0.0497 -0.5180
vn 0.3468 -0.0271 0.9376
vn -0.5323 0.0825 -0.8425
vn -0.9512 0.0466 0.3049
vn 0.9065 0.2196 -0.3607
vn 0.0872 0.1767 0.9804
vn -0.9726 -0.1761 0.1518
vn -0.3400 0.0681 -0.9379
vn -0.9988 -0.0467 -0.0146
vn 0.9796 0.0542 -0.1935
vn -0.0844 -0.1345 -0.9873
vn 0.5364 0.0157 0.8438
s off
f 1//1 5//1 8//1 4//1
f 8//2 12//2 11//2 7//2
f 2//3 6//3 5//3 1//3
f 3//4 7//4 6//4 2//4
f 5//5 9//5 12//5 8//5
f 11//6 12//6 13//6
f 7//7 11//7 10//7 6//7
f 6//8 10//8 9//8 5//8
f 10//9 11//9 13//9
f 12//10 9//10 13//10
f 9//11 10//11 13//11
f 4//12 8//12 7//12 3//12
