# Blender v2.78 (sub 0) OBJ File: 'Low_Poly_Trees_Pack.blend'
# www.blender.org
g Simple_Tree_m_06_Collider
v 0.000000 0.000000 -0.300000
v -0.285317 0.000000 -0.092619
v -0.176336 0.000000 0.242726
v 0.176336 0.000000 0.242705
v 0.285317 0.000000 -0.092705
v 0.064566 1.335526 -0.222766
v -0.181343 1.303533 -0.039940
v -0.087414 1.315753 0.250457
v 0.216546 1.355299 0.247171
v 0.310474 1.367519 -0.045262
v -0.955493 4.647223 0.217946
vn 0.9513 -0.0287 0.3069
vn -0.9497 0.0629 0.3067
vn 0.5858 0.0179 -0.8102
vn 0.0053 -0.0048 1.0000
vn -0.9214 -0.2371 0.3080
vn 0.5396 0.2722 -0.7967
vn 0.0092 0.0122 0.9999
vn 0.8973 0.3222 0.3017
vn -0.5888 -0.0742 -0.8049
vn -0.5932 0.0773 -0.8013
s off
f 5//1 10//1 9//1 4//1
f 3//2 8//2 7//2 2//2
f 1//3 6//3 10//3 5//3
f 4//4 9//4 8//4 3//4
f 8//5 11//5 7//5
f 6//6 11//6 10//6
f 9//7 11//7 8//7
f 10//8 11//8 9//8
f 7//9 11//9 6//9
f 2//10 7//10 6//10 1//10
