# Blender v2.78 (sub 0) OBJ File: 'Low_Poly_Trees_Pack.blend'
# www.blender.org
g Simple_Tree_crk_s_02_collider
v 0.001097 0.000000 -0.094063
v -0.095368 0.000000 -0.026571
v -0.045492 0.000000 0.111622
v 0.079055 0.000000 0.024276
v 0.008813 0.443402 -0.048971
v -0.062644 0.446093 -0.010112
v -0.036407 0.444628 0.089390
v 0.056064 0.441149 0.038861
v -0.240501 1.959119 0.139856
v -0.289767 1.954870 0.144648
v -0.290614 1.954078 0.205155
v -0.228891 1.959373 0.198709
vn 0.8539 0.0497 -0.5180
vn 0.3467 -0.0236 0.9377
vn -0.5323 0.0825 -0.8425
vn -0.9512 0.0466 0.3049
vn 0.9099 0.2019 -0.3624
vn -0.9738 -0.1689 0.1521
vn -0.3402 0.0531 -0.9389
vn -0.0845 0.9964 0.0121
vn 0.5364 0.0157 0.8438
s off
f 1//1 5//1 8//1 4//1
f 8//2 12//2 11//2 7//2
f 2//3 6//3 5//3 1//3
f 3//4 7//4 6//4 2//4
f 5//5 9//5 12//5 8//5
f 7//6 11//6 10//6 6//6
f 6//7 10//7 9//7 5//7
f 10//8 11//8 12//8 9//8
f 4//9 8//9 7//9 3//9
