# Blender v2.78 (sub 0) OBJ File: 'Low_Poly_Trees_Pack.blend'
# www.blender.org
g Simple_Tree_m_01_Collider
v 0.000000 0.000000 -0.380160
v -0.361554 0.000000 -0.117476
v -0.223452 0.000000 0.307556
v 0.223452 0.000000 0.307556
v 0.361554 0.000000 -0.117476
v -0.001380 1.422741 -0.333339
v -0.302161 1.417944 -0.114786
v -0.187273 1.419776 0.238841
v 0.184513 1.425706 0.238841
v 0.299401 1.427538 -0.114786
v 0.246338 1.928331 -0.108173
v -0.018668 1.789759 -0.312829
v -0.191237 1.787260 0.218316
v 0.153967 1.791680 0.218377
v -0.295081 2.026305 -0.106768
v -0.778017 1.916220 -0.450719
v -0.668014 2.043024 -0.542385
v -0.738975 2.049783 -0.316895
v -0.651150 2.136964 -0.401401
v -1.600513 2.487874 -0.671005
v -1.510801 2.559119 -0.729500
v -1.557982 2.565221 -0.575664
v -1.488104 2.613216 -0.630540
v -2.040662 3.307602 -0.788767
v 0.399779 1.764048 -0.160814
v 0.414104 1.796465 0.070162
v 0.429976 1.690843 -0.074260
v 0.347829 1.975629 -0.084704
v 0.340803 1.891118 -0.165762
v 0.354236 1.920928 0.048704
v 1.308292 2.780355 -0.091299
v 1.307759 2.794215 -0.002397
v 1.330681 2.761625 -0.057984
v 1.255546 2.841588 -0.062004
v 1.267205 2.811547 -0.093203
v 1.266804 2.824345 -0.010656
v 1.435108 3.567375 -0.049884
v -0.254071 4.782606 -0.044951
vn 0.9502 0.0408 0.3088
vn -0.9504 0.0392 0.3087
vn 0.5875 0.0271 -0.8088
vn -0.0003 0.0482 0.9988
vn 0.9314 0.1560 0.3288
vn -0.9510 0.0072 0.3091
vn 0.5677 0.1176 -0.8148
vn -0.0013 0.0875 0.9962
vn -0.3710 0.8799 0.2967
vn 0.4850 0.7852 -0.3850
vn -0.0009 0.0558 0.9984
vn 0.6173 -0.2845 -0.7335
vn -0.2486 0.7529 0.6094
vn 0.1489 -0.1684 -0.9744
vn -0.7574 -0.0931 0.6463
vn 0.1461 0.6224 0.7690
vn -0.5369 -0.5169 0.6668
vn 0.5281 0.6811 -0.5073
vn -0.1282 -0.5139 -0.8482
vn 0.7483 0.4947 -0.4420
vn -0.3357 -0.3081 -0.8901
vn 0.3354 0.4549 0.8250
vn -0.7447 -0.3154 0.5881
vn -0.0419 0.8065 -0.5898
vn 0.8519 -0.4210 0.3114
vn 0.4862 0.1630 0.8585
vn 0.3448 0.0827 -0.9350
vn 0.5953 -0.4899 -0.6369
vn -0.5337 0.5808 -0.6147
vn -0.0757 0.1404 0.9872
vn -0.6551 0.6808 0.3277
vn 0.0736 0.0034 -0.9973
vn -0.9329 0.2261 0.2804
vn 0.0766 0.0401 -0.9963
vn 0.8911 -0.1199 0.4377
vn -0.8295 0.2138 -0.5159
vn -0.1377 0.0833 0.9870
vn 0.7997 -0.0977 -0.5924
vn -0.5877 0.0261 -0.8086
vn -0.7795 -0.5717 0.2562
vn -0.3874 -0.7403 -0.5494
vn 0.6562 -0.5553 0.5110
vn -0.5826 0.0269 -0.8123
s off
f 4//1 5//1 10//1 9//1
f 2//2 3//2 8//2 7//2
f 5//3 1//3 6//3 10//3
f 3//4 4//4 9//4 8//4
f 11//5 38//5 14//5
f 13//6 38//6 15//6
f 12//7 38//7 11//7
f 14//8 38//8 13//8
f 11//9 14//9 30//9 28//9
f 15//10 12//10 17//10 19//10
f 8//11 9//11 14//11 13//11
f 10//12 6//12 25//12 27//12
f 13//13 15//13 19//13 18//13
f 12//14 6//14 16//14 17//14
f 8//15 13//15 18//15 16//15
f 18//16 19//16 23//16 22//16
f 16//17 18//17 22//17 20//17
f 19//18 17//18 21//18 23//18
f 17//19 16//19 20//19 21//19
f 23//20 21//20 24//20
f 21//21 20//21 24//21
f 22//22 23//22 24//22
f 20//23 22//23 24//23
f 12//24 11//24 28//24 29//24
f 9//25 10//25 27//25 26//25
f 14//26 9//26 26//26 30//26
f 6//27 12//27 29//27 25//27
f 25//28 31//28 33//28 27//28
f 28//29 34//29 35//29 29//29
f 26//30 32//30 36//30 30//30
f 30//31 36//31 34//31 28//31
f 29//32 35//32 31//32 25//32
f 34//33 36//33 37//33
f 31//34 35//34 37//34
f 32//35 33//35 37//35
f 35//36 34//36 37//36
f 36//37 32//37 37//37
f 33//38 31//38 37//38
f 1//39 2//39 7//39 6//39
f 7//40 8//40 16//40
f 6//41 7//41 16//41
f 27//42 33//42 32//42 26//42
f 15//43 38//43 12//43
