# Blender v2.78 (sub 0) OBJ File: 'Low_Poly_Trees_Pack.blend'
# www.blender.org
g Birch_Log_08_Collider
v 0.832958 0.168495 -0.152655
v 0.834306 0.327666 -0.024688
v 0.836316 0.255142 0.166228
v 0.836211 0.051148 0.156254
v 0.834136 -0.002402 -0.040827
v -0.823046 0.168495 -0.202253
v -0.837544 0.327666 -0.075103
v -0.859173 0.255142 0.114595
v -0.858043 0.051148 0.104684
v -0.835716 -0.002402 -0.091139
v -0.223078 0.032044 0.149047
v -0.211914 -0.021506 -0.047411
v -0.212828 0.308562 -0.031323
v -0.223643 0.236038 0.158990
v -0.205579 0.149391 -0.158885
vn -0.0474 -0.9646 0.2593
vn 0.0034 0.9342 0.3569
vn 0.0418 -0.5469 -0.8362
vn -0.0711 -0.0488 0.9963
vn 0.0737 0.6261 -0.7762
vn -0.0067 0.6259 -0.7799
vn -0.0059 -0.0488 0.9988
vn 0.0152 -0.5470 -0.8370
vn -0.0193 0.9346 0.3552
vn 0.0158 -0.9647 0.2629
vn -0.9936 0.0000 -0.1133
vn 0.9999 0.0000 -0.0105
s off
f 12//1 11//1 9//1 10//1
f 14//2 13//2 7//2 8//2
f 15//3 12//3 10//3 6//3
f 11//4 14//4 8//4 9//4
f 13//5 15//5 6//5 7//5
f 2//6 1//6 15//6 13//6
f 4//7 3//7 14//7 11//7
f 1//8 5//8 12//8 15//8
f 3//9 2//9 13//9 14//9
f 5//10 4//10 11//10 12//10
f 7//11 6//11 8//11
f 9//11 8//11 6//11 10//11
f 2//12 3//12 1//12
f 4//12 5//12 1//12 3//12
