# Blender v2.78 (sub 0) OBJ File: 'Low_Poly_Trees_Pack.blend'
# www.blender.org
g Birch_Log_04_Collider
v 0.801379 0.180407 -0.167141
v 0.801379 0.293320 -0.019048
v 0.801379 0.187366 0.134102
v 0.801379 0.008971 0.080660
v 0.801379 0.004670 -0.105518
v -0.868840 0.135089 -0.085683
v -0.860132 0.227896 0.035372
v -0.850896 0.131587 0.168360
v -0.854735 -0.000855 0.101276
v -0.843130 -0.000843 -0.053002
vn -0.0342 -0.2920 -0.9558
vn 0.0226 -0.3617 0.9320
vn -0.0511 0.7943 -0.6054
vn 0.0049 -0.9999 0.0128
vn -0.0144 0.8163 0.5775
vn -0.9765 -0.2024 -0.0735
vn -0.9975 -0.0067 0.0704
vn -0.9975 0.0017 0.0705
vn 1.0000 0.0000 -0.0000
s off
f 1//1 5//1 10//1 6//1
f 4//2 3//2 8//2 9//2
f 2//3 1//3 6//3 7//3
f 5//4 4//4 9//4 10//4
f 3//5 2//5 7//5 8//5
f 10//6 9//6 6//6
f 8//7 6//7 9//7
f 7//8 6//8 8//8
f 2//9 3//9 1//9
f 4//9 5//9 1//9 3//9
