# Blender v2.78 (sub 0) OBJ File: 'Low_Poly_Trees_Pack.blend'
# www.blender.org
g Birch_Log_03_Collider
v 1.791963 0.180407 -0.186018
v 1.791963 0.293320 -0.037925
v 1.791963 0.187366 0.115225
v 1.791963 0.008971 0.061783
v 1.791963 0.004670 -0.124395
v -1.826313 0.135089 -0.104985
v -1.815711 0.227896 0.016276
v -1.804748 0.131587 0.149480
v -1.808574 -0.000855 0.082312
v -1.774893 -0.000843 -0.071552
vn -0.0157 -0.2941 -0.9557
vn 0.0104 -0.3618 0.9322
vn -0.0235 0.7950 -0.6062
vn 0.0023 -0.9999 0.0128
vn -0.0067 0.8167 0.5771
vn -0.9000 -0.3889 -0.1970
vn -0.9963 -0.0139 0.0842
vn -0.9964 0.0034 0.0845
vn 1.0000 0.0000 -0.0000
s off
f 1//1 5//1 10//1 6//1
f 4//2 3//2 8//2 9//2
f 2//3 1//3 6//3 7//3
f 5//4 4//4 9//4 10//4
f 3//5 2//5 7//5 8//5
f 10//6 9//6 6//6
f 8//7 6//7 9//7
f 7//8 6//8 8//8
f 2//9 3//9 1//9
f 4//9 5//9 1//9 3//9
