# Blender v2.78 (sub 0) OBJ File: 'Low_Poly_Trees_Pack.blend'
# www.blender.org
g Birch_Log_05_Collider
v 0.885630 0.168495 -0.166202
v 0.885631 0.327666 -0.038228
v 0.885631 0.255142 0.152699
v 0.885631 0.051148 0.142724
v 0.885630 -0.002402 -0.054368
v -0.872687 0.168495 -0.203106
v -0.887184 0.327666 -0.075956
v -0.908814 0.255142 0.113742
v -0.907683 0.051148 0.103831
v -0.885356 -0.002402 -0.091992
v -0.001953 0.043890 0.164841
v 0.009210 -0.009661 -0.031616
v 0.008296 0.320408 -0.015528
v -0.002518 0.247883 0.174784
v 0.015545 0.161237 -0.143090
vn -0.0254 -0.9649 0.2613
vn -0.0164 0.9346 0.3553
vn 0.0520 -0.5470 -0.8355
vn -0.0675 -0.0488 0.9965
vn 0.0576 0.6261 -0.7776
vn -0.0256 0.6254 -0.7799
vn 0.0253 -0.0487 0.9985
vn -0.0174 -0.5466 -0.8372
vn 0.0013 0.9346 0.3556
vn 0.0146 -0.9647 0.2630
vn -0.9936 0.0000 -0.1133
vn 1.0000 0.0000 -0.0000
s off
f 12//1 11//1 9//1 10//1
f 14//2 13//2 7//2 8//2
f 15//3 12//3 10//3 6//3
f 11//4 14//4 8//4 9//4
f 13//5 15//5 6//5 7//5
f 2//6 1//6 15//6 13//6
f 4//7 3//7 14//7 11//7
f 1//8 5//8 12//8 15//8
f 3//9 2//9 13//9 14//9
f 5//10 4//10 11//10 12//10
f 7//11 6//11 8//11
f 9//11 8//11 6//11 10//11
f 2//12 3//12 1//12
f 4//12 5//12 1//12 3//12
