# Blender v2.78 (sub 0) OBJ File: 'Low_Poly_Trees_Pack.blend'
# www.blender.org
g Birch_Log_07_Collider
v 0.973222 0.168495 -0.152329
v 0.981517 0.327666 -0.024624
v 0.993892 0.255142 0.165902
v 0.993246 0.051148 0.155948
v 0.980471 -0.002402 -0.040730
v -0.967454 0.168495 -0.211229
v -0.981952 0.327666 -0.084079
v -1.003581 0.255142 0.105619
v -1.002451 0.051148 0.095708
v -0.980123 -0.002402 -0.100115
v -0.001953 0.032044 0.164841
v 0.009210 -0.021506 -0.031616
v 0.008296 0.308562 -0.015528
v -0.002518 0.236038 0.174784
v 0.015545 0.149391 -0.143090
vn -0.0365 -0.9648 0.2603
vn -0.0067 0.9344 0.3561
vn 0.0473 -0.5470 -0.8358
vn -0.0698 -0.0488 0.9964
vn 0.0659 0.6261 -0.7769
vn -0.0198 0.6255 -0.7800
vn 0.0098 -0.0487 0.9988
vn 0.0029 -0.5465 -0.8374
vn -0.0149 0.9344 0.3559
vn 0.0211 -0.9646 0.2627
vn -0.9936 0.0000 -0.1133
vn 0.9979 0.0000 -0.0648
s off
f 12//1 11//1 9//1 10//1
f 14//2 13//2 7//2 8//2
f 15//3 12//3 10//3 6//3
f 11//4 14//4 8//4 9//4
f 13//5 15//5 6//5 7//5
f 2//6 1//6 15//6 13//6
f 4//7 3//7 14//7 11//7
f 1//8 5//8 12//8 15//8
f 3//9 2//9 13//9 14//9
f 5//10 4//10 11//10 12//10
f 7//11 6//11 8//11
f 9//11 8//11 6//11 10//11
f 2//12 3//12 1//12
f 4//12 5//12 1//12 3//12
