# Blender v2.78 (sub 0) OBJ File: 'Low_Poly_Trees_Pack.blend'
# www.blender.org
g Palm_Leave_OneSided_02
v -0.000000 0.007303 -3.483067
v -0.397436 0.031819 -2.544456
v 0.000000 -0.000000 0.000000
v 0.397436 0.031819 -2.544456
v 0.503342 0.008496 -0.967821
v -0.503342 0.008496 -0.967821
v -0.000000 0.181976 -0.926471
v -0.000000 0.176294 -2.514691
v -0.593898 0.024228 -1.807730
v 0.593898 0.024228 -1.807731
v -0.000000 0.213454 -1.761033
vt 0.8132 0.1375
vt 0.8256 0.1660
vt 0.8132 0.1650
vt 0.8132 0.2405
vt 0.8015 0.2128
vt 0.8132 0.2119
vt 0.8132 0.1897
vt 0.8278 0.1908
vt 0.7987 0.1908
vt 0.8009 0.1660
vt 0.8250 0.2128
vn 0.3337 0.9250 0.1817
vn -0.3263 0.9312 -0.1625
vn 0.3167 0.9475 0.0438
vn -0.3167 0.9475 0.0438
vn -0.3337 0.9250 0.1817
vn 0.3263 0.9312 -0.1625
vn -0.3143 0.9474 -0.0602
vn 0.3143 0.9474 -0.0602
s off
f 3/1/1 5/2/1 7/3/1
f 1/4/2 2/5/2 8/6/2
f 11/7/3 7/3/3 5/2/3 10/8/3
f 9/9/4 6/10/4 7/3/4 11/7/4
f 6/10/5 3/1/5 7/3/5
f 4/11/6 1/4/6 8/6/6
f 2/5/7 9/9/7 11/7/7 8/6/7
f 8/6/8 11/7/8 10/8/8 4/11/8
