# Blender v2.78 (sub 0) OBJ File: 'Low_Poly_Trees_Pack.blend'
# www.blender.org
g Palm_Leave_OneSided_04
v 0.152994 0.100304 -3.006504
v -0.333711 0.038961 -2.278599
v 0.000000 -0.000000 0.000000
v 0.387070 0.032352 -2.280466
v 0.397822 0.022804 -0.865083
v -0.358648 0.030813 -0.865083
v 0.029133 0.114815 -0.828409
v 0.047729 0.123734 -2.238891
v -0.368512 0.081990 -1.589590
v 0.524897 0.073356 -1.589776
v 0.126354 0.201491 -1.526682
vt 0.6922 0.0125
vt 0.7045 0.0410
vt 0.6922 0.0400
vt 0.6922 0.1155
vt 0.6804 0.0878
vt 0.6922 0.0869
vt 0.6922 0.0647
vt 0.7067 0.0658
vt 0.6776 0.0658
vt 0.6798 0.0410
vt 0.7039 0.0878
vn 0.2529 0.9571 0.1415
vn -0.2108 0.9758 -0.0587
vn 0.2896 0.9473 0.1370
vn -0.2325 0.9693 0.0796
vn -0.2214 0.9670 0.1262
vn 0.2607 0.9654 0.0063
vn -0.2178 0.9730 -0.0771
vn 0.2671 0.9559 -0.1221
s off
f 3/1/1 5/2/1 7/3/1
f 1/4/2 2/5/2 8/6/2
f 11/7/3 7/3/3 5/2/3 10/8/3
f 9/9/4 6/10/4 7/3/4 11/7/4
f 6/10/5 3/1/5 7/3/5
f 4/11/6 1/4/6 8/6/6
f 2/5/7 9/9/7 11/7/7 8/6/7
f 8/6/8 11/7/8 10/8/8 4/11/8
