# Blender v2.78 (sub 0) OBJ File: 'Low_Poly_Trees_Pack.blend'
# www.blender.org
g Acacia_Stump_05_Collider
v -0.000000 0.000001 -0.221486
v -0.207582 0.000001 -0.070669
v -0.128293 0.000001 0.173359
v 0.128293 0.000001 0.173359
v 0.207582 0.000001 -0.070669
v 0.173613 0.422909 -0.046457
v 0.116404 0.422909 0.129615
v -0.068729 0.422909 0.129615
v -0.125939 0.422909 -0.046457
v 0.023837 0.422909 -0.155276
vn 0.9494 0.0586 0.3085
vn -0.9382 0.1637 0.3048
vn 0.5852 0.0931 -0.8055
vn 0.0000 0.1029 0.9947
vn -0.5804 0.1578 -0.7989
vn 0.0000 1.0000 0.0000
s off
f 5//1 6//1 7//1 4//1
f 3//2 8//2 9//2 2//2
f 1//3 10//3 6//3 5//3
f 4//4 7//4 8//4 3//4
f 2//5 9//5 10//5 1//5
f 7//6 6//6 8//6
f 6//6 10//6 9//6 8//6
