# Blender v2.78 (sub 0) OBJ File: 'Low_Poly_Trees_Pack.blend'
# www.blender.org
g Acacia_Stump_04_Collider
v -0.114903 0.000000 -0.325032
v -0.203071 0.000000 -0.267793
v -0.242528 0.000000 0.055294
v -0.107935 0.000000 0.251914
v 0.143863 0.000000 0.275267
v 0.321606 0.000000 -0.006627
v 0.271527 0.000000 -0.154195
v -0.185665 0.279943 -0.148683
v 0.000000 0.279943 -0.238095
v -0.231520 0.279943 0.052223
v -0.103036 0.279943 0.213337
v 0.103036 0.279943 0.213337
v 0.231520 0.279943 0.052223
v 0.185665 0.279943 -0.148683
vn 0.4107 0.1278 -0.9028
vn 0.8073 0.1918 0.5581
vn -0.8038 0.0668 0.5911
vn -0.4328 0.3997 -0.8081
vn 0.9146 0.3164 -0.2518
vn -0.0502 0.1733 0.9836
vn 0.0000 1.0000 -0.0000
vn -0.9836 0.0831 -0.1601
s off
f 1//1 9//1 14//1 7//1
f 6//2 13//2 12//2 5//2
f 4//3 11//3 10//3 3//3
f 1//4 2//4 8//4 9//4
f 6//5 7//5 14//5 13//5
f 4//6 5//6 12//6 11//6
f 8//7 10//7 11//7 9//7
f 3//8 10//8 8//8 2//8
f 9//7 11//7 12//7 14//7
f 14//7 12//7 13//7
