# Blender v2.78 (sub 0) OBJ File: 'Low_Poly_Trees_Pack.blend'
# www.blender.org
g Birch_Stump_03_Collider
v -0.001855 0.000000 -0.305502
v -0.411662 0.000000 -0.087876
v -0.255129 0.000000 0.264249
v 0.251420 0.000000 0.264249
v 0.407952 0.000000 -0.087876
v -0.003757 0.664153 -0.301884
v -0.299490 0.664153 -0.087022
v -0.186530 0.664153 0.260632
v 0.179015 0.664153 0.260632
v 0.291975 0.664153 -0.087022
vn -0.9257 0.1267 0.3565
vn 0.5220 0.0492 -0.8515
vn 0.0000 0.0054 1.0000
vn -0.5221 0.0462 -0.8517
vn 0.9250 0.1319 0.3562
vn 0.0000 1.0000 -0.0000
s off
f 3//1 8//1 7//1 2//1
f 1//2 6//2 10//2 5//2
f 4//3 9//3 8//3 3//3
f 2//4 7//4 6//4 1//4
f 5//5 10//5 9//5 4//5
f 7//6 8//6 9//6
f 6//6 7//6 9//6 10//6
