# Blender v2.78 (sub 0) OBJ File: 'Low_Poly_Trees_Pack.blend'
# www.blender.org
g Birch_Stump_01_Collider
v -0.021531 0.000000 -0.216000
v -0.302585 0.000000 -0.066748
v -0.195232 0.000000 0.174748
v 0.152170 0.000000 0.174748
v 0.259524 0.000000 -0.066748
v 0.153187 0.664153 -0.216000
v -0.052241 0.664153 -0.066748
v 0.026225 0.664153 0.174748
v 0.244359 0.478419 0.174748
v 0.358615 0.664153 -0.066748
v 0.100825 1.611480 -0.060412
v 0.279489 1.618027 -0.191918
v 0.168964 1.614754 0.150139
v 0.459487 1.614754 -0.060938
vn -0.8859 0.3147 0.3408
vn 0.5200 -0.1072 -0.8474
vn 0.0000 0.0000 1.0000
vn -0.5158 0.1651 -0.8406
vn 0.9192 -0.1539 0.3626
vn 0.4837 0.5681 0.6658
vn -0.9408 0.1496 0.3040
vn 0.5868 -0.0573 -0.8077
vn 0.5865 -0.0672 0.8072
vn -0.5883 0.0993 -0.8025
vn -0.0091 0.9999 0.0066
s off
f 3//1 8//1 7//1 2//1
f 1//2 6//2 10//2 5//2
f 4//3 9//3 8//3 3//3
f 2//4 7//4 6//4 1//4
f 5//5 10//5 9//5 4//5
f 9//6 10//6 8//6
f 8//7 13//7 11//7 7//7
f 6//8 12//8 14//8 10//8
f 10//9 14//9 13//9 8//9
f 7//10 11//10 12//10 6//10
f 11//11 13//11 14//11 12//11
