# Blender v2.78 (sub 0) OBJ File: 'Low_Poly_Trees_Pack.blend'
# www.blender.org
g Oak_Stump_04_Collider
v -0.396962 -0.010686 0.283879
v 0.003321 -0.010686 0.640586
v 0.412568 -0.010686 0.491632
v 0.431596 -0.010686 -0.104764
v -0.309087 0.719203 0.282918
v -0.000094 0.719203 0.430698
v 0.240369 0.719203 0.322431
v 0.231121 0.740085 0.001521
v -0.529697 -0.000986 -0.305545
v -0.145619 -0.000986 -0.496807
v -0.031347 0.804190 -0.228477
v -0.287827 0.850725 -0.082984
vn 0.3539 0.2747 0.8940
vn 0.9695 0.2447 0.0159
vn -0.4183 0.3395 -0.8425
vn -0.9730 0.1832 0.1406
vn 0.5931 0.2194 -0.7746
vn 0.0289 0.9975 0.0641
vn 0.3488 0.8753 0.3349
vn 0.1347 0.9835 0.1204
vn -0.0624 0.9895 0.1305
vn -0.5731 0.1495 0.8057
s off
f 7//1 6//1 2//1 3//1
f 4//2 8//2 7//2 3//2
f 12//3 11//3 10//3 9//3
f 9//4 1//4 5//4 12//4
f 4//5 10//5 11//5 8//5
f 6//6 7//6 8//6
f 12//7 5//7 11//7
f 6//8 8//8 11//8
f 5//9 6//9 11//9
f 2//10 6//10 5//10 1//10
