# Blender v2.78 (sub 0) OBJ File: 'Low_Poly_Trees_Pack.blend'
# www.blender.org
g Oak_Stump_05_Collider
v -0.001819 -0.011671 -0.620516
v -0.513320 -0.011671 -0.518974
v -0.654056 -0.011671 -0.325267
v -0.571419 -0.011671 0.163471
v -0.306492 -0.011671 0.661188
v -0.152937 -0.011671 0.711081
v 0.350213 -0.011671 0.462928
v 0.641201 -0.011671 0.132343
v 0.627367 -0.011671 -0.154797
v 0.350213 -0.011671 -0.506134
v 0.000000 0.531441 -0.000000
v -0.243228 0.531441 -0.334774
v -0.000000 0.531441 -0.413803
v -0.393550 0.531441 -0.127872
v -0.393550 0.531441 0.127872
v -0.243228 0.531441 0.334774
v 0.243228 0.531441 0.334774
v 0.000000 0.531441 0.413803
v 0.393550 0.531441 0.127872
v 0.393550 0.531441 -0.127872
v 0.243227 0.531441 -0.334774
vn -0.2641 0.5193 0.8128
vn -0.2154 0.3780 -0.9004
vn 0.7470 0.3388 -0.5720
vn -0.9276 0.3590 0.1030
vn 0.2907 0.3395 -0.8946
vn 0.7340 0.3132 0.6026
vn -0.6932 0.5156 -0.5036
vn 0.9138 0.4055 -0.0233
vn 0.3799 0.3234 0.8667
vn 0.0000 1.0000 0.0000
vn -0.8105 0.3391 0.4776
s off
f 16//1 5//1 6//1 18//1
f 2//2 12//2 13//2 1//2
f 10//3 21//3 20//3 9//3
f 4//4 15//4 14//4 3//4
f 1//5 13//5 21//5 10//5
f 8//6 19//6 17//6 7//6
f 12//7 2//7 3//7 14//7
f 20//8 19//8 8//8 9//8
f 17//9 18//9 6//9 7//9
f 13//10 11//10 21//10
f 11//10 18//10 17//10
f 11//10 20//10 21//10
f 14//10 15//10 11//10
f 18//10 11//10 16//10
f 11//10 15//10 16//10
f 5//11 16//11 15//11 4//11
f 11//10 17//10 19//10
f 20//10 11//10 19//10
f 13//10 12//10 11//10
f 12//10 14//10 11//10
