# Blender v2.78 (sub 0) OBJ File: 'Low_Poly_Trees_Pack.blend'
# www.blender.org
g Oak_Stump_01_Collider
v 0.335764 0.000000 0.124749
v -0.042220 0.000000 0.309222
v -0.270962 0.000000 0.054080
v -0.273604 0.000000 -0.160531
v -0.047506 0.000000 -0.428562
v 0.331448 0.000000 -0.225807
v 0.211725 1.109699 0.068887
v -0.052187 1.148505 0.146845
v -0.211898 1.125629 0.019545
v -0.213742 1.117775 -0.130298
v -0.055878 1.132791 -0.266598
v 0.208711 1.096869 -0.175875
vn 0.3818 0.1113 0.9175
vn 0.9937 0.1111 -0.0146
vn -0.9985 0.0530 0.0112
vn 0.4175 0.1103 -0.9020
vn -0.7245 0.0751 -0.6852
vn 0.1298 0.9901 -0.0535
vn 0.0687 0.9798 0.1875
vn 0.0132 0.9930 -0.1178
vn -0.7018 0.0765 0.7083
s off
f 7//1 8//1 2//1 1//1
f 12//2 7//2 1//2 6//2
f 9//3 10//3 4//3 3//3
f 6//4 5//4 11//4 12//4
f 10//5 11//5 5//5 4//5
f 8//6 7//6 12//6
f 10//7 12//7 11//7
f 9//8 8//8 12//8 10//8
f 8//9 9//9 3//9 2//9
