# Blender v2.78 (sub 0) OBJ File: 'Low_Poly_Trees_Pack.blend'
# www.blender.org
g Pine_Stump_02_Collider
v 0.000000 0.000000 -0.380848
v -0.361940 0.000000 -0.117884
v -0.223691 0.000000 0.307602
v 0.223691 0.000000 0.307602
v 0.361940 0.000000 -0.117884
v -0.179033 1.201977 0.279357
v 0.002354 1.201721 -0.278832
v 0.298534 1.153767 -0.067660
v 0.185389 1.153922 0.280528
v -0.202604 0.567561 0.294265
v 0.001111 0.567441 -0.332677
v -0.336823 0.426578 -0.099346
vn -0.9507 0.0281 -0.3089
vn -0.0001 0.0235 0.9997
vn 0.5864 0.0674 -0.8072
vn -0.9502 0.0425 0.3088
vn -0.0000 0.0235 0.9997
vn -0.5863 0.0696 -0.8071
vn 0.9503 0.0388 0.3088
vn -0.4680 0.8705 -0.1522
vn 0.1305 0.9906 0.0420
s off
f 10//1 6//1 7//1 11//1
f 9//2 6//2 10//2
f 11//3 7//3 8//3
f 3//4 10//4 12//4 2//4
f 1//3 11//3 8//3 5//3
f 4//5 9//5 10//5 3//5
f 2//6 12//6 11//6 1//6
f 5//7 8//7 9//7 4//7
f 11//8 12//8 10//8
f 8//9 7//9 6//9 9//9
