# Blender v2.78 (sub 0) OBJ File: 'Low_Poly_Trees_Pack.blend'
# www.blender.org
g Simple_Stump_03_Collider
v 0.000000 0.000000 -0.112000
v -0.112000 0.000000 0.000000
v 0.000000 0.000000 0.112000
v 0.112000 0.000000 -0.000000
v -0.011404 0.809950 0.113009
v 0.057702 0.809950 0.043904
v 0.057702 0.761196 0.182115
v 0.126807 0.761196 0.113009
vn 0.7159 0.0856 -0.6929
vn -0.7085 -0.0109 0.7056
vn 0.7022 -0.1179 0.7022
vn -0.6951 0.1833 -0.6951
vn 0.3157 0.8948 0.3157
s off
f 1//1 6//1 8//1 4//1
f 3//2 7//2 5//2 2//2
f 4//3 8//3 7//3 3//3
f 2//4 5//4 6//4 1//4
f 5//5 7//5 8//5 6//5
