# Blender v2.78 (sub 0) OBJ File: 'Low_Poly_Trees_Pack.blend'
# www.blender.org
g Simple_Stump_01_Collider
v 0.000000 0.000000 -0.300000
v -0.285317 0.000000 -0.092619
v -0.176336 0.000000 0.242726
v 0.176336 0.000000 0.242705
v 0.285317 0.000000 -0.092705
v -0.181343 1.303533 -0.039940
v 0.064566 1.335526 -0.222766
v -0.087414 1.315753 0.250457
v 0.216546 1.355299 0.247171
v 0.310474 1.367519 -0.045262
vn 0.9513 -0.0287 0.3069
vn -0.9497 0.0629 0.3067
vn 0.5858 0.0179 -0.8102
vn 0.0053 -0.0048 1.0000
vn -0.1290 0.9916 0.0000
vn -0.5932 0.0773 -0.8013
s off
f 5//1 10//1 9//1 4//1
f 3//2 8//2 6//2 2//2
f 1//3 7//3 10//3 5//3
f 4//4 9//4 8//4 3//4
f 6//5 8//5 9//5
f 7//5 6//5 9//5 10//5
f 2//6 6//6 7//6 1//6
