# Blender v2.78 (sub 0) OBJ File: 'Low_Poly_Trees_Pack.blend'
# www.blender.org
g Thuja_Stump_01_Collider
v 0.000000 0.000000 -0.111321
v -0.105873 0.000000 -0.034400
v -0.065433 0.000000 0.090061
v 0.065433 0.000000 0.090061
v 0.105873 0.000000 -0.034400
v -0.059556 0.560154 0.081972
v 0.059556 0.560154 0.081972
v 0.000000 0.560154 -0.101323
v -0.097361 0.501454 -0.031634
v 0.096364 0.560154 -0.031311
vn 0.5877 0.0144 -0.8089
vn -0.9510 0.0144 0.3090
vn 0.9510 0.0144 0.3090
vn -0.5877 0.0144 -0.8089
vn -0.6057 0.7710 -0.1968
vn 0.0000 1.0000 0.0000
vn 0.0000 0.0144 0.9999
s off
f 1//1 8//1 10//1 5//1
f 3//2 6//2 9//2 2//2
f 5//3 10//3 7//3 4//3
f 2//4 9//4 8//4 1//4
f 9//5 6//5 8//5
f 8//6 6//6 7//6 10//6
f 4//7 7//7 6//7 3//7
