# Blender v2.78 (sub 0) OBJ File: 'Low_Poly_Trees_Pack.blend'
# www.blender.org
g Acacia_Firewood_02_Collider
v -0.279696 0.000000 0.066282
v -0.270337 0.125297 0.066282
v -0.247748 0.000000 -0.066032
v -0.227770 0.125297 -0.066032
v 0.233602 0.000000 0.066282
v 0.192589 0.125297 0.066282
v 0.264901 0.000000 -0.066032
v 0.237580 0.125297 -0.066032
vn -0.9565 0.1120 -0.2693
vn 0.0000 0.0000 -1.0000
vn 0.9295 0.2535 0.2680
vn 0.0000 0.0000 1.0000
vn 0.0000 -1.0000 0.0000
vn 0.0000 1.0000 0.0000
s off
f 1//1 2//1 4//1 3//1
f 3//2 4//2 8//2 7//2
f 7//3 8//3 6//3 5//3
f 5//4 6//4 2//4 1//4
f 3//5 7//5 5//5 1//5
f 8//6 4//6 2//6 6//6
