# Blender v2.78 (sub 0) OBJ File: 'Low_Poly_Trees_Pack.blend'
# www.blender.org
g Acacia_Firewood_Pile_02_Collider
v -0.295808 -0.000000 0.205228
v -0.295808 -0.000000 -0.369595
v 0.293292 -0.000000 0.205228
v 0.293292 -0.000000 -0.369595
v -0.295808 0.101593 0.205228
v -0.295808 0.233250 -0.122300
v 0.293292 0.233250 -0.122300
v 0.293292 0.101593 0.205228
v -0.295808 0.233250 -0.182477
v -0.295808 0.058904 -0.369595
v 0.293292 0.058904 -0.369595
v 0.293292 0.233250 -0.182477
v -0.149485 -0.001349 0.311292
v -0.149485 0.041349 0.311292
v -0.139968 -0.001349 0.265275
v -0.139968 0.041349 0.265275
v 0.140533 -0.001349 0.368595
v 0.140533 0.041349 0.368595
v 0.149469 -0.001349 0.322315
v 0.149469 0.041349 0.322315
v 0.552098 0.048875 0.133401
v 0.552098 -0.008875 0.133401
v 0.591023 0.048875 0.183886
v 0.591023 -0.008875 0.183886
v 0.235187 0.048875 0.375814
v 0.235187 -0.008875 0.375814
v 0.273326 0.048875 0.426652
v 0.273326 -0.008875 0.426652
vn 1.0000 0.0000 0.0000
vn 0.0000 1.0000 0.0000
vn 0.0000 0.0000 -1.0000
vn -0.0000 0.9278 0.3730
vn 0.0000 0.0000 1.0000
vn 0.0000 0.7316 -0.6817
vn -1.0000 0.0000 0.0000
vn -0.9793 0.0000 -0.2025
vn 0.1934 -0.0000 -0.9811
vn 0.9819 -0.0000 0.1896
vn -0.1938 0.0000 0.9810
vn -0.6076 0.0000 -0.7943
vn -0.7999 0.0000 0.6001
vn 0.6072 0.0000 0.7946
vn 0.7919 0.0000 -0.6106
s off
f 3//1 7//1 8//1
f 12//2 9//2 6//2 7//2
f 2//3 10//3 11//3 4//3
f 7//4 6//4 5//4 8//4
f 3//5 8//5 5//5 1//5
f 9//6 12//6 11//6 10//6
f 1//7 5//7 6//7
f 4//1 11//1 12//1 7//1
f 3//1 4//1 7//1
f 2//7 1//7 6//7 9//7
f 10//7 2//7 9//7
f 13//8 14//8 16//8 15//8
f 15//9 16//9 20//9 19//9
f 19//10 20//10 18//10 17//10
f 17//11 18//11 14//11 13//11
f 20//2 16//2 14//2 18//2
f 21//2 25//2 27//2 23//2
f 26//12 25//12 21//12 22//12
f 28//13 27//13 25//13 26//13
f 24//14 23//14 27//14 28//14
f 22//15 21//15 23//15 24//15
