# Blender v2.78 (sub 0) OBJ File: 'Low_Poly_Trees_Pack.blend'
# www.blender.org
g Apple_Tree_Apples_crk_s_02_Collider
v 0.000000 0.000000 -0.060000
v -0.060000 0.000000 0.000000
v 0.000000 0.000000 0.060000
v 0.060000 0.000000 -0.000000
v -0.004050 1.080946 -0.010006
v -0.044136 1.081600 0.030575
v -0.003558 1.081085 0.070666
v 0.036528 1.080430 0.030085
vn 0.7088 -0.0044 0.7054
vn 0.7050 0.0352 -0.7083
vn -0.7054 -0.0095 0.7088
vn 0.0145 0.9999 -0.0018
vn -0.7084 0.0301 -0.7051
s off
f 4//1 8//1 7//1 3//1
f 1//2 5//2 8//2 4//2
f 3//3 7//3 6//3 2//3
f 6//4 7//4 8//4 5//4
f 2//5 6//5 5//5 1//5
