# Blender v2.78 (sub 0) OBJ File: 'Low_Poly_Trees_Pack.blend'
# www.blender.org
g Apple_Tree_m_07_Collider
v 0.122292 0.017479 0.220333
v 0.247355 0.020687 -0.109075
v -0.094041 0.010799 -0.281539
v -0.271735 0.008467 0.160886
v 0.161734 1.076399 0.166803
v 0.269615 1.062116 -0.118444
v -0.003399 1.252814 -0.197417
v -0.113332 1.274747 0.082336
v 0.561120 2.353783 0.184007
v 0.648237 2.356823 0.026399
v 0.496982 2.376602 0.022493
v 0.442795 2.374965 0.120379
v -0.509673 2.736738 -0.280398
v -0.466169 2.763260 -0.166173
v -0.567012 2.712148 -0.252730
v -0.532337 2.736357 -0.140919
vn 0.9349 -0.0168 0.3546
vn -0.3016 0.0992 0.9483
vn -0.9162 -0.1565 -0.3688
vn 0.1278 0.9878 0.0888
vn -0.8181 0.4326 -0.3788
vn 0.9494 0.2883 0.1246
vn 0.2226 0.0658 -0.9727
vn 0.1617 0.0251 -0.9865
vn -0.2143 0.0872 0.9729
vn 0.2684 0.2202 0.9378
vn -0.1903 0.0718 0.9791
vn -0.4072 0.9111 -0.0637
vn 0.3816 0.0114 -0.9243
vn 0.8735 -0.2889 0.3919
vn -0.9500 -0.0568 0.3069
s off
f 2//1 6//1 5//1 1//1
f 5//2 9//2 12//2 8//2
f 3//3 4//3 15//3
f 10//4 11//4 12//4 9//4
f 7//5 8//5 12//5 11//5
f 8//6 7//6 13//6 14//6
f 6//7 7//7 11//7 10//7
f 13//8 7//8 3//8 15//8
f 8//9 16//9 4//9
f 8//10 14//10 16//10
f 8//11 4//11 1//11 5//11
f 13//12 15//12 16//12 14//12
f 3//13 7//13 6//13 2//13
f 6//14 10//14 9//14 5//14
f 16//15 15//15 4//15
