# Blender v2.78 (sub 0) OBJ File: 'Low_Poly_Trees_Pack.blend'
# www.blender.org
g Apple_Tree_Apples_m_05_Collider
v -0.164648 0.000000 -0.146312
v -0.134809 0.000000 0.190276
v 0.134809 0.000000 0.190260
v 0.202082 -0.000000 -0.130336
v -0.628019 2.140924 0.146406
v -0.602853 2.121759 0.268957
v -0.472276 2.138076 0.269799
v -0.431926 2.143118 0.144942
v -0.073851 1.192685 0.011129
v -0.104185 1.190947 0.199498
v -0.258360 1.162683 0.203430
v -0.246980 1.160945 0.015431
v -0.732486 3.338210 0.158345
v -0.708365 3.343551 0.233153
v -0.630310 3.360834 0.230592
v -0.606189 3.366175 0.154163
vn 0.9629 0.1963 0.1853
vn -0.0270 0.1257 -0.9917
vn 0.0138 0.1298 -0.9914
vn 0.0098 -0.0080 0.9999
vn 0.9197 0.3289 0.2147
vn -0.9356 -0.3523 0.0218
vn -0.0181 0.0067 -0.9998
vn 0.0207 -0.0633 0.9978
vn 0.0032 0.0310 0.9995
vn 0.9420 0.1318 0.3085
vn -0.2162 0.9764 0.0000
vn -0.9683 -0.0817 0.2361
vn -0.9952 -0.0908 0.0353
s off
f 9//1 10//1 3//1 4//1
f 12//2 5//2 8//2 9//2
f 4//3 1//3 12//3 9//3
f 3//4 10//4 11//4 2//4
f 10//5 9//5 8//5 7//5
f 12//6 11//6 6//6 5//6
f 5//7 13//7 16//7 8//7
f 11//8 10//8 7//8 6//8
f 6//9 7//9 15//9 14//9
f 7//10 8//10 16//10 15//10
f 14//11 15//11 16//11 13//11
f 5//12 6//12 14//12 13//12
f 11//13 12//13 1//13 2//13
