# Blender v2.78 (sub 0) OBJ File: 'Low_Poly_Trees_Pack.blend'
# www.blender.org
g Apple_Tree_NoLeaves_crk_m_03_Collider
v -0.263769 -0.011101 -0.418941
v -0.456765 -0.003529 -0.236488
v -0.963924 0.205756 -1.154918
v -1.167987 0.327471 -0.971681
v -2.443759 0.131214 -2.257042
v -2.535584 0.177540 -2.185871
v -2.448976 0.071378 -2.224634
v -2.538258 0.108664 -2.154429
v 0.122292 0.017479 0.220333
v 0.247355 0.020687 -0.109075
v -0.094041 0.010799 -0.281539
v -0.271735 0.008467 0.160886
v 0.161734 1.076399 0.166803
v 0.269615 1.062116 -0.118444
v -0.003399 1.252814 -0.197417
v -0.113332 1.274747 0.082336
v 0.561120 2.353783 0.184007
v 0.648237 2.356823 0.026399
v 0.496982 2.376602 0.022493
v 0.442795 2.374965 0.120379
vn -0.0384 -0.9993 0.0008
vn 0.2146 0.9110 -0.3521
vn 0.5279 -0.5259 -0.6669
vn -0.6584 0.1981 0.7261
vn -0.6453 0.3378 0.6851
vn -0.6690 -0.2970 -0.6814
vn -0.2377 -0.9500 0.2023
vn 0.3344 0.9420 0.0300
vn 0.9349 -0.0168 0.3546
vn -0.3016 0.0992 0.9483
vn 0.1278 0.9878 0.0888
vn -0.8181 0.4326 -0.3788
vn 0.2226 0.0658 -0.9727
vn -0.1903 0.0718 0.9791
vn 0.3816 0.0114 -0.9243
vn 0.8735 -0.2889 0.3919
vn -0.9242 0.0926 -0.3706
s off
f 1//1 2//1 7//1
f 4//2 3//2 5//2 6//2
f 5//3 3//3 1//3 7//3
f 4//4 8//4 2//4
f 4//5 6//5 8//5
f 5//6 7//6 8//6 6//6
f 8//7 7//7 2//7
f 2//8 1//8 3//8 4//8
f 10//9 14//9 13//9 9//9
f 13//10 17//10 20//10 16//10
f 18//11 19//11 20//11 17//11
f 15//12 16//12 20//12 19//12
f 14//13 15//13 19//13 18//13
f 16//14 12//14 9//14 13//14
f 11//15 15//15 14//15 10//15
f 14//16 18//16 17//16 13//16
f 16//17 15//17 11//17 12//17
