# Blender v2.78 (sub 0) OBJ File: 'Low_Poly_Trees_Pack.blend'
# www.blender.org
g Apple_Tree_Apples_s_04_Collider
v 0.000000 0.000000 -0.061583
v -0.061583 0.000000 0.000000
v 0.000000 0.000000 0.061583
v 0.061583 0.000000 -0.000000
v -0.269647 1.045985 -0.053934
v -0.293397 1.030431 -0.023182
v -0.260902 1.042638 0.000218
v -0.235603 1.054328 -0.031155
v -0.008261 0.535985 -0.042679
v 0.042855 0.540966 0.001712
v -0.003040 0.533987 0.051234
v -0.053232 0.526699 0.006472
vn 0.5706 0.2675 -0.7765
vn 0.6439 0.3918 0.6571
vn -0.3658 0.9234 0.1162
vn -0.5871 -0.2269 0.7771
vn -0.6535 -0.3504 -0.6710
vn -0.7212 0.0166 -0.6926
vn -0.6895 0.0061 0.7243
vn 0.7180 0.0201 0.6958
vn 0.6840 0.0311 -0.7288
s off
f 9//1 5//1 8//1 10//1
f 10//2 8//2 7//2 11//2
f 6//3 7//3 8//3 5//3
f 11//4 7//4 6//4 12//4
f 12//5 6//5 5//5 9//5
f 2//6 12//6 9//6 1//6
f 3//7 11//7 12//7 2//7
f 4//8 10//8 11//8 3//8
f 1//9 9//9 10//9 4//9
