# Blender v2.78 (sub 0) OBJ File: 'Low_Poly_Trees_Pack.blend'
# www.blender.org
g Apple_Tree_Apples_m_03_Collider
v -0.001130 -0.001457 -0.246519
v -0.009957 -0.001010 0.239161
v -0.257431 -0.001274 -0.052936
v 0.236765 -0.001817 0.056604
v -0.293567 2.323708 0.135662
v -0.031939 2.381180 0.150641
v -0.249336 2.427818 0.302753
v -0.169139 2.388075 0.058167
v 0.161204 3.539866 0.536469
v -0.183701 2.608433 0.079849
v -0.885442 2.712878 0.064592
v -0.830445 2.713705 0.196339
v -0.767278 2.782361 0.106773
v -1.332872 3.359451 -0.192082
v -0.179064 2.676886 -0.382029
v -0.216452 2.802209 -0.313882
v -0.092831 2.721573 -0.306529
v -0.043234 3.485656 -0.706335
vn 0.6034 0.1596 -0.7813
vn -0.2425 -0.5185 -0.8200
vn 0.7132 -0.3608 -0.6010
vn -0.8335 -0.0773 0.5471
vn 0.7213 0.1229 -0.6816
vn 0.5869 0.0355 0.8089
vn 0.7275 0.5932 0.3448
vn 0.2351 0.7103 0.6635
vn -0.5856 0.0592 -0.8084
vn -0.4983 -0.7529 0.4299
vn -0.9384 0.3456 0.0038
vn 0.3851 -0.0978 -0.9177
vn 0.0507 0.1976 -0.9790
vn 0.2910 0.6491 0.7028
vn -0.8297 -0.4356 0.3491
vn -0.8964 -0.0269 -0.4424
vn 0.5078 -0.6860 -0.5211
vn 0.2346 0.4387 0.8675
vn -0.9896 -0.1407 -0.0308
vn 0.4972 0.7941 0.3495
vn 0.4862 -0.3480 0.8016
s off
f 10//1 9//1 6//1
f 5//2 11//2 8//2
f 15//3 18//3 17//3
f 2//4 7//4 5//4 3//4
f 4//5 1//5 8//5 6//5
f 4//6 6//6 7//6 2//6
f 10//7 6//7 17//7
f 13//8 12//8 7//8 10//8
f 8//9 1//9 3//9 5//9
f 12//10 11//10 5//10 7//10
f 10//11 7//11 9//11
f 13//12 11//12 14//12
f 11//13 13//13 10//13 8//13
f 14//14 12//14 13//14
f 14//15 11//15 12//15
f 18//16 15//16 16//16
f 17//17 6//17 8//17 15//17
f 18//18 16//18 17//18
f 16//19 15//19 8//19 10//19
f 10//20 17//20 16//20
f 9//21 7//21 6//21
