# Blender v2.78 (sub 0) OBJ File: 'Low_Poly_Trees_Pack.blend'
# www.blender.org
g Apple_Tree_NoLeaves_crk_s_01_Collider
v 0.000000 0.000000 -0.060000
v -0.060000 0.000000 0.000000
v 0.000000 0.000000 0.060000
v 0.060000 0.000000 -0.000000
v 0.021097 0.380142 -0.040925
v -0.019239 0.380142 -0.000588
v 0.021097 0.380142 0.039749
v 0.061434 0.380142 -0.000588
v -0.004050 0.999484 -0.010006
v -0.044136 1.000138 0.030575
v -0.003558 0.999623 0.070666
v 0.036528 0.998968 0.030085
vn 0.7071 -0.0038 -0.7071
vn -0.7050 0.0767 0.7050
vn 0.7071 -0.0016 0.7071
vn -0.7051 0.0745 -0.7051
vn 0.7037 0.0636 -0.7076
vn 0.7092 -0.0067 0.7049
vn -0.7037 -0.0636 0.7076
vn 0.0145 0.9999 -0.0018
vn -0.7092 0.0067 -0.7049
s off
f 1//1 5//1 8//1 4//1
f 3//2 7//2 6//2 2//2
f 4//3 8//3 7//3 3//3
f 2//4 6//4 5//4 1//4
f 5//5 9//5 12//5 8//5
f 8//6 12//6 11//6 7//6
f 7//7 11//7 10//7 6//7
f 10//8 11//8 12//8 9//8
f 6//9 10//9 9//9 5//9
