# Blender v2.78 (sub 0) OBJ File: 'Low_Poly_Trees_Pack.blend'
# www.blender.org
g Apple_Tree_NoLeaves_m_06_Collider
v -0.164648 0.000000 -0.146312
v -0.134809 0.000000 0.190276
v 0.134809 0.000000 0.190260
v 0.202082 -0.000000 -0.130336
v -0.658590 2.142531 -0.141725
v -0.625261 2.117150 0.020575
v -0.452331 2.138759 0.021690
v -0.398893 2.145437 -0.143664
v -0.055319 1.195717 -0.113011
v -0.091449 1.193647 0.111348
v -0.275080 1.159983 0.116032
v -0.261527 1.157913 -0.107887
v -0.657942 3.680921 0.041626
v -0.633821 3.686261 0.116434
v -0.555766 3.703544 0.113873
v -0.531646 3.708886 0.037444
vn 0.9626 0.1996 0.1834
vn -0.0118 -0.0378 -0.9992
vn 0.0172 0.0263 -0.9995
vn 0.0055 0.0658 0.9978
vn 0.9104 0.3522 0.2171
vn -0.9335 -0.3575 0.0262
vn -0.0250 0.1156 -0.9930
vn -0.0048 0.0951 0.9955
vn 0.0149 -0.0594 0.9981
vn 0.9506 0.0449 0.3072
vn -0.2162 0.9764 0.0000
vn -0.9721 -0.0235 0.2335
vn -0.9944 -0.1013 0.0293
s off
f 9//1 10//1 3//1 4//1
f 12//2 5//2 8//2 9//2
f 4//3 1//3 12//3 9//3
f 3//4 10//4 11//4 2//4
f 10//5 9//5 8//5 7//5
f 12//6 11//6 6//6 5//6
f 5//7 13//7 16//7 8//7
f 11//8 10//8 7//8 6//8
f 6//9 7//9 15//9 14//9
f 7//10 8//10 16//10 15//10
f 14//11 15//11 16//11 13//11
f 5//12 6//12 14//12 13//12
f 11//13 12//13 1//13 2//13
