# Blender v2.78 (sub 0) OBJ File: 'Low_Poly_Trees_Pack.blend'
# www.blender.org
g Thuja_BushTree_m_02_Collider
v -0.247023 0.378829 0.247023
v -0.155302 3.637380 0.095378
v -0.247023 0.378829 -0.247023
v -0.155302 3.637380 -0.138993
v 0.247023 0.378829 0.247023
v 0.079069 3.637380 0.095378
v 0.247023 0.378829 -0.247023
v 0.079069 3.637380 -0.138993
vn -0.9996 0.0281 0.0000
vn 0.0000 0.0331 -0.9995
vn 0.9987 0.0515 0.0000
vn 0.0000 0.0465 0.9989
vn 0.0000 1.0000 0.0000
vn 0.0000 -1.0000 0.0000
s off
f 1//1 2//1 4//1 3//1
f 3//2 4//2 8//2 7//2
f 7//3 8//3 6//3 5//3
f 5//4 6//4 2//4 1//4
f 8//5 4//5 2//5 6//5
f 3//6 7//6 5//6 1//6
