# Blender v2.78 (sub 0) OBJ File: 'Low_Poly_Trees_Pack.blend'
# www.blender.org
g Thuja_Tree_s_03_Collider
v -0.226191 0.562430 0.210145
v -0.074075 1.876322 0.179493
v -0.226191 0.562430 -0.220667
v -0.074075 1.876322 -0.085839
v 0.204621 0.562430 0.210145
v 0.217735 1.876322 0.179493
v 0.204621 0.562430 -0.220667
v 0.217735 1.876322 -0.085839
v -0.071395 0.000000 0.071395
v -0.065263 0.651377 0.066847
v -0.071395 0.000000 -0.071395
v -0.065263 0.651377 -0.066847
v 0.071395 0.000000 0.071395
v 0.068432 0.651377 0.066847
v 0.071395 0.000000 -0.071395
v 0.068432 0.651377 -0.066847
vn -0.9934 0.1150 0.0000
vn 0.0000 0.1021 -0.9948
vn 1.0000 -0.0100 0.0000
vn 0.0000 0.0233 0.9997
vn 0.0000 1.0000 0.0000
vn -1.0000 0.0094 0.0000
vn 0.0000 0.0070 -1.0000
vn 1.0000 0.0045 0.0000
vn 0.0000 0.0070 1.0000
s off
f 1//1 2//1 4//1 3//1
f 3//2 4//2 8//2 7//2
f 7//3 8//3 6//3 5//3
f 5//4 6//4 2//4 1//4
f 8//5 4//5 2//5 6//5
f 9//6 10//6 12//6 11//6
f 11//7 12//7 16//7 15//7
f 15//8 16//8 14//8 13//8
f 13//9 14//9 10//9 9//9
