# Blender v2.78 (sub 0) OBJ File: 'Low_Poly_Trees_Pack.blend'
# www.blender.org
g Thuja_BushTree_s_06_Collider
v -0.509788 0.233518 0.515024
v -0.517921 1.297065 0.533275
v -0.509788 0.233518 -0.541914
v -0.517921 1.297065 -0.560165
v 0.547150 0.233518 0.515024
v 0.575520 1.297065 0.533275
v 0.547150 0.233518 -0.541914
v 0.575519 1.297065 -0.560165
vn -1.0000 -0.0076 0.0000
vn 0.0000 -0.0172 -0.9999
vn 0.9996 -0.0267 -0.0000
vn 0.0000 -0.0172 0.9999
vn 0.0000 1.0000 0.0000
vn 0.0000 -1.0000 0.0000
s off
f 1//1 2//1 4//1 3//1
f 3//2 4//2 8//2 7//2
f 7//3 8//3 6//3 5//3
f 5//4 6//4 2//4 1//4
f 8//5 4//5 2//5 6//5
f 3//6 7//6 5//6 1//6
