# Blender v2.78 (sub 0) OBJ File: 'Low_Poly_Trees_Pack.blend'
# www.blender.org
g Thuja_BushTree_s_02_Collider
v -0.269881 0.046530 0.293491
v -0.172258 2.089370 0.093161
v -0.269881 0.046530 -0.327668
v -0.172258 2.089370 -0.222622
v 0.351277 0.046530 0.293491
v 0.143524 2.089370 0.093161
v 0.351277 0.046530 -0.327668
v 0.143524 2.089370 -0.222622
vn -0.9989 0.0477 0.0000
vn 0.0000 0.0514 -0.9987
vn 0.9949 0.1012 0.0000
vn 0.0000 0.0976 0.9952
vn 0.0000 1.0000 0.0000
vn 0.0000 -1.0000 0.0000
s off
f 1//1 2//1 4//1 3//1
f 3//2 4//2 8//2 7//2
f 7//3 8//3 6//3 5//3
f 5//4 6//4 2//4 1//4
f 8//5 4//5 2//5 6//5
f 3//6 7//6 5//6 1//6
