# Blender v2.78 (sub 0) OBJ File: 'Low_Poly_Trees_Pack.blend'
# www.blender.org
g Thuja_BushTree_m_04_Collider
v -0.247023 0.352205 0.247023
v -0.061168 3.849421 0.148511
v -0.247023 0.352205 -0.247023
v -0.061168 3.849421 -0.069772
v 0.247023 0.352205 0.247023
v 0.157115 3.849421 0.148511
v 0.247023 0.352205 -0.247023
v 0.157115 3.849421 -0.069772
vn -0.9986 0.0531 0.0000
vn 0.0000 0.0506 -0.9987
vn 0.9997 0.0257 0.0000
vn 0.0000 0.0282 0.9996
vn 0.0000 1.0000 0.0000
vn 0.0000 -1.0000 0.0000
s off
f 1//1 2//1 4//1 3//1
f 3//2 4//2 8//2 7//2
f 7//3 8//3 6//3 5//3
f 5//4 6//4 2//4 1//4
f 8//5 4//5 2//5 6//5
f 3//6 7//6 5//6 1//6
