# Blender v2.78 (sub 0) OBJ File: 'Low_Poly_Trees_Pack.blend'
# www.blender.org
g Thuja_Tree_m_05_Collider
v -0.296729 1.200419 0.296707
v -0.149112 4.481283 0.146076
v -0.296729 1.200419 -0.296707
v -0.149112 4.481283 -0.160455
v 0.296685 1.200419 0.296707
v 0.157419 4.481283 0.146076
v 0.296685 1.200419 -0.296707
v 0.157419 4.481283 -0.160455
v -0.090714 0.000000 0.090714
v -0.089716 1.273549 0.089716
v -0.090714 0.000000 -0.090714
v -0.089716 1.273549 -0.089716
v 0.090714 0.000000 0.090714
v 0.089716 1.273549 0.089716
v 0.090714 0.000000 -0.090714
v 0.089716 1.273549 -0.089716
vn -0.9990 0.0449 0.0000
vn 0.0000 0.0415 -0.9991
vn 0.9991 0.0424 0.0000
vn 0.0000 0.0459 0.9989
vn 0.0000 1.0000 0.0000
vn 0.0000 -1.0000 0.0000
vn -1.0000 0.0008 0.0000
vn 0.0000 0.0008 -1.0000
vn 1.0000 0.0008 0.0000
vn 0.0000 0.0008 1.0000
s off
f 1//1 2//1 4//1 3//1
f 3//2 4//2 8//2 7//2
f 7//3 8//3 6//3 5//3
f 5//4 6//4 2//4 1//4
f 8//5 4//5 2//5 6//5
f 3//6 7//6 5//6 1//6
f 9//7 10//7 12//7 11//7
f 11//8 12//8 16//8 15//8
f 15//9 16//9 14//9 13//9
f 13//10 14//10 10//10 9//10
