# Blender v2.78 (sub 0) OBJ File: 'Low_Poly_Trees_Pack.blend'
# www.blender.org
g Thuja_BushTree_m_05_Collider
v -0.296729 0.369878 0.296707
v -0.149112 3.650743 0.146076
v -0.296729 0.369878 -0.296707
v -0.149112 3.650743 -0.160455
v 0.296685 0.369878 0.296707
v 0.157419 3.650743 0.146076
v 0.296685 0.369878 -0.296707
v 0.157419 3.650743 -0.160455
vn -0.9990 0.0449 0.0000
vn 0.0000 0.0415 -0.9991
vn 0.9991 0.0424 0.0000
vn 0.0000 0.0459 0.9989
vn 0.0000 1.0000 0.0000
vn 0.0000 -1.0000 0.0000
s off
f 1//1 2//1 4//1 3//1
f 3//2 4//2 8//2 7//2
f 7//3 8//3 6//3 5//3
f 5//4 6//4 2//4 1//4
f 8//5 4//5 2//5 6//5
f 3//6 7//6 5//6 1//6
