# Blender v2.78 (sub 0) OBJ File: 'Low_Poly_Trees_Pack.blend'
# www.blender.org
g Thuja_BushTree_m_01_Collider
v -0.247023 0.336252 0.247021
v -0.091632 2.956947 0.091631
v -0.247023 0.336252 -0.247024
v -0.091632 2.956947 -0.091633
v 0.247023 0.336252 0.247021
v 0.091632 2.956947 0.091631
v 0.247023 0.336252 -0.247024
v 0.091632 2.956947 -0.091633
vn -0.9982 0.0592 0.0000
vn 0.0000 0.0592 -0.9982
vn 0.9982 0.0592 0.0000
vn 0.0000 0.0592 0.9982
vn 0.0000 1.0000 0.0000
vn 0.0000 -1.0000 0.0000
s off
f 1//1 2//1 4//1 3//1
f 3//2 4//2 8//2 7//2
f 7//3 8//3 6//3 5//3
f 5//4 6//4 2//4 1//4
f 8//5 4//5 2//5 6//5
f 3//6 7//6 5//6 1//6
