# Blender v2.78 (sub 0) OBJ File: 'Low_Poly_Trees_Pack.blend'
# www.blender.org
g Thuja_Tree_crk_m_02_Collider
v 0.373761 0.363196 0.325162
v 3.645257 0.071532 1.120989
v 0.453346 0.808899 0.347919
v 3.653679 0.239928 1.123738
v 0.524971 0.360006 -0.141236
v 3.697329 0.071546 0.960602
v 0.604556 0.805708 -0.118479
v 3.705751 0.239942 0.963350
v -0.090714 0.000000 0.090714
v -0.083286 0.561331 0.083286
v -0.090714 0.000000 -0.090714
v -0.083286 0.561331 -0.083286
v 0.090714 0.000000 0.090714
v 0.083286 0.561331 0.083286
v 0.090714 0.000000 -0.090714
v 0.083286 0.561331 -0.083286
vn -0.2368 -0.0064 0.9715
vn 0.1633 0.9854 0.0480
vn 0.3278 -0.0077 -0.9447
vn -0.0832 -0.9963 -0.0219
vn 0.9498 -0.0525 0.3084
vn -0.9349 0.1825 -0.3044
vn -0.9999 0.0132 0.0000
vn 0.0000 0.0132 -0.9999
vn 0.9999 0.0132 0.0000
vn 0.0000 0.0132 0.9999
vn 0.0000 1.0000 0.0000
s off
f 1//1 2//1 4//1 3//1
f 3//2 4//2 8//2 7//2
f 7//3 8//3 6//3 5//3
f 5//4 6//4 2//4 1//4
f 8//5 4//5 2//5 6//5
f 3//6 7//6 5//6 1//6
f 9//7 10//7 12//7 11//7
f 11//8 12//8 16//8 15//8
f 15//9 16//9 14//9 13//9
f 13//10 14//10 10//10 9//10
f 10//11 14//11 16//11
f 12//11 10//11 16//11
