# Blender v2.78 (sub 0) OBJ File: 'Low_Poly_Trees_Pack.blend'
# www.blender.org
g Thuja_BushTree_m_08_Collider
v -0.250864 0.333625 0.274495
v -0.066874 2.567670 0.179648
v -0.250864 0.333625 -0.274493
v -0.052556 2.562070 -0.247954
v 0.298124 0.333625 0.274495
v 0.356219 2.505631 0.194628
v 0.298124 0.333625 -0.274493
v 0.370536 2.500031 -0.232975
v 0.356443 3.625051 0.058635
v 0.362363 3.622736 -0.118154
v 0.531368 3.599401 0.064828
v 0.537288 3.597086 -0.111961
vn -0.9963 0.0851 -0.0151
vn 0.0163 0.0145 -0.9998
vn 0.9994 -0.0299 0.0148
vn -0.0128 0.0403 0.9991
vn -0.9292 0.3679 -0.0359
vn 0.0000 -1.0000 0.0000
vn 0.1454 0.9893 -0.0081
vn -0.0175 0.1206 0.9925
vn 0.0501 0.1020 -0.9935
vn 0.9875 -0.1540 0.0351
s off
f 1//1 2//1 4//1 3//1
f 3//2 4//2 8//2 7//2
f 7//3 8//3 6//3 5//3
f 5//4 6//4 2//4 1//4
f 4//5 2//5 9//5 10//5
f 3//6 7//6 5//6 1//6
f 12//7 10//7 9//7 11//7
f 2//8 6//8 11//8 9//8
f 8//9 4//9 10//9 12//9
f 6//10 8//10 12//10 11//10
