# Blender v2.78 (sub 0) OBJ File: 'Low_Poly_Trees_Pack.blend'
# www.blender.org
g Thuja_Tree_m_06_Collider
v -0.423407 0.830194 0.423405
v -0.304171 3.693637 0.180346
v -0.423407 0.830194 -0.423408
v -0.304171 3.693637 -0.272286
v 0.423407 0.830194 0.423405
v 0.148460 3.693637 0.180346
v 0.423407 0.830194 -0.423408
v 0.148460 3.693637 -0.272286
v -0.090714 0.000000 0.090714
v -0.087643 0.922922 0.087643
v -0.090714 0.000000 -0.090714
v -0.087643 0.922922 -0.087643
v 0.090714 0.000000 0.090714
v 0.087643 0.922922 0.087643
v 0.090714 0.000000 -0.090714
v 0.087643 0.922922 -0.087643
vn -0.9991 0.0416 0.0000
vn 0.0000 0.0527 -0.9986
vn 0.9954 0.0956 0.0000
vn 0.0000 0.0846 0.9964
vn 0.0000 1.0000 0.0000
vn 0.0000 -1.0000 0.0000
vn -1.0000 0.0033 0.0000
vn 0.0000 0.0033 -1.0000
vn 1.0000 0.0033 0.0000
vn 0.0000 0.0033 1.0000
s off
f 1//1 2//1 4//1 3//1
f 3//2 4//2 8//2 7//2
f 7//3 8//3 6//3 5//3
f 5//4 6//4 2//4 1//4
f 8//5 4//5 2//5 6//5
f 3//6 7//6 5//6 1//6
f 9//7 10//7 12//7 11//7
f 11//8 12//8 16//8 15//8
f 15//9 16//9 14//9 13//9
f 13//10 14//10 10//10 9//10
