# Blender v2.78 (sub 0) OBJ File: 'Low_Poly_Trees_Pack.blend'
# www.blender.org
g Thuja_Tree_m_04_Collider
v -0.247023 0.767169 0.247023
v -0.061168 4.264385 0.148511
v -0.247023 0.767169 -0.247023
v -0.061168 4.264385 -0.069772
v 0.247023 0.767169 0.247023
v 0.157115 4.264385 0.148511
v 0.247023 0.767169 -0.247023
v 0.157115 4.264385 -0.069772
v -0.090714 0.000000 0.090714
v -0.091130 0.845446 0.091130
v -0.090714 0.000000 -0.090714
v -0.091130 0.845446 -0.091130
v 0.090714 0.000000 0.090714
v 0.091130 0.845446 0.091130
v 0.090714 0.000000 -0.090714
v 0.091130 0.845446 -0.091130
vn -0.9986 0.0531 0.0000
vn 0.0000 0.0506 -0.9987
vn 0.9997 0.0257 0.0000
vn 0.0000 0.0282 0.9996
vn 0.0000 1.0000 0.0000
vn 0.0000 -1.0000 0.0000
vn -1.0000 -0.0005 0.0000
vn 0.0000 -0.0005 -1.0000
vn 1.0000 -0.0005 0.0000
vn 0.0000 -0.0005 1.0000
s off
f 1//1 2//1 4//1 3//1
f 3//2 4//2 8//2 7//2
f 7//3 8//3 6//3 5//3
f 5//4 6//4 2//4 1//4
f 8//5 4//5 2//5 6//5
f 3//6 7//6 5//6 1//6
f 9//7 10//7 12//7 11//7
f 11//8 12//8 16//8 15//8
f 15//9 16//9 14//9 13//9
f 13//10 14//10 10//10 9//10
