# Blender v2.78 (sub 0) OBJ File: 'Low_Poly_Trees_Pack.blend'
# www.blender.org
g Thuja_Tree_m_09_Collider
v -0.275468 1.117043 0.345406
v 0.205628 4.447594 0.104850
v -0.275468 1.117043 -0.345406
v 0.212753 4.444807 -0.107924
v 0.275468 1.117043 0.345406
v 0.416157 4.416724 0.112303
v 0.275468 1.117043 -0.345406
v 0.423281 4.413937 -0.100470
v -0.104241 0.000000 0.104241
v -0.083346 1.173212 0.093599
v -0.104241 0.000000 -0.104241
v -0.083346 1.173212 -0.093599
v 0.104241 0.000000 0.104241
v 0.103689 1.168824 0.093599
v 0.104241 0.000000 -0.104241
v 0.103689 1.168824 -0.093599
vn -0.9895 0.1441 -0.0082
vn 0.0127 0.0714 -0.9974
vn 0.9990 -0.0437 0.0080
vn -0.0068 0.0719 0.9974
vn 0.1454 0.9893 -0.0081
vn 0.0000 -1.0000 0.0000
vn -0.9998 0.0178 0.0000
vn 0.0001 0.0091 -1.0000
vn 1.0000 0.0005 0.0000
vn 0.0001 0.0091 1.0000
s off
f 1//1 2//1 4//1 3//1
f 3//2 4//2 8//2 7//2
f 7//3 8//3 6//3 5//3
f 5//4 6//4 2//4 1//4
f 8//5 4//5 2//5 6//5
f 3//6 7//6 5//6 1//6
f 9//7 10//7 12//7 11//7
f 11//8 12//8 16//8 15//8
f 15//9 16//9 14//9 13//9
f 13//10 14//10 10//10 9//10
