# Blender v2.78 (sub 0) OBJ File: 'Low_Poly_Trees_Pack.blend'
# www.blender.org
g Oak_Log_05_Collider
v 1.518857 0.220132 -0.205949
v 1.518857 0.428655 -0.038295
v 1.518857 0.333644 0.211830
v 1.518857 0.066401 0.198762
v 1.518857 -0.003753 -0.059439
v -1.509405 0.274824 -0.346681
v -1.534421 0.549471 -0.127284
v -1.571742 0.424332 0.200037
v -1.569792 0.072344 0.182936
v -1.531266 -0.020057 -0.154954
v 0.150414 0.083402 0.246401
v 0.094648 0.000497 -0.053088
v 0.099215 0.511494 -0.028563
v 0.153237 0.399215 0.261558
v 0.063005 0.265072 -0.223025
v -0.763188 0.069499 0.264524
v -0.764940 0.543379 -0.041925
v -0.765096 -0.022273 -0.069259
v -0.763092 0.419091 0.281417
v -0.766179 0.270601 -0.258655
vn -0.0310 -0.9644 0.2627
vn -0.0309 0.9339 0.3563
vn 0.0936 -0.5440 -0.8338
vn -0.1005 -0.0484 0.9938
vn 0.0933 0.6229 -0.7767
vn 0.0296 0.6210 -0.7832
vn 0.0341 -0.0485 0.9982
vn -0.0062 -0.5440 -0.8391
vn 0.0573 0.9340 0.3526
vn -0.0022 -0.9643 0.2649
vn -0.9936 0.0000 -0.1133
vn 1.0000 0.0000 0.0000
vn 0.0364 0.6188 -0.7847
vn 0.0206 -0.0482 0.9986
vn 0.0313 -0.5402 -0.8409
vn 0.0284 0.9335 0.3574
vn 0.0202 -0.9643 0.2641
s off
f 18//1 16//1 9//1 10//1
f 19//2 17//2 7//2 8//2
f 20//3 18//3 10//3 6//3
f 16//4 19//4 8//4 9//4
f 17//5 20//5 6//5 7//5
f 2//6 1//6 15//6 13//6
f 4//7 3//7 14//7 11//7
f 1//8 5//8 12//8 15//8
f 3//9 2//9 13//9 14//9
f 5//10 4//10 11//10 12//10
f 7//11 6//11 8//11
f 9//11 8//11 6//11 10//11
f 2//12 3//12 1//12
f 4//12 5//12 1//12 3//12
f 13//13 15//13 20//13 17//13
f 11//14 14//14 19//14 16//14
f 15//15 12//15 18//15 20//15
f 14//16 13//16 17//16 19//16
f 12//17 11//17 16//17 18//17
