# Blender v2.78 (sub 0) OBJ File: 'Low_Poly_Trees_Pack.blend'
# www.blender.org
g Oak_Log_03_Collider
v 1.853235 0.236792 -0.246714
v 1.853235 0.391059 -0.044381
v 1.853235 0.246300 0.164860
v 1.853235 0.002567 0.091846
v 1.853235 -0.003310 -0.162521
v -2.027096 0.173546 -0.128679
v -2.013881 0.289237 0.022482
v -2.000215 0.169181 0.188532
v -2.004984 0.004081 0.104802
v -1.962997 0.004095 -0.087002
vn -0.0219 -0.2968 -0.9547
vn 0.0079 -0.3581 0.9337
vn -0.0314 0.7949 -0.6059
vn -0.0010 -0.9999 0.0130
vn -0.0122 0.8168 0.5768
vn -0.9000 -0.3889 -0.1970
vn -0.9963 -0.0139 0.0842
vn -0.9964 0.0034 0.0845
vn 1.0000 0.0000 -0.0000
s off
f 1//1 5//1 10//1 6//1
f 4//2 3//2 8//2 9//2
f 2//3 1//3 6//3 7//3
f 5//4 4//4 9//4 10//4
f 3//5 2//5 7//5 8//5
f 10//6 9//6 6//6
f 8//7 6//7 9//7
f 7//8 6//8 8//8
f 2//9 3//9 1//9
f 4//9 5//9 1//9 3//9
