# Blender v2.78 (sub 0) OBJ File: 'Low_Poly_Trees_Pack.blend'
# www.blender.org
g Oak_Log_07_Collider
v 1.684509 0.297377 -0.263723
v 1.693456 0.564862 -0.048850
v 1.706805 0.442986 0.271722
v 1.706107 0.100178 0.254973
v 1.692328 0.010187 -0.075950
v -1.676433 0.212827 -0.279221
v -1.695136 0.418164 -0.115192
v -1.723038 0.324605 0.129526
v -1.721581 0.061445 0.116740
v -1.692777 -0.007637 -0.135879
v 0.025161 0.058121 0.265630
v 0.005601 -0.028160 -0.050811
v 0.007202 0.503649 -0.024897
v 0.026151 0.386797 0.281645
v -0.005498 0.247191 -0.230366
vn -0.0245 -0.9645 0.2629
vn -0.0648 0.9326 0.3549
vn 0.0355 -0.5456 -0.8373
vn -0.0849 -0.0485 0.9952
vn 0.0100 0.6248 -0.7807
vn -0.0339 0.6263 -0.7789
vn 0.0075 -0.0488 0.9988
vn -0.0002 -0.5467 -0.8373
vn -0.0290 0.9337 0.3569
vn 0.0258 -0.9649 0.2614
vn -0.9936 0.0000 -0.1133
vn 0.9991 0.0000 -0.0416
s off
f 12//1 11//1 9//1 10//1
f 14//2 13//2 7//2 8//2
f 15//3 12//3 10//3 6//3
f 11//4 14//4 8//4 9//4
f 13//5 15//5 6//5 7//5
f 2//6 1//6 15//6 13//6
f 4//7 3//7 14//7 11//7
f 1//8 5//8 12//8 15//8
f 3//9 2//9 13//9 14//9
f 5//10 4//10 11//10 12//10
f 7//11 6//11 8//11
f 9//11 8//11 6//11 10//11
f 2//12 3//12 1//12
f 4//12 5//12 1//12 3//12
