# Blender v2.78 (sub 0) OBJ File: 'Low_Poly_Trees_Pack.blend'
# www.blender.org
g Oak_Log_08_Collider
v 1.427573 0.222293 -0.229730
v 1.429505 0.437917 -0.046248
v 1.432387 0.339671 0.227492
v 1.432237 0.063326 0.213190
v 1.429262 -0.009217 -0.069388
v -1.391350 0.295555 -0.347155
v -1.439775 0.566914 -0.127869
v -1.466227 0.439101 0.199288
v -1.434150 0.088750 0.182195
v -1.387873 0.000033 -0.155525
v -0.369751 0.086924 0.230413
v -0.352126 0.002383 -0.079737
v -0.353569 0.523466 -0.054339
v -0.370643 0.408971 0.246110
v -0.342126 0.272181 -0.255723
vn -0.0149 -0.9663 0.2569
vn 0.0115 0.9326 0.3608
vn 0.0616 -0.5446 -0.8364
vn -0.0447 -0.0508 0.9977
vn 0.0794 0.6305 -0.7721
vn 0.0316 0.6361 -0.7709
vn 0.0086 -0.0501 0.9987
vn -0.0011 -0.5571 -0.8304
vn 0.0415 0.9366 0.3480
vn -0.0090 -0.9666 0.2560
vn -0.9899 -0.0851 -0.1133
vn 0.9999 -0.0000 -0.0105
s off
f 12//1 11//1 9//1 10//1
f 14//2 13//2 7//2 8//2
f 15//3 12//3 10//3 6//3
f 11//4 14//4 8//4 9//4
f 13//5 15//5 6//5 7//5
f 2//6 1//6 15//6 13//6
f 4//7 3//7 14//7 11//7
f 1//8 5//8 12//8 15//8
f 3//9 2//9 13//9 14//9
f 5//10 4//10 11//10 12//10
f 7//11 6//11 8//11
f 9//11 8//11 6//11 10//11
f 2//12 3//12 1//12
f 4//12 5//12 1//12 3//12
