# Blender v2.78 (sub 0) OBJ File: 'Low_Poly_Trees_Pack.blend'
# www.blender.org
g Pine_Spikes_TwoSided_01
v 0.243194 0.007758 -1.100001
v -0.243194 0.007758 -1.100001
v 0.000000 0.007235 -0.000001
v 0.110910 0.031411 -0.550001
v -0.110910 0.031411 -0.550001
v 0.395668 0.029669 -1.799163
v -0.395668 0.029640 -1.799163
v 0.464241 -0.000340 -2.336200
v -0.464240 0.025513 -2.336200
v 0.154747 0.040059 -2.336200
v -0.154746 0.012922 -2.336200
v 0.000000 -0.000505 -2.817710
v 0.564201 0.004971 -1.515850
v -0.564200 -0.000964 -1.530442
v 0.000000 0.051386 -1.100001
v 0.000000 0.040682 -0.769738
v 0.000000 0.077113 -1.799163
v 0.000000 0.080962 -2.116463
v 0.243061 0.006767 -1.100034
v -0.243057 0.006768 -1.100035
v 0.000000 0.006236 -0.000045
v 0.110878 0.030412 -0.550036
v -0.110878 0.030412 -0.550036
v 0.395541 0.028678 -1.799176
v -0.395549 0.028647 -1.799170
v 0.464111 -0.001331 -2.336161
v -0.464281 0.024514 -2.336187
v 0.154722 0.039062 -2.336126
v -0.154671 0.011928 -2.336123
v 0.000087 -0.001495 -2.817595
v 0.564132 0.003974 -1.515897
v -0.564103 -0.001958 -1.530494
v 0.000000 0.050387 -1.100029
v 0.000000 0.039682 -0.769751
v 0.000008 0.076113 -1.799165
v 0.000029 0.079965 -2.116403
vt 0.6860 0.3459
vt 0.6902 0.3377
vt 0.6944 0.3459
vt 0.6902 0.3666
vt 0.6902 0.3253
vt 0.6993 0.3253
vt 0.6810 0.3253
vt 0.6753 0.2989
vt 0.6902 0.2989
vt 0.6727 0.2787
vt 0.6844 0.2787
vt 0.7051 0.2989
vt 0.6960 0.2787
vt 0.7077 0.2787
vt 0.6902 0.2870
vt 0.6902 0.2606
vt 0.6690 0.3096
vt 0.7114 0.3091
vt 0.6860 0.3459
vt 0.6902 0.3666
vt 0.6944 0.3459
vt 0.6902 0.3377
vt 0.6902 0.3253
vt 0.6993 0.3253
vt 0.6902 0.2989
vt 0.6753 0.2989
vt 0.6810 0.3253
vt 0.6844 0.2787
vt 0.6727 0.2787
vt 0.7051 0.2989
vt 0.7077 0.2787
vt 0.6960 0.2787
vt 0.6902 0.2870
vt 0.6902 0.2606
vt 0.6690 0.3096
vt 0.7114 0.3091
vn 0.0000 0.9991 0.0434
vn -0.1435 0.9896 0.0070
vn 0.1410 0.9888 0.0491
vn 0.1293 0.9908 -0.0389
vn 0.0406 0.9991 -0.0129
vn 0.1485 0.9886 -0.0254
vn -0.0868 0.9896 -0.1150
vn 0.0685 0.9966 0.0462
vn -0.0971 0.9939 0.0523
vn -0.1798 0.9815 -0.0655
vn -0.1410 0.9888 0.0490
vn 0.1435 0.9896 0.0070
vn 0.0000 -0.9991 -0.0434
vn 0.1435 -0.9896 -0.0070
vn -0.1410 -0.9888 -0.0491
vn -0.1294 -0.9908 0.0389
vn -0.0406 -0.9991 0.0129
vn -0.1486 -0.9886 0.0254
vn 0.0868 -0.9896 0.1150
vn -0.0685 -0.9966 -0.0462
vn 0.0971 -0.9939 -0.0523
vn 0.1799 -0.9815 0.0655
vn 0.1410 -0.9888 -0.0490
vn -0.1435 -0.9896 -0.0070
s off
f 4/1/1 16/2/1 5/3/1 3/4/1
f 15/5/2 2/6/2 5/3/2 16/2/2
f 15/5/3 1/7/3 6/8/3 17/9/3
f 6/8/4 8/10/4 10/11/4
f 7/12/5 11/13/5 9/14/5
f 17/9/6 6/8/6 10/11/6 18/15/6
f 11/13/7 18/15/7 10/11/7 12/16/7
f 6/8/8 1/7/8 13/17/8
f 2/6/9 7/12/9 14/18/9
f 7/12/10 17/9/10 18/15/10 11/13/10
f 2/6/11 15/5/11 17/9/11 7/12/11
f 1/7/12 15/5/12 16/2/12 4/1/12
f 22/19/13 21/20/13 23/21/13 34/22/13
f 33/23/14 34/22/14 23/21/14 20/24/14
f 33/23/15 35/25/15 24/26/15 19/27/15
f 24/26/16 28/28/16 26/29/16
f 25/30/17 27/31/17 29/32/17
f 35/25/18 36/33/18 28/28/18 24/26/18
f 29/32/19 30/34/19 28/28/19 36/33/19
f 24/26/20 31/35/20 19/27/20
f 20/24/21 32/36/21 25/30/21
f 25/30/22 29/32/22 36/33/22 35/25/22
f 20/24/23 25/30/23 35/25/23 33/23/23
f 19/27/24 22/19/24 34/22/24 33/23/24
