# Blender v2.78 (sub 0) OBJ File: 'Low_Poly_Trees_Pack.blend'
# www.blender.org
g Pine_Spikes_OneSided_03
v 0.217262 0.022647 -0.964898
v -0.267205 0.016721 -0.950077
v 0.000000 0.007235 -0.000001
v 0.128661 0.033372 -0.543145
v -0.090738 0.022966 -0.516411
v 0.351671 0.031454 -1.476520
v -0.439664 0.031731 -1.476520
v 0.404700 -0.000340 -1.899569
v -0.523765 0.025513 -1.899686
v 0.090544 0.040539 -1.865379
v -0.218987 0.013065 -1.865103
v -0.071323 -0.000505 -2.294673
v 0.533556 0.004971 -1.291125
v -0.595392 -0.000964 -1.301700
v -0.041759 0.078267 -0.939207
v -0.007403 0.051060 -0.701424
v -0.046849 0.111258 -1.455602
v -0.058348 0.098031 -1.688576
vt 0.9399 0.3459
vt 0.9441 0.3377
vt 0.9483 0.3459
vt 0.9441 0.3666
vt 0.9441 0.3253
vt 0.9532 0.3253
vt 0.9349 0.3253
vt 0.9292 0.2989
vt 0.9441 0.2989
vt 0.9266 0.2787
vt 0.9383 0.2787
vt 0.9590 0.2989
vt 0.9499 0.2787
vt 0.9616 0.2787
vt 0.9441 0.2870
vt 0.9441 0.2606
vt 0.9229 0.3096
vt 0.9653 0.3091
vn -0.0397 0.9972 0.0627
vn -0.2245 0.9692 0.1008
vn 0.2057 0.9764 0.0656
vn 0.1225 0.9907 -0.0591
vn 0.0434 0.9988 -0.0233
vn 0.2087 0.9731 -0.0980
vn -0.0874 0.9836 -0.1580
vn 0.1004 0.9940 0.0435
vn -0.1287 0.9892 0.0704
vn -0.2396 0.9621 -0.1300
vn -0.2258 0.9706 0.0831
vn 0.1698 0.9847 0.0386
s off
f 4/1/1 16/2/1 5/3/1 3/4/1
f 15/5/2 2/6/2 5/3/2 16/2/2
f 15/5/3 1/7/3 6/8/3 17/9/3
f 6/8/4 8/10/4 10/11/4
f 7/12/5 11/13/5 9/14/5
f 17/9/6 6/8/6 10/11/6 18/15/6
f 11/13/7 18/15/7 10/11/7 12/16/7
f 6/8/8 1/7/8 13/17/8
f 2/6/9 7/12/9 14/18/9
f 7/12/10 17/9/10 18/15/10 11/13/10
f 2/6/11 15/5/11 17/9/11 7/12/11
f 1/7/12 15/5/12 16/2/12 4/1/12
