# Blender v2.78 (sub 0) OBJ File: 'Low_Poly_Trees_Pack.blend'
# www.blender.org
g Pine_Spikes_OneSided_02
v 0.239481 0.006897 -1.162585
v -0.192030 0.006754 -1.180382
v 0.002309 0.007189 -0.012821
v 0.110904 0.029666 -0.613401
v -0.101641 0.029723 -0.615138
v 0.427425 0.048463 -1.860651
v -0.228906 0.023464 -1.806759
v -0.200083 0.019033 -2.222674
v 0.266237 0.029370 -2.165169
v 0.039766 0.009390 -2.192177
v 0.206045 -0.000505 -2.516568
v 0.599166 0.069742 -1.800629
v -0.419772 -0.000889 -1.588953
v 0.024536 0.044841 -1.172093
v 0.009263 0.037322 -0.845198
v 0.089282 0.060357 -1.778481
v 0.127109 0.060780 -2.019771
vt 0.8052 0.3459
vt 0.8093 0.3377
vt 0.8135 0.3459
vt 0.8093 0.3666
vt 0.8093 0.3253
vt 0.8185 0.3253
vt 0.8002 0.3253
vt 0.7944 0.2989
vt 0.8093 0.2989
vt 0.8242 0.2989
vt 0.8151 0.2787
vt 0.8268 0.2787
vt 0.8035 0.2787
vt 0.8093 0.2870
vt 0.8093 0.2606
vt 0.7881 0.3096
vt 0.8306 0.3091
vn -0.0000 0.9993 0.0362
vn -0.1416 0.9899 -0.0052
vn 0.0977 0.9933 0.0624
vn 0.0412 0.9991 -0.0078
vn 0.0670 0.9965 -0.0492
vn -0.0713 0.9885 -0.1333
vn -0.1311 0.9911 0.0237
vn -0.0906 0.9954 0.0319
vn -0.1635 0.9813 -0.1013
vn -0.1403 0.9898 0.0227
vn 0.1385 0.9904 0.0055
s off
f 4/1/1 15/2/1 5/3/1 3/4/1
f 14/5/2 2/6/2 5/3/2 15/2/2
f 14/5/3 1/7/3 6/8/3 16/9/3
f 7/10/4 10/11/4 8/12/4
f 16/9/5 6/8/5 9/13/5 17/14/5
f 10/11/6 17/14/6 9/13/6 11/15/6
f 6/8/7 1/7/7 12/16/7
f 2/6/8 7/10/8 13/17/8
f 7/10/9 16/9/9 17/14/9 10/11/9
f 2/6/10 14/5/10 16/9/10 7/10/10
f 1/7/11 14/5/11 15/2/11 4/1/11
