# Blender v2.78 (sub 0) OBJ File: 'Low_Poly_Trees_Pack.blend'
# www.blender.org
g Oak_Tree_NoLeaves_l_04_Collider
v -0.470139 1.963030 0.007589
v -0.455078 1.999837 0.321727
v -0.341559 1.999837 0.419579
v -0.075447 2.008103 0.375882
v -0.031900 0.000000 -0.359183
v 0.255349 0.000000 -0.154781
v -0.301550 3.677459 0.311986
v -0.540249 3.685802 0.223625
v -0.579543 3.600539 -0.053176
v -0.320168 3.798077 -0.127707
v -0.134925 3.739265 0.129680
v 0.715108 5.524587 0.747731
v 0.609808 5.608193 0.637094
v 0.718829 5.644404 0.580158
v 0.833425 5.525986 0.612414
v -0.460937 4.009306 0.057380
v -1.496954 4.042221 -0.608885
v -1.470895 3.996627 -0.688438
v -1.410051 4.086554 -0.747615
v -1.424061 4.158037 -0.644783
v 0.138747 0.000000 0.245837
v -0.204312 0.000000 0.418009
v 0.051908 2.071216 0.106754
v -0.443129 0.000000 0.212153
v -0.439126 0.000000 -0.197337
v -0.164599 2.123050 -0.101516
vn -0.6522 -0.0454 0.7567
vn 0.6359 0.1448 -0.7581
vn -0.6529 0.0111 0.7574
vn 0.7639 0.0776 -0.6406
vn -0.0879 0.0658 0.9939
vn -0.9933 -0.0533 0.1024
vn -0.2814 -0.0477 -0.9584
vn 0.6537 -0.1161 -0.7478
vn -0.3792 0.5186 -0.7664
vn 0.4668 0.7434 -0.4790
vn -0.3479 -0.0296 0.9371
vn 0.6892 -0.5073 0.5174
vn -0.5566 -0.7730 0.3045
vn 0.2523 -0.6247 -0.7390
vn -0.7581 0.3329 0.5607
vn -0.4579 0.4976 0.7367
vn 0.8191 0.1083 0.5634
vn -0.3714 0.0897 -0.9241
vn -0.9998 -0.0121 0.0159
vn 0.9359 0.0625 0.3468
vn 0.3340 -0.0017 0.9426
vn -0.8391 0.3550 -0.4122
vn 0.3407 0.7612 0.5518
s off
f 3//1 2//1 24//1 22//1
f 26//2 23//2 6//2 5//2
f 3//3 8//3 2//3
f 10//4 11//4 23//4 26//4
f 4//5 7//5 8//5 3//5
f 2//6 8//6 9//6 1//6
f 10//7 26//7 1//7 9//7
f 11//8 10//8 14//8 15//8
f 10//9 16//9 13//9 14//9
f 16//10 10//10 19//10 20//10
f 8//11 7//11 12//11
f 7//12 11//12 15//12 12//12
f 9//13 8//13 17//13 18//13
f 10//14 9//14 18//14 19//14
f 16//15 8//15 12//15 13//15
f 8//16 16//16 20//16 17//16
f 11//17 7//17 4//17 23//17
f 1//18 26//18 5//18 25//18
f 2//19 1//19 25//19 24//19
f 23//20 4//20 21//20 6//20
f 4//21 3//21 22//21 21//21
f 18//22 17//22 20//22 19//22
f 15//23 14//23 13//23 12//23
