# Blender v2.78 (sub 0) OBJ File: 'Low_Poly_Trees_Pack.blend'
# www.blender.org
g Oak_Tree_l_03_Collider
v 0.153617 0.000000 -0.472784
v -0.307233 0.000000 -0.422871
v -0.492077 0.000000 -0.020696
v -0.307233 0.000000 0.422871
v 0.153617 0.000000 0.472784
v 0.437009 0.000000 0.215987
v 0.410804 0.000000 -0.239733
v 0.140644 0.867198 -0.356625
v 0.376112 0.867198 -0.180832
v 0.400104 0.867198 0.162921
v 0.140644 0.867198 0.356625
v -0.281288 0.867198 0.318975
v -0.400927 0.867198 -0.015611
v -0.281288 0.867198 -0.318975
v -0.254425 1.308200 0.094495
v -0.675828 1.301160 0.123478
v -0.869218 1.193543 0.026811
v -0.672851 1.279219 -0.287748
v -0.251995 1.290286 -0.241255
v -1.272241 1.975811 0.001398
v -1.392871 1.851894 -0.103198
v -1.249864 1.964936 -0.402051
v -1.129234 2.088853 -0.297455
v -2.170890 2.635440 0.017199
v -2.286361 2.553162 -0.064748
v -2.164944 2.602123 -0.321616
v -2.027466 2.701197 -0.232858
v -3.130551 4.357522 -0.594594
v -3.200256 4.218984 -0.588348
v -3.142838 4.247828 -0.822291
v -3.030329 4.273650 -0.770500
v 0.289360 1.883408 -0.162806
v 0.592679 1.813959 0.001497
v 0.575856 1.840756 0.274841
v 0.360349 1.912086 0.434231
v 0.022526 2.065552 0.295244
v 0.004839 1.999539 -0.046712
v 0.719355 3.671531 -0.007379
v 0.824604 3.654416 0.223886
v 0.621103 3.814982 0.374718
v 0.452805 3.797029 0.057842
v 1.136608 5.682189 -1.081394
v 1.207564 5.719719 -0.987372
v 1.087021 5.795451 -0.856456
v 0.958058 5.671136 -0.986428
vn 0.6357 0.0948 -0.7661
vn -0.0979 0.1260 0.9872
vn 0.6358 0.0930 0.7662
vn -0.0979 0.1260 -0.9872
vn -0.9280 0.0833 0.3631
vn -0.6147 -0.6751 -0.4079
vn 0.9972 0.0414 -0.0626
vn -0.5966 -0.5617 0.5732
vn -0.6073 -0.5934 -0.5282
vn 0.0080 0.1801 -0.9836
vn -0.0129 0.4542 0.8908
vn 0.4444 0.7466 0.4951
vn -0.5466 -0.6975 -0.4634
vn 0.2382 0.1227 -0.9634
vn 0.0629 0.2313 0.9708
vn -0.4261 -0.1908 0.8843
vn 0.6740 0.7379 -0.0345
vn -0.2995 -0.4284 0.8525
vn 0.7247 0.5679 0.3904
vn -0.7568 -0.5443 -0.3620
vn -0.5630 -0.0132 0.8264
vn 0.2462 0.4565 -0.8550
vn -0.8560 0.2729 0.4392
vn -0.4372 0.0590 0.8974
vn 0.5162 0.6978 0.4966
vn 0.4841 0.0157 -0.8749
vn 0.9798 -0.1998 -0.0027
vn 0.5384 0.0609 -0.8405
vn -0.3764 0.0103 0.9264
vn -0.2902 0.2201 -0.9313
vn 0.5679 -0.1865 0.8017
vn -0.9704 0.2416 0.0035
vn 0.6892 -0.0505 -0.7229
vn -0.3492 0.0771 0.9339
vn -0.2570 0.1323 -0.9573
vn 0.5745 -0.0545 0.8167
vn 0.9883 -0.1335 0.0739
vn -0.8066 0.4377 0.3972
vn 0.8179 -0.3951 -0.4183
vn -0.3969 -0.3650 -0.8422
vn 0.7296 0.2347 0.6423
vn 0.0012 0.2641 -0.9645
vn -0.9147 0.0866 -0.3947
vn -0.5872 0.7412 -0.3254
vn -0.1701 0.8646 -0.4728
vn -0.9376 0.3471 -0.0219
s off
f 7//1 1//1 8//1 9//1
f 4//2 5//2 11//2 12//2
f 5//3 6//3 10//3 11//3
f 1//4 2//4 14//4 8//4
f 3//5 4//5 12//5 13//5
f 13//6 17//6 18//6 14//6
f 6//7 7//7 9//7 10//7
f 13//8 12//8 16//8 17//8
f 17//9 21//9 22//9 18//9
f 8//10 14//10 18//10 19//10
f 12//11 11//11 15//11 16//11
f 23//12 20//12 15//12
f 22//13 21//13 25//13 26//13
f 19//14 18//14 22//14 23//14
f 16//15 15//15 20//15
f 17//16 16//16 20//16 21//16
f 19//17 23//17 15//17
f 21//18 20//18 24//18 25//18
f 24//19 27//19 31//19 28//19
f 26//20 25//20 29//20 30//20
f 15//21 11//21 36//21
f 23//22 22//22 26//22 27//22
f 36//23 40//23 41//23
f 25//24 24//24 28//24 29//24
f 20//25 23//25 27//25 24//25
f 27//26 26//26 30//26 31//26
f 10//27 9//27 33//27 34//27
f 9//28 8//28 32//28 33//28
f 11//29 35//29 36//29
f 8//30 37//30 32//30
f 11//31 10//31 34//31 35//31
f 37//32 36//32 41//32
f 33//33 32//33 38//33 39//33
f 36//34 35//34 40//34
f 32//35 37//35 41//35 38//35
f 35//36 34//36 39//36 40//36
f 34//37 33//37 39//37
f 40//38 44//38 45//38 41//38
f 39//39 38//39 42//39 43//39
f 38//40 41//40 45//40 42//40
f 40//41 39//41 43//41 44//41
f 8//42 19//42 37//42
f 2//43 3//43 13//43 14//43
f 30//44 29//44 28//44 31//44
f 45//45 44//45 43//45 42//45
f 19//46 15//46 36//46 37//46
