# Blender v2.78 (sub 0) OBJ File: 'Low_Poly_Trees_Pack.blend'
# www.blender.org
g Oak_Tree_crk_l_01_Collider
v 0.167566 0.000000 -0.515714
v -0.335131 0.000000 -0.461269
v -0.542254 0.000000 0.176189
v -0.167566 0.000000 0.515714
v 0.335131 0.000000 0.461269
v 0.542254 0.000000 -0.176189
v 1.775538 0.264859 0.055537
v 1.775538 -0.017029 0.127900
v 1.775538 0.008590 0.468024
v 0.000000 0.867198 0.394275
v -0.281288 0.867198 0.318975
v -0.455134 0.867198 0.121838
v -0.281288 0.867198 -0.318975
v -0.000000 0.867198 -0.394275
v -0.413543 1.308200 0.094495
v -0.675828 1.301160 0.123478
v -0.869218 1.193543 0.026811
v -0.672851 1.279219 -0.287748
v -0.411113 1.290286 -0.241255
v -1.929740 1.937747 -0.043259
v -2.071853 1.839203 -0.147855
v -1.909857 1.922791 -0.446708
v -1.767745 2.021335 -0.342112
v -2.406670 2.749433 0.017199
v -2.535752 2.690772 -0.064748
v -2.395158 2.722649 -0.309028
v -2.255599 2.786976 -0.228539
v -3.068607 4.688807 -0.328334
v -3.141555 4.687471 -0.427032
v -3.077283 4.657140 -0.579235
v -2.965613 4.665539 -0.520357
v -2.882127 5.801036 -1.454116
v 3.372476 0.385718 0.394480
v 3.345670 0.165115 0.372242
v 3.421405 0.169682 0.651394
v 3.381817 0.364313 0.602513
v 5.227072 -0.132701 -0.193126
v 5.293939 -0.118411 -0.075721
v 5.324789 0.016830 -0.072908
v 5.306901 0.036523 -0.203928
v -0.299776 1.619589 0.042246
v -0.298009 1.619589 -0.201916
v 0.254732 1.382429 0.314589
v 0.269236 1.359994 -0.226851
v 0.308166 4.743392 1.442820
v 0.311727 4.751883 1.261188
v 0.055761 4.802969 1.252005
v 0.100305 4.800834 1.369441
v 1.412457 6.277280 1.741509
v -0.099736 3.210211 0.528345
v -0.121124 3.211279 0.347546
v 0.282734 3.185736 0.358749
v 0.281166 3.181490 0.641722
v 0.455134 0.867198 -0.121838
v 0.281288 0.867198 0.318975
v 0.281288 0.867198 -0.318975
v 1.775538 0.332040 0.514425
v 0.810968 2.047572 0.424387
v 0.784524 2.046164 0.042066
v 1.028613 1.758185 0.082594
v 1.013127 1.774008 0.421740
vn 0.6963 0.0924 -0.7117
vn -0.2543 0.1821 0.9498
vn 0.1013 -0.9942 0.0361
vn -0.1617 0.1380 -0.9771
vn 0.2543 0.1821 -0.9498
vn -0.6963 0.0924 0.7117
vn 0.1617 0.1380 0.9771
vn -0.6092 -0.6973 -0.3777
vn -0.5478 -0.2816 0.7878
vn -0.3711 -0.8166 -0.4421
vn -0.0556 0.1639 -0.9849
vn -0.0821 0.4324 0.8979
vn -0.7731 -0.3761 -0.5107
vn 0.2573 0.3126 -0.9144
vn 0.0891 0.4129 0.9064
vn -0.3091 -0.3574 0.8813
vn 0.4764 0.8781 -0.0434
vn 0.7426 0.1406 -0.6548
vn -0.9426 0.3334 -0.0171
vn -0.4120 -0.3071 0.8578
vn 0.7994 0.3667 0.4759
vn -0.8340 -0.3428 -0.4323
vn 0.3576 0.3605 -0.8615
vn 0.8583 0.2869 0.4256
vn -0.6523 -0.0745 0.7543
vn -0.9764 -0.0027 0.2158
vn 0.3175 0.8545 0.4111
vn 0.4749 0.0438 -0.8789
vn 0.7521 0.4025 0.5219
vn 0.4087 -0.5974 -0.6900
vn -0.9228 -0.1220 -0.3654
vn -0.6531 0.5900 0.4747
vn -0.9388 0.0931 -0.3317
vn -0.1229 -0.9882 0.0912
vn 0.1900 -0.1075 -0.9759
vn -0.0831 -0.0016 0.9965
vn 0.2081 0.9729 0.1012
vn -0.2741 0.1030 -0.9562
vn 0.3619 0.1383 0.9219
vn 0.8906 -0.3319 -0.3110
vn -0.1783 0.1769 -0.9680
vn 0.2542 0.1837 -0.9495
vn -0.0386 0.9969 -0.0679
vn -0.3512 0.2783 0.8940
vn 0.0834 0.2441 -0.9662
vn 0.0838 0.4908 -0.8672
vn -0.3162 0.2958 0.9014
vn 0.9997 -0.0236 0.0104
vn 0.0853 0.2784 -0.9567
vn -0.3210 0.0469 0.9459
vn 0.8126 -0.5828 -0.0113
vn -0.7499 0.5921 0.2952
vn -1.0000 0.0000 0.0000
vn -0.3297 -0.4174 0.8468
vn 0.9388 0.0931 0.3317
vn -0.4192 -0.1852 0.8888
vn 0.9997 -0.0160 0.0198
vn 0.0777 0.3104 -0.9474
vn -0.9936 0.1027 0.0461
vn 0.2585 0.0215 0.9658
vn -0.7827 0.6223 -0.0059
vn 0.7835 0.6208 -0.0267
vn 0.7762 -0.5978 0.2005
vn -0.1229 -0.0334 0.9919
vn 0.3648 0.0274 -0.9307
s off
f 6//1 1//1 56//1 54//1
f 4//2 10//2 11//2
f 9//3 8//3 34//3 35//3
f 1//4 2//4 13//4 14//4
f 1//5 14//5 56//5
f 3//6 4//6 11//6 12//6
f 4//7 5//7 55//7 10//7
f 12//8 17//8 18//8 13//8
f 12//9 11//9 16//9 17//9
f 17//10 21//10 22//10 18//10
f 14//11 13//11 18//11 19//11
f 11//12 10//12 15//12 16//12
f 22//13 21//13 25//13 26//13
f 19//14 18//14 22//14 23//14
f 16//15 15//15 20//15
f 17//16 16//16 20//16 21//16
f 19//17 23//17 15//17
f 54//18 56//18 44//18
f 19//19 15//19 41//19 42//19
f 21//20 20//20 24//20 25//20
f 24//21 27//21 31//21 28//21
f 26//22 25//22 29//22 30//22
f 23//23 22//23 26//23 27//23
f 28//24 31//24 32//24
f 25//25 24//25 28//25 29//25
f 50//26 48//26 47//26 51//26
f 23//27 20//27 15//27
f 27//28 26//28 30//28 31//28
f 20//29 23//29 27//29 24//29
f 31//30 30//30 32//30
f 30//31 29//31 32//31
f 29//32 28//32 32//32
f 2//33 3//33 12//33 13//33
f 35//34 34//34 37//34 38//34
f 8//35 7//35 33//35 34//35
f 9//36 35//36 36//36 57//36
f 36//37 39//37 40//37 33//37
f 34//38 33//38 40//38 37//38
f 36//39 35//39 38//39 39//39
f 40//40 39//40 38//40 37//40
f 14//41 19//41 42//41
f 14//42 44//42 56//42
f 7//43 57//43 36//43 33//43
f 15//44 10//44 41//44
f 47//45 49//45 46//45
f 51//46 47//46 46//46 52//46
f 10//47 43//47 41//47
f 52//48 46//48 45//48 53//48
f 14//49 42//49 44//49
f 48//50 45//50 49//50
f 45//51 46//51 49//51
f 47//52 48//52 49//52
f 8//53 9//53 57//53 7//53
f 50//54 53//54 45//54 48//54
f 5//55 6//55 54//55 55//55
f 41//56 43//56 53//56 50//56
f 44//57 52//57 53//57 43//57
f 42//58 51//58 52//58 44//58
f 41//59 50//59 51//59 42//59
f 10//60 55//60 43//60
f 44//61 43//61 58//61 59//61
f 58//62 61//62 60//62 59//62
f 55//63 54//63 60//63 61//63
f 43//64 55//64 61//64 58//64
f 54//65 44//65 59//65 60//65
