# Blender v2.78 (sub 0) OBJ File: 'Low_Poly_Trees_Pack.blend'
# www.blender.org
g Oak_Tree_NoLeaves_crk_l_03_Collider
v -0.200495 1.873736 0.102310
v -0.188614 1.832109 0.417328
v 0.154326 1.820379 0.498061
v 0.338512 2.010065 0.434204
v -0.031900 0.000000 -0.359183
v 0.255349 0.000000 -0.154781
v 1.160132 1.137555 1.858636
v 0.969134 1.057488 2.006835
v 0.815872 1.264657 2.144765
v 1.111522 1.393561 2.233233
v 1.274454 1.341287 1.959843
v 3.104498 0.468217 2.669205
v 3.052881 0.453156 2.834817
v 3.140843 0.543645 2.857461
v 3.157147 0.633448 2.716518
v 1.190484 1.097710 2.303430
v 0.154605 1.117827 3.174643
v 0.124339 1.207382 3.186913
v 0.210829 1.250533 3.264040
v 0.272263 1.141460 3.249566
v 0.138747 0.000000 0.245837
v -0.204312 0.000000 0.418009
v 0.446207 2.222090 0.628393
v -0.443129 0.000000 0.212153
v -0.439126 0.000000 -0.197337
v 0.317430 2.188429 0.902061
v 0.064781 1.810033 0.625900
v 0.002513 2.011573 0.863838
v -0.071885 1.799692 0.516280
v 0.196082 1.801093 0.469643
v 0.329678 1.917606 0.218965
v 0.118868 2.031476 0.031338
vn -0.6505 0.0059 0.7594
vn 0.6303 0.1127 -0.7681
vn -0.3099 -0.9053 -0.2904
vn 0.4884 0.8412 0.2318
vn 0.2408 -0.7843 -0.5717
vn -0.7911 -0.5841 0.1815
vn -0.4456 0.6236 0.6423
vn 0.2959 0.9313 0.2124
vn -0.2384 0.1241 0.9632
vn 0.6871 0.3275 0.6486
vn -0.0651 -0.8405 -0.5379
vn 0.4243 0.1663 -0.8901
vn -0.8061 -0.2207 -0.5491
vn -0.3412 0.9240 -0.1728
vn -0.3375 -0.9250 0.1743
vn 0.0702 -0.9918 0.1064
vn 0.8382 -0.0627 -0.5417
vn -0.3376 0.1964 -0.9206
vn -0.9914 0.1294 0.0182
vn 0.9350 -0.0883 0.3434
vn 0.3356 -0.1015 0.9365
vn -0.4900 -0.3346 0.8049
vn 0.8728 -0.4873 0.0267
vn -0.7351 0.6218 -0.2702
vn -0.1771 0.8580 0.4822
vn 0.0579 0.9857 0.1583
vn -0.4477 0.7026 -0.5531
s off
f 29//1 2//1 24//1 22//1
f 32//2 31//2 6//2 5//2
f 3//3 8//3 27//3
f 10//4 11//4 23//4 26//4
f 4//5 7//5 8//5 3//5
f 27//6 8//6 9//6 28//6
f 10//7 26//7 28//7 9//7
f 11//8 10//8 14//8 15//8
f 10//9 16//9 13//9 14//9
f 16//10 10//10 19//10 20//10
f 8//11 7//11 12//11
f 7//12 11//12 15//12 12//12
f 9//13 8//13 17//13 18//13
f 10//14 9//14 18//14 19//14
f 16//15 8//15 12//15 13//15
f 8//16 16//16 20//16 17//16
f 11//17 7//17 4//17 23//17
f 1//18 32//18 5//18 25//18
f 2//19 1//19 25//19 24//19
f 31//20 30//20 21//20 6//20
f 30//21 29//21 22//21 21//21
f 18//22 17//22 20//22 19//22
f 15//23 14//23 13//23 12//23
f 26//24 23//24 4//24 3//24
f 1//25 30//25 31//25 32//25
f 2//26 29//26 30//26 1//26
f 28//27 26//27 3//27 27//27
