# Blender v2.78 (sub 0) OBJ File: 'Low_Poly_Trees_Pack.blend'
# www.blender.org
g Oak_Tree_NoLeaves_crk_m_02_Collider
v 0.229295 0.000000 0.145297
v -0.279114 0.000000 0.090119
v -0.159053 0.000000 -0.373873
v 0.328892 0.000000 -0.239607
v 0.041007 2.084763 -0.049167
v -0.147137 2.087246 -0.079259
v -0.083120 2.074741 -0.263489
v 0.092069 2.074789 -0.196113
v 0.133051 4.381027 -0.019770
v 0.077212 4.378618 0.000289
v 0.073642 4.358026 -0.099347
v 0.131378 4.397653 -0.076753
vn 0.2906 0.0467 -0.9557
vn -0.1208 0.0846 0.9891
vn 0.9571 0.1076 0.2691
vn -0.9716 0.0925 -0.2177
vn -0.9608 0.0441 -0.2737
vn 0.9716 -0.0352 0.2342
vn 0.3537 0.0425 -0.9344
vn -0.0411 -0.0209 0.9989
vn -0.3468 0.9378 -0.0122
s off
f 4//1 3//1 7//1 8//1
f 2//2 1//2 5//2 6//2
f 1//3 4//3 8//3 5//3
f 7//4 6//4 10//4 11//4
f 3//5 2//5 6//5 7//5
f 8//6 12//6 9//6 5//6
f 7//7 11//7 12//7 8//7
f 5//8 9//8 10//8 6//8
f 12//9 11//9 10//9 9//9
