# Blender v2.78 (sub 0) OBJ File: 'Low_Poly_Trees_Pack.blend'
# www.blender.org
g Dead_Pine_Tree_crk_OneSided_l_04_Collider
v -0.320091 0.127263 -0.188905
v -0.280337 0.127263 0.211431
v 0.119261 0.127263 0.293005
v 0.329236 0.127263 -0.072686
v 0.043511 0.127263 -0.342159
v 0.129393 6.988957 0.005445
v -0.016429 6.988957 -0.201303
v -0.193878 6.988957 0.099960
v 0.042967 6.988957 0.152698
v -0.209734 6.988957 -0.149287
vn 0.8657 0.0197 0.5002
vn -0.3458 0.0136 -0.9382
vn -0.2065 0.0181 0.9783
vn 0.7408 0.0247 -0.6713
vn 0.0000 1.0000 0.0000
vn -0.9962 0.0147 0.0853
s off
f 4//1 6//1 9//1 3//1
f 1//2 10//2 7//2 5//2
f 3//3 9//3 8//3 2//3
f 5//4 7//4 6//4 4//4
f 9//5 6//5 7//5
f 8//5 9//5 7//5
f 10//5 8//5 7//5
f 2//6 8//6 10//6 1//6
