# Blender v2.78 (sub 0) OBJ File: 'Low_Poly_Trees_Pack.blend'
# www.blender.org
g Dead_Pine_Tree_OneSided_l_05_Collider
v -0.070473 0.000000 -0.347582
v -0.332578 0.000000 -0.024634
v -0.098454 0.000000 0.326041
v 0.321852 0.000000 0.210250
v 0.308083 0.000000 -0.195566
v -0.100952 11.083607 -0.148034
v -0.170117 11.083607 -0.062623
v -0.110259 11.083607 0.029549
v -0.004101 11.083607 0.001104
v 0.001651 11.083607 -0.108648
v -0.117263 16.092201 0.177288
v 0.107233 3.629813 0.133265
v 0.121547 3.673176 -0.198070
v -0.364765 3.650885 -0.067951
v -0.231743 3.632488 0.223998
v -0.159533 3.558357 -0.328293
vn 0.9988 0.0157 0.0470
vn -0.8929 0.0247 0.4495
vn 0.3997 0.0182 -0.9165
vn 0.2587 0.0210 0.9657
vn -0.7766 0.0383 -0.6289
vn -0.7815 -0.0152 -0.6237
vn 0.2624 0.0363 0.9643
vn 0.3908 0.0170 -0.9203
vn -0.8684 -0.0098 0.4958
vn 0.9985 0.0549 0.0040
vn 0.2587 -0.0281 0.9655
vn 0.3577 0.0617 -0.9318
vn -0.8385 -0.0172 0.5446
vn 0.9984 0.0207 0.0523
vn -0.7804 0.0210 -0.6249
s off
f 13//1 10//1 9//1 12//1
f 15//2 8//2 7//2 14//2
f 16//3 6//3 10//3 13//3
f 12//4 9//4 8//4 15//4
f 7//5 11//5 6//5
f 2//6 14//6 16//6 1//6
f 4//7 12//7 15//7 3//7
f 1//8 16//8 13//8 5//8
f 3//9 15//9 14//9 2//9
f 5//10 13//10 12//10 4//10
f 9//11 11//11 8//11
f 6//12 11//12 10//12
f 8//13 11//13 7//13
f 10//14 11//14 9//14
f 14//15 7//15 6//15 16//15
