# Blender v2.78 (sub 0) OBJ File: 'Low_Poly_Trees_Pack.blend'
# www.blender.org
g Pine_Tree_OneSided_s_08_Collider
v -0.020482 0.000000 -0.055533
v -0.039710 0.000000 0.030700
v 0.041005 0.000000 0.042830
v 0.053788 0.000000 -0.026126
v 0.039775 1.265562 0.031925
v 0.031099 1.265871 0.065585
v 0.072288 1.265710 0.077178
v 0.078321 1.265517 0.044694
vn -0.9721 0.0613 -0.2264
vn 0.3498 0.0468 -0.9356
vn -0.1910 -0.0191 0.9814
vn 0.9828 -0.0292 0.1824
vn 0.0046 1.0000 -0.0066
s off
f 2//1 6//1 5//1 1//1
f 1//2 5//2 8//2 4//2
f 3//3 7//3 6//3 2//3
f 4//4 8//4 7//4 3//4
f 6//5 7//5 8//5 5//5
