# Blender v2.78 (sub 0) OBJ File: 'Low_Poly_Trees_Pack.blend'
# www.blender.org
g Pine_Tree_OneSided_m_11_Collider
v -0.040380 0.000000 -0.178493
v -0.134112 0.000000 0.078085
v 0.108415 0.000000 0.147833
v 0.175420 0.000000 -0.058385
v 0.571143 4.496010 -0.103628
v 0.537649 4.520694 -0.010040
v 0.635974 4.462717 0.043487
v 0.662617 4.442644 -0.047969
v -0.039254 2.272860 0.112912
v 0.192708 2.272307 0.022005
v 0.027858 2.272379 -0.065612
v 0.143282 2.272609 0.174070
vn -0.9094 0.2150 -0.3561
vn 0.4633 -0.1284 -0.8768
vn -0.3499 0.1373 0.9267
vn 0.9321 -0.1916 0.3072
vn 0.5213 0.8526 -0.0368
vn 0.9509 -0.0182 0.3090
vn -0.2943 -0.0044 0.9557
vn 0.4788 0.0283 -0.8774
vn -0.9370 0.0449 -0.3464
s off
f 9//1 6//1 5//1 11//1
f 11//2 5//2 8//2 10//2
f 12//3 7//3 6//3 9//3
f 10//4 8//4 7//4 12//4
f 6//5 7//5 8//5 5//5
f 4//6 10//6 12//6 3//6
f 3//7 12//7 9//7 2//7
f 1//8 11//8 10//8 4//8
f 2//9 9//9 11//9 1//9
