# Blender v2.78 (sub 0) OBJ File: 'Low_Poly_Trees_Pack.blend'
# www.blender.org
g Pine_Tree_OneSided_s_01_Collider
v -0.019902 0.000000 -0.087971
v -0.066098 0.000000 0.038485
v 0.053433 0.000000 0.072860
v 0.086457 0.000000 -0.028775
v -0.007146 2.115912 0.025669
v -0.026946 2.116383 0.074797
v 0.032976 2.116137 0.100501
v 0.048549 2.115842 0.052624
vn -0.9358 0.0239 -0.3518
vn 0.4690 0.0434 -0.8821
vn -0.3175 -0.0129 0.9482
vn 0.9510 0.0052 0.3091
vn 0.0054 1.0000 -0.0059
s off
f 2//1 6//1 5//1 1//1
f 1//2 5//2 8//2 4//2
f 3//3 7//3 6//3 2//3
f 4//4 8//4 7//4 3//4
f 6//5 7//5 8//5 5//5
