# Blender v2.78 (sub 0) OBJ File: 'Low_Poly_Trees_Pack.blend'
# www.blender.org
g Pine_Tree_OneSided_m_01_Collider
v 0.000000 0.000000 -0.327751
v -0.309382 0.000000 -0.102972
v -0.191209 0.000000 0.260729
v 0.191209 0.000000 0.260729
v 0.309382 0.000000 -0.102972
v -0.002106 7.542197 -0.096083
v -0.123549 7.543199 -0.008167
v -0.077073 7.543598 0.134391
v 0.073097 7.542868 0.134581
v 0.119429 7.541989 -0.007859
vn -0.9508 0.0196 0.3092
vn 0.5875 0.0250 -0.8088
vn -0.0003 0.0167 0.9999
vn -0.5872 0.0247 -0.8091
vn 0.9508 0.0201 0.3090
vn 0.0049 1.0000 -0.0046
vn 0.0050 1.0000 -0.0045
s off
f 3//1 8//1 7//1 2//1
f 1//2 6//2 10//2 5//2
f 4//3 9//3 8//3 3//3
f 2//4 7//4 6//4 1//4
f 5//5 10//5 9//5 4//5
f 8//6 9//6 10//6
f 7//7 8//7 10//7 6//7
