# Blender v2.78 (sub 0) OBJ File: 'Low_Poly_Trees_Pack.blend'
# www.blender.org
g Pine_Tree_OneSided_s_09_Collider
v -0.020482 0.000000 -0.055533
v -0.039710 0.000000 0.030700
v 0.041005 0.000000 0.042830
v 0.053788 0.000000 -0.026126
v 0.141545 1.180353 0.008368
v 0.132204 1.181250 0.041838
v 0.172869 1.176554 0.054295
v 0.179570 1.176043 0.021945
v 0.018171 0.590625 0.036269
v 0.088603 0.588022 -0.002090
v 0.032456 0.590176 -0.023583
v 0.078861 0.588277 0.048563
vn -0.9516 0.1875 -0.2436
vn 0.3481 -0.0146 -0.9374
vn -0.2350 0.0322 0.9715
vn 0.9685 -0.1572 0.1933
vn 0.1117 0.9937 0.0060
vn 0.9806 -0.0653 0.1848
vn -0.1701 0.0044 0.9854
vn 0.3638 0.0172 -0.9313
vn -0.9699 0.0981 -0.2228
s off
f 9//1 6//1 5//1 11//1
f 11//2 5//2 8//2 10//2
f 12//3 7//3 6//3 9//3
f 10//4 8//4 7//4 12//4
f 6//5 7//5 8//5 5//5
f 4//6 10//6 12//6 3//6
f 3//7 12//7 9//7 2//7
f 1//8 11//8 10//8 4//8
f 2//9 9//9 11//9 1//9
