# Blender v2.78 (sub 0) OBJ File: 'Low_Poly_Trees_Pack.blend'
# www.blender.org
g Pine_Log_08_Collider
v 1.025831 0.207510 -0.188003
v 1.027491 0.403538 -0.030405
v 1.029966 0.314220 0.204719
v 1.029837 0.062992 0.192435
v 1.027281 -0.002959 -0.050281
v -1.013624 0.207510 -0.249086
v -1.031479 0.403538 -0.092493
v -1.058117 0.314220 0.141129
v -1.056725 0.062992 0.128924
v -1.029227 -0.002959 -0.112242
v -0.274732 0.039464 0.183559
v -0.260983 -0.026486 -0.058389
v -0.262109 0.380010 -0.038575
v -0.275428 0.290693 0.195804
v -0.253181 0.183983 -0.195675
vn -0.0474 -0.9646 0.2593
vn 0.0034 0.9342 0.3569
vn 0.0418 -0.5469 -0.8362
vn -0.0711 -0.0488 0.9963
vn 0.0737 0.6261 -0.7762
vn -0.0067 0.6259 -0.7799
vn -0.0059 -0.0488 0.9988
vn 0.0152 -0.5470 -0.8370
vn -0.0193 0.9346 0.3552
vn 0.0158 -0.9647 0.2629
vn -0.9936 0.0000 -0.1133
vn 0.9999 -0.0000 -0.0105
s off
f 12//1 11//1 9//1 10//1
f 14//2 13//2 7//2 8//2
f 15//3 12//3 10//3 6//3
f 11//4 14//4 8//4 9//4
f 13//5 15//5 6//5 7//5
f 2//6 1//6 15//6 13//6
f 4//7 3//7 14//7 11//7
f 1//8 5//8 12//8 15//8
f 3//9 2//9 13//9 14//9
f 5//10 4//10 11//10 12//10
f 7//11 6//11 8//11
f 9//11 8//11 6//11 10//11
f 2//12 3//12 1//12
f 4//12 5//12 1//12 3//12
