# Blender v2.78 (sub 0) OBJ File: 'Low_Poly_Trees_Pack.blend'
# www.blender.org
g Fir_Tree_OneSided_m_07_Collider
v -0.174575 0.000000 -0.173525
v -0.174575 0.000000 0.153889
v 0.187759 0.000000 0.153889
v 0.187759 0.000000 -0.173525
v 1.112037 5.520765 -0.099590
v 1.112037 5.521862 0.198444
v 1.441858 5.521500 0.198444
v 1.441858 5.520538 -0.099590
v 0.028706 2.760931 0.176166
v 0.374783 2.760269 -0.136558
v 0.028705 2.760382 -0.136558
v 0.374783 2.760750 0.176166
vn 0.9327 -0.3606 0.0009
vn -0.0000 -0.0081 1.0000
vn 0.0000 0.0134 -0.9999
vn -0.9309 0.3653 -0.0010
vn 0.0009 1.0000 -0.0035
vn -0.9973 0.0734 -0.0001
vn 0.9977 -0.0676 0.0001
s off
f 10//1 8//1 7//1 12//1
f 12//2 7//2 6//2 9//2
f 11//3 5//3 8//3 10//3
f 9//4 6//4 5//4 11//4
f 6//5 7//5 8//5 5//5
f 2//6 9//6 11//6 1//6
f 1//3 11//3 10//3 4//3
f 3//2 12//2 9//2 2//2
f 4//7 10//7 12//7 3//7
