# Blender v2.78 (sub 0) OBJ File: 'Low_Poly_Trees_Pack.blend'
# www.blender.org
g Fir_Tree_OneSided_m_08_Collider
v -0.191675 0.000000 -0.188977
v -0.191675 0.000000 0.169340
v 0.204859 0.000000 0.169340
v 0.204859 0.000000 -0.188977
v 0.206026 5.335253 -0.080539
v 0.206026 5.336210 0.179392
v 0.493681 5.335894 0.179392
v 0.493681 5.335055 -0.080539
vn 0.9985 -0.0541 0.0001
vn -0.0000 -0.0019 1.0000
vn 0.0000 0.0203 -0.9998
vn -0.9972 0.0743 -0.0001
vn 0.0009 1.0000 -0.0035
s off
f 4//1 8//1 7//1 3//1
f 3//2 7//2 6//2 2//2
f 1//3 5//3 8//3 4//3
f 2//4 6//4 5//4 1//4
f 6//5 7//5 8//5 5//5
