# Blender v2.78 (sub 0) OBJ File: 'Low_Poly_Trees_Pack.blend'
# www.blender.org
g Fir_Tree_OneSided_s_08_Collider
v -0.009860 0.000000 -0.055486
v -0.063582 0.000000 0.018092
v 0.017843 0.000000 0.077543
v 0.061700 0.000000 -0.003750
v -0.041312 1.004382 -0.026598
v -0.060076 1.004499 -0.000899
v -0.031636 1.004460 0.019865
v -0.012873 1.004357 -0.005833
vn 0.8611 0.0682 0.5039
vn -0.5896 0.0173 0.8075
vn 0.5865 0.0417 -0.8089
vn -0.8076 -0.0083 -0.5897
vn 0.0028 1.0000 -0.0023
s off
f 4//1 8//1 7//1 3//1
f 3//2 7//2 6//2 2//2
f 1//3 5//3 8//3 4//3
f 2//4 6//4 5//4 1//4
f 6//5 7//5 8//5 5//5
