# Blender v2.78 (sub 0) OBJ File: 'Low_Poly_Trees_Pack.blend'
# www.blender.org
g Fir_Tree_OneSided_m_10_Collider
v -0.100848 0.000000 -0.097544
v -0.100848 0.000000 0.089558
v 0.106210 0.000000 0.089558
v 0.106210 0.000000 -0.097544
v -0.066462 3.135342 -0.029790
v -0.066462 3.135802 0.095168
v 0.071824 3.135651 0.095168
v 0.071824 3.135247 -0.029790
vn 0.9999 0.0110 -0.0000
vn -0.0000 -0.0018 1.0000
vn 0.0000 0.0216 -0.9998
vn -0.9999 0.0110 -0.0000
vn 0.0009 1.0000 -0.0035
s off
f 4//1 8//1 7//1 3//1
f 3//2 7//2 6//2 2//2
f 1//3 5//3 8//3 4//3
f 2//4 6//4 5//4 1//4
f 6//5 7//5 8//5 5//5
