# Blender v2.78 (sub 0) OBJ File: 'Low_Poly_Trees_Pack.blend'
# www.blender.org
g Fir_Tree_OneSided_s_09_Collider
v -0.009860 0.000000 -0.055486
v -0.063582 0.000000 0.018092
v 0.017843 0.000000 0.077543
v 0.061700 0.000000 -0.003750
v 0.103715 1.004382 -0.026598
v 0.084952 1.004499 -0.000899
v 0.113391 1.004460 0.019865
v 0.132154 1.004357 -0.005833
vn 0.8617 -0.0562 0.5044
vn -0.5866 0.1019 0.8034
vn 0.5864 -0.0429 -0.8089
vn -0.8029 0.1076 -0.5863
vn 0.0028 1.0000 -0.0023
s off
f 4//1 8//1 7//1 3//1
f 3//2 7//2 6//2 2//2
f 1//3 5//3 8//3 4//3
f 2//4 6//4 5//4 1//4
f 6//5 7//5 8//5 5//5
