# Blender v2.78 (sub 0) OBJ File: 'Low_Poly_Trees_Pack.blend'
# www.blender.org
g Fir_Tree_OneSided_m_12_Collider
v -0.100848 0.000000 -0.097544
v -0.100848 0.000000 0.089558
v 0.106210 0.000000 0.089558
v 0.106210 0.000000 -0.097544
v -0.020094 1.865860 -0.154184
v -0.019999 1.866591 0.046137
v 0.199791 1.837653 0.046137
v 0.199707 1.837012 -0.154184
v 0.521913 3.490061 -0.049144
v 0.521981 3.490578 0.092682
v 0.677590 3.470090 0.092682
v 0.677531 3.469636 -0.049144
vn 0.9987 -0.0508 -0.0001
vn 0.0016 0.0234 0.9997
vn -0.0021 -0.0305 -0.9995
vn -0.9991 0.0433 0.0002
vn 0.0081 0.0618 -0.9981
vn 0.1303 0.9915 -0.0035
vn -0.0036 -0.0274 0.9996
vn 0.9597 -0.2809 0.0005
vn -0.9486 0.3166 -0.0007
s off
f 4//1 8//1 7//1 3//1
f 3//2 7//2 6//2 2//2
f 1//3 5//3 8//3 4//3
f 2//4 6//4 5//4 1//4
f 8//5 5//5 9//5 12//5
f 10//6 11//6 12//6 9//6
f 6//7 7//7 11//7 10//7
f 7//8 8//8 12//8 11//8
f 5//9 6//9 10//9 9//9
