# Blender v2.78 (sub 0) OBJ File: 'Low_Poly_Trees_Pack.blend'
# www.blender.org
g Fir_Tree_m_06_Collider
v -0.174575 0.000000 -0.173525
v -0.174575 0.000000 0.153889
v 0.187759 0.000000 0.153889
v 0.187759 0.000000 -0.173525
v 0.137336 5.520765 -0.099590
v 0.137336 5.521862 0.198444
v 0.467157 5.521500 0.198444
v 0.467157 5.520538 -0.099590
vn 0.9987 -0.0505 0.0001
vn -0.0000 -0.0081 1.0000
vn 0.0000 0.0134 -0.9999
vn -0.9984 0.0564 -0.0001
vn 0.0009 1.0000 -0.0035
s off
f 4//1 8//1 7//1 3//1
f 3//2 7//2 6//2 2//2
f 1//3 5//3 8//3 4//3
f 2//4 6//4 5//4 1//4
f 6//5 7//5 8//5 5//5
