# Blender v2.78 (sub 0) OBJ File: 'Low_Poly_Trees_Pack.blend'
# www.blender.org
g Fir_Tree_crk_s_03_Collider
v -0.004915 0.000000 -0.061075
v -0.064528 0.000000 0.015762
v 0.020587 0.000000 0.069517
v 0.065962 0.000000 -0.009580
v -0.049931 0.186023 0.010974
v 0.051002 0.185852 -0.011032
v -0.005103 0.185882 -0.053545
v 0.011282 0.185976 0.049019
v -0.688437 0.026799 -0.372386
v -0.704299 0.000469 -0.325201
v -0.717950 0.031927 -0.310639
v -0.708478 0.064137 -0.346817
v -0.181218 0.064851 -0.061330
v -0.190525 0.163733 -0.089746
v -0.162608 0.108781 -0.123748
v -0.208208 0.124808 -0.031816
vn 0.8500 0.0861 0.5197
vn -0.8038 0.0355 -0.5939
vn 0.5946 0.0374 -0.8031
vn -0.5303 0.0650 0.8453
vn -0.3317 -0.5253 0.7836
vn 0.2549 0.6144 -0.7467
vn 0.3291 -0.8386 -0.4341
vn -0.3962 0.7838 0.4782
vn 0.8911 0.2008 0.4070
vn 0.0014 1.0000 -0.0012
vn -0.8908 -0.1975 -0.4093
s off
f 4//1 6//1 8//1 3//1
f 2//2 5//2 7//2 1//2
f 1//3 7//3 6//3 4//3
f 2//4 3//4 8//4 5//4
f 13//5 16//5 11//5 10//5
f 15//6 9//6 12//6 14//6
f 13//7 10//7 9//7 15//7
f 14//8 12//8 11//8 16//8
f 14//9 16//9 13//9 15//9
f 6//10 7//10 5//10 8//10
f 10//11 11//11 12//11 9//11
