# Blender v2.78 (sub 0) OBJ File: 'Low_Poly_Trees_Pack.blend'
# www.blender.org
g Fir_Tree_m_04_Collider
v -0.215131 0.000000 -0.210173
v -0.215131 0.000000 0.190536
v 0.228315 0.000000 0.190536
v 0.228315 0.000000 -0.210173
v -0.061501 5.263248 -0.099590
v -0.061501 5.264345 0.198444
v 0.268319 5.263983 0.198444
v 0.268319 5.263021 -0.099590
vn 1.0000 -0.0076 0.0000
vn -0.0000 -0.0015 1.0000
vn 0.0000 0.0210 -0.9998
vn -0.9996 0.0292 -0.0000
vn 0.0009 1.0000 -0.0035
s off
f 4//1 8//1 7//1 3//1
f 3//2 7//2 6//2 2//2
f 1//3 5//3 8//3 4//3
f 2//4 6//4 5//4 1//4
f 6//5 7//5 8//5 5//5
