# Blender v2.78 (sub 0) OBJ File: 'Low_Poly_Trees_Pack.blend'
# www.blender.org
g Fir_Tree_crk_m_02_Collider
v -0.681461 0.915701 -0.474901
v -0.396380 0.886366 -0.700357
v -0.379008 0.584991 -0.635730
v -0.633747 0.579391 -0.431635
v -3.754015 -0.145323 -3.943907
v -3.476102 -0.153799 -4.167604
v -3.507902 -0.374965 -4.096383
v -3.697157 -0.364883 -3.945319
v 0.199186 -0.000000 -0.166334
v -0.250099 -0.000000 -0.148719
v -0.150879 -0.000000 0.218081
v 0.172454 -0.000000 0.172984
v 0.143853 0.666328 -0.111290
v -0.208985 0.666328 -0.136941
v -0.154711 0.666328 0.200092
v 0.128702 0.666328 0.166634
vn 0.1193 -0.9796 0.1615
vn 0.7578 -0.1837 -0.6261
vn -0.7356 -0.0878 0.6717
vn -0.0995 0.9734 -0.2066
vn -0.6218 -0.1569 -0.7673
vn 0.6162 0.1921 0.7638
vn 0.1284 0.0227 0.9915
vn -0.9766 0.0283 0.2130
vn 0.9952 0.0715 0.0675
vn 0.0100 0.0502 -0.9987
vn 0.0000 1.0000 -0.0000
s off
f 4//1 8//1 7//1 3//1
f 3//2 7//2 6//2 2//2
f 1//3 5//3 8//3 4//3
f 2//4 6//4 5//4 1//4
f 6//5 7//5 8//5 5//5
f 2//6 1//6 4//6 3//6
f 12//7 16//7 15//7 11//7
f 11//8 15//8 14//8 10//8
f 9//9 13//9 16//9 12//9
f 10//10 14//10 13//10 9//10
f 14//11 15//11 16//11 13//11
