# Blender v2.78 (sub 0) OBJ File: 'Low_Poly_Trees_Pack.blend'
# www.blender.org
g Fir_Tree_m_02_Collider
v -0.168257 0.000000 -0.164379
v -0.168257 0.000000 0.149021
v 0.178569 0.000000 0.149021
v 0.178569 0.000000 -0.164379
v -0.123823 5.281219 -0.091767
v -0.123823 5.282077 0.141330
v 0.134135 5.281794 0.141330
v 0.134135 5.281042 -0.091767
vn 1.0000 0.0084 -0.0000
vn 0.0000 0.0015 1.0000
vn 0.0000 0.0137 -0.9999
vn -1.0000 0.0084 -0.0000
vn 0.0009 1.0000 -0.0035
s off
f 4//1 8//1 7//1 3//1
f 3//2 7//2 6//2 2//2
f 1//3 5//3 8//3 4//3
f 2//4 6//4 5//4 1//4
f 6//5 7//5 8//5 5//5
