# Blender v2.78 (sub 0) OBJ File: 'Low_Poly_Trees_Pack.blend'
# www.blender.org
g Fir_Tree_s_01_Collider
v -0.070243 0.000000 -0.068624
v -0.070243 0.000000 0.062212
v 0.074547 0.000000 0.062212
v 0.074547 0.000000 -0.068624
v -0.060124 1.817968 -0.030031
v -0.060124 1.818383 0.082518
v 0.064429 1.818246 0.082518
v 0.064429 1.817883 -0.030031
vn 1.0000 0.0056 -0.0000
vn -0.0000 -0.0112 0.9999
vn 0.0000 0.0212 -0.9998
vn -1.0000 0.0056 -0.0000
vn 0.0009 1.0000 -0.0035
s off
f 4//1 8//1 7//1 3//1
f 3//2 7//2 6//2 2//2
f 1//3 5//3 8//3 4//3
f 2//4 6//4 5//4 1//4
f 6//5 7//5 8//5 5//5
