# Blender v2.78 (sub 0) OBJ File: 'Low_Poly_Trees_Pack.blend'
# www.blender.org
g Fir_Tree_m_09_Collider
v -0.087494 0.000000 -0.085477
v -0.087494 0.000000 0.077491
v 0.092856 0.000000 0.077491
v 0.092856 0.000000 -0.085477
v -0.087494 3.135287 -0.048795
v -0.087494 3.135887 0.114173
v 0.092856 3.135689 0.114173
v 0.092856 3.135163 -0.048795
vn 1.0000 -0.0000 0.0000
vn -0.0000 -0.0117 0.9999
vn 0.0000 0.0117 -0.9999
vn -1.0000 -0.0000 0.0000
vn 0.0009 1.0000 -0.0035
s off
f 4//1 8//1 7//1 3//1
f 3//2 7//2 6//2 2//2
f 1//3 5//3 8//3 4//3
f 2//4 6//4 5//4 1//4
f 6//5 7//5 8//5 5//5
