# Blender v2.78 (sub 0) OBJ File: 'Low_Poly_Trees_Pack.blend'
# www.blender.org
g Fir_Tree_crk_m_01_Collider
v 0.315349 0.891860 -0.079158
v 0.199387 0.862525 0.265303
v 0.149575 0.561150 0.220613
v 0.251758 0.555550 -0.089396
v 4.807751 0.330374 1.099451
v 4.664417 0.323127 1.539460
v 4.655367 0.050012 1.433412
v 4.749800 0.065963 1.149007
v -0.005321 -0.000000 -0.277163
v -0.168257 0.000000 0.238585
v 0.156581 0.000000 0.223958
v 0.256979 -0.000000 -0.086684
v 0.020088 0.554364 -0.203366
v -0.139731 0.554364 0.206720
v 0.138721 0.554364 0.219564
v 0.232187 0.554364 -0.050078
vn -0.0970 -0.9941 -0.0494
vn -0.2843 -0.2160 0.9341
vn 0.2457 -0.1127 -0.9628
vn 0.1002 0.9918 0.0794
vn 0.9409 -0.1492 0.3040
vn -0.9331 0.1921 -0.3040
vn 0.9481 0.0273 0.3168
vn 0.0030 0.0327 0.9995
vn 0.5849 0.0800 -0.8072
vn -0.9427 0.0583 -0.3286
vn 0.0000 1.0000 0.0000
s off
f 4//1 8//1 7//1 3//1
f 3//2 7//2 6//2 2//2
f 1//3 5//3 8//3 4//3
f 2//4 6//4 5//4 1//4
f 6//5 7//5 8//5 5//5
f 2//6 1//6 4//6 3//6
f 12//7 16//7 15//7 11//7
f 11//8 15//8 14//8 10//8
f 9//9 13//9 16//9 12//9
f 10//10 14//10 13//10 9//10
f 14//11 15//11 16//11 13//11
