# Blender v2.78 (sub 0) OBJ File: 'Low_Poly_Trees_Pack.blend'
# www.blender.org
g Fir_Tree_m_11_Collider
v -0.100848 0.000000 -0.097544
v -0.100848 0.000000 0.089558
v 0.106210 0.000000 0.089558
v 0.106210 0.000000 -0.097544
v 0.185026 3.135342 -0.116502
v 0.185026 3.135802 0.008456
v 0.323311 3.135651 0.008456
v 0.323311 3.135247 -0.116502
vn 0.9976 -0.0691 0.0001
vn 0.0000 0.0259 0.9997
vn -0.0000 -0.0060 -1.0000
vn -0.9959 0.0908 -0.0001
vn 0.0009 1.0000 -0.0035
s off
f 4//1 8//1 7//1 3//1
f 3//2 7//2 6//2 2//2
f 1//3 5//3 8//3 4//3
f 2//4 6//4 5//4 1//4
f 6//5 7//5 8//5 5//5
