# Blender v2.78 (sub 0) OBJ File: 'Low_Poly_Trees_Pack.blend'
# www.blender.org
g Fir_Tree_m_05_Collider
v -0.174575 0.000000 -0.173525
v -0.174575 0.000000 0.153889
v 0.187759 0.000000 0.153889
v 0.187759 0.000000 -0.173525
v -0.061501 4.526077 -0.099590
v -0.061501 4.527174 0.198444
v 0.268319 4.526812 0.198444
v 0.268319 4.525850 -0.099590
vn 0.9998 -0.0178 0.0000
vn -0.0000 -0.0098 1.0000
vn 0.0000 0.0163 -0.9999
vn -0.9997 0.0250 -0.0000
vn 0.0009 1.0000 -0.0035
s off
f 4//1 8//1 7//1 3//1
f 3//2 7//2 6//2 2//2
f 1//3 5//3 8//3 4//3
f 2//4 6//4 5//4 1//4
f 6//5 7//5 8//5 5//5
