# Blender v2.78 (sub 0) OBJ File: 'Low_Poly_Trees_Pack.blend'
# www.blender.org
g Fir_Tree_s_06_Collider
v -0.010726 0.000000 -0.058108
v -0.064861 0.000000 0.012198
v 0.022544 0.000000 0.064466
v 0.062382 0.000000 -0.014515
v 0.051866 0.920016 -0.050459
v 0.023863 0.920217 -0.003631
v 0.075685 0.920151 0.027359
v 0.103688 0.919975 -0.019469
vn 0.8796 -0.0343 0.4744
vn -0.5122 0.0641 0.8565
vn 0.5124 -0.0277 -0.8583
vn -0.8170 0.0646 -0.5730
vn 0.0025 1.0000 -0.0025
s off
f 4//1 8//1 7//1 3//1
f 3//2 7//2 6//2 2//2
f 1//3 5//3 8//3 4//3
f 2//4 6//4 5//4 1//4
f 6//5 7//5 8//5 5//5
