# Blender v2.78 (sub 0) OBJ File: 'Low_Poly_Trees_Pack.blend'
# www.blender.org
g Random_Tree_NoLeaves_s_01_Collider
v 0.000000 0.000000 -0.055975
v -0.055975 0.000000 0.000000
v 0.000000 0.000000 0.055975
v 0.055975 0.000000 -0.000000
v 0.043048 0.871528 0.000000
v -0.028085 1.718526 -0.006919
v -0.059541 3.099028 0.010404
v -0.065783 1.718526 -0.044616
v -0.000793 0.859263 -0.046836
v -0.046993 0.866955 0.000000
v -0.103480 1.718526 -0.006919
v -0.064485 1.721296 0.030734
v -0.000793 0.859263 0.046836
vn -0.7090 0.0071 -0.7052
vn -0.7112 -0.0524 -0.7011
vn -0.7068 0.0314 -0.7068
vn 0.7169 0.0094 0.6971
vn -0.7090 0.0071 0.7052
vn -0.7048 -0.0399 0.7083
vn 0.7169 0.0094 -0.6971
vn 0.7069 0.0250 -0.7069
vn 0.7198 0.0661 0.6910
vn 0.7146 0.0551 -0.6973
vn -0.6950 0.0131 0.7188
vn 0.7192 0.0077 0.6947
s off
f 2//1 10//1 9//1 1//1
f 10//2 11//2 8//2 9//2
f 11//3 7//3 8//3
f 4//4 5//4 13//4 3//4
f 3//5 13//5 10//5 2//5
f 13//6 12//6 11//6 10//6
f 1//7 9//7 5//7 4//7
f 8//8 7//8 6//8
f 13//9 5//9 6//9 12//9
f 5//10 9//10 8//10 6//10
f 11//11 12//11 7//11
f 12//12 6//12 7//12
