# Blender v2.78 (sub 0) OBJ File: 'Low_Poly_Trees_Pack.blend'
# www.blender.org
g Random_Tree_NoLeaves_crk_m_04_Collider
v 1.281475 1.741770 -0.703305
v 1.313208 1.811383 -0.748362
v 1.352206 1.832698 -0.609523
v 1.289509 1.768018 -0.611216
v 2.530829 0.622041 -1.193107
v 2.547829 0.658449 -1.214326
v 2.580277 0.653276 -1.148553
v 2.550883 0.618843 -1.152457
v 0.563105 2.580985 -0.152881
v 0.481808 2.499089 -0.148175
v 0.480450 2.572030 -0.335375
v 0.439079 2.489717 -0.261487
v 0.089791 2.866772 -0.002594
v 0.137426 3.004980 0.016537
v 0.165288 2.871531 -0.236582
v 0.037536 2.862083 -0.122294
v 0.148363 0.000000 -0.263504
v -0.204760 0.000000 -0.222529
v -0.274912 0.000000 0.125974
v 0.034856 0.000000 0.300384
v 0.296454 0.000000 0.059674
v -0.012609 2.316651 -0.123452
v -0.145968 2.343543 -0.123785
v -0.184840 2.294394 0.023021
v -0.066517 2.309324 0.097124
v 0.039928 2.323080 0.006598
v 0.064794 2.879305 0.014122
v 0.015822 2.880734 -0.107039
v -0.039149 2.819993 0.100229
v -0.119232 2.845004 -0.119649
vn 0.2869 -0.2629 0.9212
vn -0.5546 -0.7860 0.2734
vn 0.6019 0.7517 -0.2695
vn -0.5404 -0.2532 -0.8024
vn 0.1942 -0.2343 0.9526
vn -0.6218 -0.2749 -0.7333
vn -0.5902 -0.3766 -0.7141
vn 0.5655 0.7732 -0.2869
vn -0.5958 -0.7497 0.2881
vn 0.6021 0.7335 -0.3155
vn 0.1979 -0.1791 0.9637
vn 0.7191 -0.5686 -0.3995
vn -0.5875 -0.7671 0.2575
vn 0.9103 0.0895 -0.4042
vn -0.5027 0.0561 0.8626
vn 0.6642 0.0924 0.7418
vn -0.9768 0.0312 -0.2119
vn 0.6505 -0.0394 0.7585
vn -0.9372 0.0476 0.3456
vn 0.9268 -0.0361 -0.3738
vn -0.3117 0.9309 0.1901
vn 0.0476 0.0168 -0.9987
vn -0.2687 0.9326 0.2411
vn -0.8945 0.3473 -0.2815
vn -0.0781 0.9969 -0.0049
vn -0.0804 0.0492 -0.9955
s off
f 10//1 4//1 3//1 9//1
f 12//2 1//2 4//2 10//2
f 3//3 7//3 6//3 2//3
f 2//4 6//4 5//4 1//4
f 4//5 8//5 7//5 3//5
f 12//6 11//6 2//6 1//6
f 16//7 15//7 11//7 12//7
f 2//8 11//8 9//8 3//8
f 16//9 12//9 10//9 13//9
f 9//10 11//10 15//10 14//10
f 13//11 10//11 9//11 14//11
f 6//12 7//12 8//12 5//12
f 4//13 1//13 5//13 8//13
f 17//14 22//14 26//14 21//14
f 20//15 25//15 24//15 19//15
f 21//16 26//16 25//16 20//16
f 19//17 24//17 23//17 18//17
f 26//18 27//18 29//18 25//18
f 29//19 30//19 23//19 25//19
f 22//20 28//20 27//20 26//20
f 28//21 30//21 29//21 27//21
f 22//22 23//22 30//22 28//22
f 24//23 25//23 23//23
f 14//24 15//24 13//24
f 16//25 13//25 15//25
f 18//26 23//26 22//26 17//26
