# Blender v2.78 (sub 0) OBJ File: 'Low_Poly_Trees_Pack.blend'
# www.blender.org
g Random_Tree_m_02_Collider
v 0.374281 0.000000 -0.283429
v 0.293172 0.000000 -0.556012
v 0.008866 0.000000 -0.563105
v -0.085736 0.000000 -0.294907
v 0.488687 2.821877 -1.070808
v 0.467544 2.864035 -1.168893
v 0.348182 2.822042 -1.186095
v 0.307670 2.810045 -1.082018
v 0.546205 4.181252 -1.074384
v 0.527834 4.186051 -1.143915
v 0.456048 4.181358 -1.148361
v 0.430052 4.173660 -1.081577
v 0.491199 5.486213 -1.000000
v 0.278442 1.680934 -1.034061
v 0.227123 1.683202 -0.892878
v 0.470906 1.686749 -0.884010
v 0.430368 1.656165 -1.030895
v 0.197949 0.000000 0.332430
v 0.438190 0.000000 0.172512
v 0.360338 0.000000 -0.105389
v 0.071981 0.000000 -0.117223
v 0.553115 2.365719 0.590730
v 0.641959 2.408501 0.540987
v 0.623072 2.365887 0.420075
v 0.510038 2.353712 0.411796
v 0.431748 5.061677 0.731918
v 0.543155 1.330106 0.265387
v 0.390908 1.332408 0.257683
v 0.454962 1.336007 0.496805
v 0.585363 1.304971 0.413704
v -0.240775 0.000000 -0.371736
v -0.512534 0.000000 -0.174291
v -0.408732 0.000000 0.145181
v -0.072819 0.000000 0.145181
v -1.162779 3.333068 -0.189808
v -1.263728 3.382864 -0.127720
v -1.235992 3.333264 0.011995
v -1.104143 3.319093 0.016228
v -1.249605 6.480058 -0.162328
v -1.039241 1.985440 0.029943
v -0.861816 1.988119 0.031636
v -0.947720 1.992309 -0.243396
v -1.095406 1.956184 -0.140530
vn -0.9404 0.0562 -0.3355
vn -0.5667 -0.1519 -0.8098
vn -0.0621 0.0053 0.9981
vn 0.0071 -0.2735 -0.9619
vn -0.9366 0.0094 -0.3503
vn 0.9675 -0.0568 -0.2463
vn -0.0578 -0.0592 0.9966
vn 0.0822 -0.1258 -0.9886
vn -0.0525 0.1659 0.9847
vn 0.1086 0.0164 -0.9940
vn -0.9318 0.0837 -0.3531
vn -0.9529 0.1527 0.2621
vn -0.9324 0.0655 -0.3554
vn 0.9663 0.0551 -0.2515
vn 0.0542 0.1114 -0.9923
vn 0.9699 -0.0407 -0.2401
vn 0.0441 0.2617 -0.9641
vn 0.4968 -0.0231 0.8675
vn -0.9668 0.0728 0.2450
vn 0.9601 -0.0566 -0.2738
vn 0.0542 0.1431 -0.9882
vn 0.5190 -0.1253 0.8455
vn -0.9698 -0.0561 0.2372
vn 0.9751 -0.0333 -0.2191
vn 0.0598 0.1189 -0.9911
vn -0.5264 -0.0071 -0.8502
vn 0.9786 0.0908 -0.1849
vn -0.0036 0.0562 0.9984
vn 0.5242 -0.2071 0.8260
vn 0.9461 0.1659 -0.2780
vn -0.9094 -0.2735 0.3133
vn -0.0188 0.0094 0.9998
vn -0.5541 -0.0568 -0.8305
vn 0.9619 0.0289 -0.2718
vn -0.9597 -0.1258 0.2513
vn -0.0261 0.0552 0.9981
vn 0.8967 0.3381 -0.2857
vn -0.0289 0.3381 0.9407
vn -0.9804 0.0067 0.1970
vn 0.9522 -0.1519 -0.2651
s off
f 4//1 15//1 14//1 3//1
f 32//2 43//2 42//2 31//2
f 5//3 9//3 12//3 8//3
f 3//4 14//4 17//4 2//4
f 15//5 8//5 7//5 14//5
f 17//6 6//6 5//6 16//6
f 13//7 12//7 9//7
f 14//8 7//8 6//8 17//8
f 16//9 5//9 8//9 15//9
f 7//10 11//10 10//10 6//10
f 8//11 12//11 11//11 7//11
f 18//12 29//12 28//12 21//12
f 12//13 13//13 11//13
f 10//14 13//14 9//14
f 11//15 13//15 10//15
f 5//16 6//16 10//16 9//16
f 21//17 28//17 27//17 20//17
f 22//18 23//18 26//18
f 29//19 22//19 25//19 28//19
f 20//20 27//20 30//20 19//20
f 28//21 25//21 24//21 27//21
f 30//22 23//22 22//22 29//22
f 22//23 26//23 25//23
f 27//24 24//24 23//24 30//24
f 25//25 26//25 24//25
f 36//26 39//26 35//26
f 24//27 26//27 23//27
f 34//28 41//28 40//28 33//28
f 19//29 30//29 29//29 18//29
f 42//30 35//30 38//30 41//30
f 33//31 40//31 43//31 32//31
f 41//32 38//32 37//32 40//32
f 43//33 36//33 35//33 42//33
f 35//34 39//34 38//34
f 40//35 37//35 36//35 43//35
f 38//36 39//36 37//36
f 31//37 42//37 41//37 34//37
f 1//38 16//38 15//38 4//38
f 37//39 39//39 36//39
f 2//40 17//40 16//40 1//40
