# Blender v2.78 (sub 0) OBJ File: 'Low_Poly_Trees_Pack.blend'
# www.blender.org
g Random_Tree_NoLeaves_crk_m_05_Collider
v 0.000000 0.000000 -0.257668
v -0.245056 0.000000 -0.079624
v -0.151453 0.000000 0.208457
v 0.151453 0.000000 0.208457
v 0.245056 0.000000 -0.079624
v -0.032413 2.884180 -0.118429
v -0.128831 2.931741 -0.059127
v -0.102340 2.884367 0.074317
v 0.023592 2.870832 0.078361
v 0.066809 2.870717 -0.040763
v -0.037719 6.274534 -0.042663
vn 0.5968 0.0466 -0.8010
vn -0.0080 0.0458 0.9989
vn 0.9465 0.0555 0.3180
vn -0.9602 0.0327 0.2773
vn 0.6178 0.0185 -0.7861
vn -0.0283 0.0350 0.9990
vn 0.9397 0.0290 0.3409
vn -0.5172 0.0183 -0.8556
vn -0.9788 0.0257 0.2034
vn -0.5676 0.0308 -0.8227
s off
f 1//1 6//1 10//1 5//1
f 4//2 9//2 8//2 3//2
f 5//3 10//3 9//3 4//3
f 3//4 8//4 7//4 2//4
f 6//5 11//5 10//5
f 9//6 11//6 8//6
f 10//7 11//7 9//7
f 7//8 11//8 6//8
f 8//9 11//9 7//9
f 2//10 7//10 6//10 1//10
