# Blender v2.78 (sub 0) OBJ File: 'Low_Poly_Trees_Pack.blend'
# www.blender.org
g Random_Tree_NoLeaves_s_02_Collider
v 0.000000 0.000000 -0.055975
v -0.055975 0.000000 0.000000
v 0.000000 0.000000 0.055975
v 0.055975 0.000000 -0.000000
v 0.043048 0.871528 0.000000
v 0.011953 1.728775 0.044685
v -0.082124 3.099028 -0.058311
v -0.025465 1.728775 0.007268
v -0.000793 0.859263 -0.046836
v -0.046993 0.866955 0.000000
v -0.062882 1.728775 0.044685
v -0.024177 1.731524 0.082059
v -0.000793 0.859263 0.046836
vn -0.7090 0.0071 -0.7052
vn -0.7085 0.0236 -0.7053
vn -0.7057 -0.0630 -0.7057
vn 0.7169 0.0094 0.6971
vn -0.7090 0.0071 0.7052
vn -0.7048 -0.0486 0.7078
vn 0.7169 0.0094 -0.6971
vn 0.7071 -0.0046 -0.7071
vn 0.7256 -0.0089 0.6881
vn 0.7138 0.0630 -0.6975
vn -0.6956 0.0441 0.7171
vn 0.7190 0.1011 0.6876
s off
f 2//1 10//1 9//1 1//1
f 10//2 11//2 8//2 9//2
f 11//3 7//3 8//3
f 4//4 5//4 13//4 3//4
f 3//5 13//5 10//5 2//5
f 13//6 12//6 11//6 10//6
f 1//7 9//7 5//7 4//7
f 8//8 7//8 6//8
f 13//9 5//9 6//9 12//9
f 5//10 9//10 8//10 6//10
f 11//11 12//11 7//11
f 12//12 6//12 7//12
