# Blender v2.78 (sub 0) OBJ File: 'Low_Poly_Trees_Pack.blend'
# www.blender.org
g Random_Tree_m_01_Collider
v 0.197949 0.000000 0.332430
v 0.438190 0.000000 0.172512
v 0.360338 0.000000 -0.105389
v 0.071981 0.000000 -0.117223
v 0.553115 2.365719 0.590730
v 0.641959 2.408501 0.540987
v 0.623072 2.365887 0.420075
v 0.510038 2.353712 0.411796
v 0.431748 5.061677 0.731918
v 0.543155 1.330106 0.265387
v 0.390908 1.332408 0.257683
v 0.454962 1.336007 0.496805
v 0.585363 1.304971 0.413704
v -0.240775 0.000000 -0.371736
v -0.512534 0.000000 -0.174291
v -0.408732 0.000000 0.145181
v -0.072819 0.000000 0.145181
v -1.162779 3.333068 -0.189808
v -1.263728 3.382864 -0.127720
v -1.235992 3.333264 0.011995
v -1.104143 3.319093 0.016228
v -1.249605 6.480058 -0.162328
v -1.039241 1.985440 0.029943
v -0.861816 1.988119 0.031636
v -0.947720 1.992309 -0.243396
v -1.095406 1.956184 -0.140530
vn -0.5667 -0.1519 -0.8098
vn -0.9529 0.1527 0.2621
vn 0.0441 0.2617 -0.9641
vn 0.4968 -0.0231 0.8675
vn -0.9668 0.0728 0.2450
vn 0.9601 -0.0566 -0.2738
vn 0.0542 0.1431 -0.9882
vn 0.5190 -0.1253 0.8455
vn -0.9698 -0.0561 0.2372
vn 0.9751 -0.0333 -0.2191
vn 0.0598 0.1189 -0.9911
vn -0.5264 -0.0071 -0.8502
vn 0.9786 0.0908 -0.1849
vn -0.0036 0.0562 0.9984
vn 0.5242 -0.2071 0.8260
vn 0.9461 0.1659 -0.2780
vn -0.9094 -0.2735 0.3133
vn -0.0188 0.0094 0.9998
vn -0.5541 -0.0568 -0.8305
vn 0.9619 0.0289 -0.2718
vn -0.9597 -0.1258 0.2513
vn -0.0261 0.0552 0.9981
vn 0.8967 0.3381 -0.2857
vn -0.9804 0.0067 0.1970
s off
f 15//1 26//1 25//1 14//1
f 1//2 12//2 11//2 4//2
f 4//3 11//3 10//3 3//3
f 5//4 6//4 9//4
f 12//5 5//5 8//5 11//5
f 3//6 10//6 13//6 2//6
f 11//7 8//7 7//7 10//7
f 13//8 6//8 5//8 12//8
f 5//9 9//9 8//9
f 10//10 7//10 6//10 13//10
f 8//11 9//11 7//11
f 19//12 22//12 18//12
f 7//13 9//13 6//13
f 17//14 24//14 23//14 16//14
f 2//15 13//15 12//15 1//15
f 25//16 18//16 21//16 24//16
f 16//17 23//17 26//17 15//17
f 24//18 21//18 20//18 23//18
f 26//19 19//19 18//19 25//19
f 18//20 22//20 21//20
f 23//21 20//21 19//21 26//21
f 21//22 22//22 20//22
f 14//23 25//23 24//23 17//23
f 20//24 22//24 19//24
