# Blender v2.78 (sub 0) OBJ File: 'Low_Poly_Trees_Pack.blend'
# www.blender.org
g Random_Tree_NoLeaves_m_05_Collider
v 0.000000 0.000000 -0.331120
v -0.314914 0.000000 -0.102322
v -0.194627 0.000000 0.267882
v 0.194627 0.000000 0.267882
v 0.314914 0.000000 -0.102322
v -0.073230 2.884180 -0.118429
v -0.169648 2.931741 -0.059127
v -0.143157 2.884367 0.074317
v -0.017226 2.870832 0.078361
v 0.025991 2.870717 -0.040763
v -0.199827 7.149315 0.377301
vn 0.5947 0.0756 -0.8004
vn -0.0061 0.0662 0.9978
vn 0.9447 0.0894 0.3156
vn -0.9583 0.0397 0.2830
vn 0.6218 0.1086 -0.7756
vn -0.0397 -0.0713 0.9967
vn 0.9399 0.0163 0.3410
vn -0.4907 0.0862 -0.8670
vn -0.9823 -0.0262 0.1857
vn -0.5698 0.0432 -0.8206
s off
f 1//1 6//1 10//1 5//1
f 4//2 9//2 8//2 3//2
f 5//3 10//3 9//3 4//3
f 3//4 8//4 7//4 2//4
f 6//5 11//5 10//5
f 9//6 11//6 8//6
f 10//7 11//7 9//7
f 7//8 11//8 6//8
f 8//9 11//9 7//9
f 2//10 7//10 6//10 1//10
