# Blender v2.78 (sub 0) OBJ File: 'Low_Poly_Trees_Pack.blend'
# www.blender.org
g Random_Tree_m_04_Collider
v 0.000000 0.000000 -0.344810
v -0.327934 0.000000 -0.106552
v -0.202674 0.000000 0.278957
v 0.202674 0.000000 0.278957
v 0.327934 0.000000 -0.106552
v 0.065503 2.884180 -0.118429
v -0.030915 2.931741 -0.059127
v -0.004424 2.884367 0.074317
v 0.121507 2.870832 0.078361
v 0.164724 2.870717 -0.040763
v 0.213169 6.262102 -0.589625
vn 0.5949 0.0508 -0.8022
vn -0.0058 0.0704 0.9975
vn 0.9475 0.0478 0.3163
vn -0.9538 0.0890 0.2870
vn 0.5991 -0.1362 -0.7890
vn -0.0107 0.1935 0.9810
vn 0.9392 0.0417 0.3407
vn -0.5540 -0.0912 -0.8275
vn -0.9672 0.1076 0.2302
vn -0.5670 0.0740 -0.8204
s off
f 1//1 6//1 10//1 5//1
f 4//2 9//2 8//2 3//2
f 5//3 10//3 9//3 4//3
f 3//4 8//4 7//4 2//4
f 6//5 11//5 10//5
f 9//6 11//6 8//6
f 10//7 11//7 9//7
f 7//8 11//8 6//8
f 8//9 11//9 7//9
f 2//10 7//10 6//10 1//10
