# Blender v2.78 (sub 0) OBJ File: 'Low_Poly_Trees_Pack.blend'
# www.blender.org
g Random_Tree_m_08_Collider
v 0.000000 0.000000 -0.335160
v -0.318757 0.000000 -0.103570
v -0.197002 0.000000 0.271151
v 0.197002 0.000000 0.271150
v 0.318756 0.000000 -0.103570
v 0.024181 3.042432 -0.114441
v -0.081897 3.094758 -0.049197
v -0.052751 3.042638 0.097617
v 0.085797 3.027747 0.102066
v 0.133344 3.027620 -0.028993
v 0.248180 7.582735 0.001275
vn 0.5956 0.0548 -0.8014
vn -0.0068 0.0564 0.9984
vn 0.9470 0.0513 0.3170
vn -0.9568 0.0649 0.2833
vn 0.6155 -0.0103 -0.7881
vn -0.0296 0.0232 0.9993
vn 0.9397 -0.0260 0.3409
vn -0.5064 0.0469 -0.8610
vn -0.9735 0.0692 0.2178
vn -0.5666 0.0609 -0.8217
s off
f 1//1 6//1 10//1 5//1
f 4//2 9//2 8//2 3//2
f 5//3 10//3 9//3 4//3
f 3//4 8//4 7//4 2//4
f 6//5 11//5 10//5
f 9//6 11//6 8//6
f 10//7 11//7 9//7
f 7//8 11//8 6//8
f 8//9 11//9 7//9
f 2//10 7//10 6//10 1//10
