# Blender v2.78 (sub 0) OBJ File: 'Low_Poly_Trees_Pack.blend'
# www.blender.org
g Random_Tree_NoLeaves_m_08_Collider
v 0.000000 0.000000 -0.259481
v -0.246781 0.000000 -0.080184
v -0.152519 0.000000 0.209925
v 0.152519 0.000000 0.209925
v 0.246781 0.000000 -0.080184
v -0.017093 3.345750 -0.109633
v -0.101850 3.387559 -0.057502
v -0.078563 3.345914 0.059804
v 0.032139 3.334016 0.063358
v 0.070129 3.333914 -0.041359
v -0.074246 7.477708 -0.137417
vn 0.5959 0.0399 -0.8021
vn -0.0073 0.0443 0.9990
vn 0.9472 0.0473 0.3173
vn -0.9592 0.0365 0.2805
vn 0.6166 0.0032 -0.7872
vn -0.0269 0.0477 0.9985
vn 0.9393 0.0406 0.3407
vn -0.5285 -0.0130 -0.8488
vn -0.9801 0.0105 0.1983
vn -0.5694 0.0319 -0.8215
s off
f 1//1 6//1 10//1 5//1
f 4//2 9//2 8//2 3//2
f 5//3 10//3 9//3 4//3
f 3//4 8//4 7//4 2//4
f 6//5 11//5 10//5
f 9//6 11//6 8//6
f 10//7 11//7 9//7
f 7//8 11//8 6//8
f 8//9 11//9 7//9
f 2//10 7//10 6//10 1//10
