# Blender v2.78 (sub 0) OBJ File: 'Low_Poly_Trees_Pack.blend'
# www.blender.org
g Random_Tree_s_03_Collider
v 0.000000 0.000000 -0.066000
v -0.066000 0.000000 0.000000
v 0.000000 0.000000 0.066000
v 0.066000 0.000000 -0.000000
v 0.033430 0.256848 -0.066340
v -0.010940 0.256848 -0.021969
v 0.033430 0.256848 0.022401
v 0.077801 0.256848 -0.021969
v 0.010809 0.556777 -0.052718
v -0.033021 0.547699 -0.008740
v 0.010439 0.554588 0.035996
v 0.054269 0.563666 -0.007982
v -0.120761 0.933547 -0.013670
v -0.156874 0.935697 0.022625
v -0.120614 0.934051 0.058799
v -0.084502 0.931902 0.022504
v -0.082561 1.348200 -0.006508
v -0.126780 1.350832 0.032175
v -0.082381 1.348817 0.070711
v -0.038819 1.340310 0.031892
vn 0.7041 -0.0926 -0.7041
vn -0.6917 0.2074 0.6917
vn 0.7068 0.0280 0.7068
vn -0.7042 0.0907 -0.7042
vn 0.7062 0.0857 -0.7028
vn -0.7062 -0.0861 0.7028
vn 0.7064 0.0221 0.7075
vn -0.7064 -0.0213 -0.7075
vn 0.6860 0.1977 0.7002
vn -0.6915 -0.1662 -0.7030
vn 0.6682 0.3058 -0.6782
vn -0.6764 -0.2729 0.6841
vn 0.6774 -0.0543 -0.7336
vn -0.6782 0.0369 0.7340
vn 0.6771 -0.0879 0.7307
vn -0.6784 0.0706 -0.7313
vn 0.1187 0.9929 -0.0082
s off
f 1//1 5//1 8//1 4//1
f 3//2 7//2 6//2 2//2
f 4//3 8//3 7//3 3//3
f 2//4 6//4 5//4 1//4
f 8//5 5//5 9//5 12//5
f 6//6 7//6 11//6 10//6
f 7//7 8//7 12//7 11//7
f 5//8 6//8 10//8 9//8
f 11//9 12//9 16//9 15//9
f 9//10 10//10 14//10 13//10
f 12//11 9//11 13//11 16//11
f 10//12 11//12 15//12 14//12
f 16//13 13//13 17//13 20//13
f 14//14 15//14 19//14 18//14
f 15//15 16//15 20//15 19//15
f 13//16 14//16 18//16 17//16
f 18//17 19//17 20//17 17//17
