# Blender v2.78 (sub 0) OBJ File: 'Low_Poly_Trees_Pack.blend'
# www.blender.org
g Random_Tree_NoLeaves_crk_m_03_Collider
v 0.326597 0.000000 -0.152295
v -0.043917 0.000000 -0.357674
v -0.353739 0.000000 -0.068760
v -0.174706 0.000000 0.315178
v 0.245765 0.000000 0.263551
v -0.135077 0.407814 0.242299
v 0.198965 0.393389 0.199953
v -0.029274 0.473181 -0.288533
v -0.276136 0.457128 -0.059603
v 0.264355 0.433788 -0.128119
v 1.675198 0.116749 -1.010940
v 1.675043 0.452317 -0.979611
v 1.793740 0.500892 -0.774946
v 1.867252 0.195346 -0.679785
v 6.273322 0.143039 -2.729034
v 6.267281 0.268386 -2.720488
v 6.234119 0.287859 -2.643927
v 6.306815 0.166886 -2.629447
v 0.878056 0.023256 -0.692413
v 0.951597 0.514425 -0.323978
v 0.857812 0.451897 -0.641418
v 1.029804 0.124429 -0.178784
vn 0.4845 0.1147 -0.8673
vn -0.8914 0.1523 0.4270
vn 0.9705 0.1374 0.1982
vn -0.6775 0.1281 -0.7243
vn 0.1250 0.1677 0.9779
vn 0.0597 0.9892 0.1337
vn 0.4468 0.3777 0.8110
vn -0.3798 0.0891 -0.9208
vn -0.0767 0.9811 -0.1776
vn 0.3781 0.3499 0.8571
vn -0.9515 -0.0803 0.2969
vn 0.0777 -0.9783 0.1920
vn -0.0458 0.9740 -0.2217
vn 0.1680 -0.9759 0.1393
vn 0.8233 0.5215 0.2240
vn 0.9406 0.0680 -0.3326
vn -0.3501 0.0761 -0.9336
s off
f 2//1 8//1 10//1 1//1
f 4//2 6//2 9//2 3//2
f 1//3 10//3 7//3 5//3
f 3//4 9//4 8//4 2//4
f 5//5 7//5 6//5 4//5
f 9//6 6//6 7//6 10//6
f 8//6 9//6 10//6
f 22//7 14//7 13//7 20//7
f 21//8 12//8 11//8 19//8
f 20//9 13//9 12//9 21//9
f 14//10 18//10 17//10 13//10
f 20//11 21//11 19//11 22//11
f 14//12 11//12 15//12 18//12
f 13//13 17//13 16//13 12//13
f 19//14 11//14 14//14 22//14
f 17//15 18//15 16//15
f 15//16 16//16 18//16
f 12//17 16//17 15//17 11//17
