# Blender v2.78 (sub 0) OBJ File: 'Low_Poly_Trees_Pack.blend'
# www.blender.org
g Random_Tree_s_04_Collider
v 0.000000 0.000000 -0.066000
v -0.066000 0.000000 0.000000
v 0.000000 0.000000 0.066000
v 0.066000 0.000000 -0.000000
v 0.016164 0.414712 -0.046616
v -0.028207 0.414712 -0.002245
v 0.016164 0.414712 0.042125
v 0.060534 0.414712 -0.002245
v -0.031668 1.008970 -0.005761
v -0.059931 1.009949 0.022612
v -0.031563 1.009367 0.050890
v -0.003300 1.008388 0.022517
v -0.026034 1.351626 -0.006508
v -0.070254 1.354258 0.032175
v -0.025854 1.352243 0.070711
v 0.017708 1.343735 0.031892
vn 0.7071 0.0055 -0.7071
vn -0.7055 0.0681 0.7055
vn 0.7070 0.0131 0.7070
vn -0.7058 0.0605 -0.7058
vn 0.7072 0.0465 0.7055
vn 0.7032 0.1049 -0.7032
vn -0.7053 -0.0670 0.7057
vn 0.6777 -0.0173 -0.7351
vn -0.6766 -0.0360 0.7355
vn 0.6779 -0.0583 0.7329
vn -0.6790 0.0048 -0.7342
vn 0.1187 0.9929 -0.0082
vn -0.7077 -0.0083 -0.7065
s off
f 1//1 5//1 8//1 4//1
f 3//2 7//2 6//2 2//2
f 4//3 8//3 7//3 3//3
f 2//4 6//4 5//4 1//4
f 8//5 12//5 11//5 7//5
f 5//6 9//6 12//6 8//6
f 7//7 11//7 10//7 6//7
f 12//8 9//8 13//8 16//8
f 10//9 11//9 15//9 14//9
f 11//10 12//10 16//10 15//10
f 9//11 10//11 14//11 13//11
f 14//12 15//12 16//12 13//12
f 6//13 10//13 9//13 5//13
