# Blender v2.78 (sub 0) OBJ File: 'Low_Poly_Trees_Pack.blend'
# www.blender.org
g Pine_Firewood_06_Collider
v -0.280612 0.000000 0.126709
v -0.280612 0.077009 0.151400
v -0.280612 0.000000 0.044194
v -0.280612 0.038291 0.031441
v 0.280612 0.000000 0.126709
v 0.280612 0.077009 0.151400
v 0.280612 0.000000 0.044194
v 0.280612 0.038291 0.031441
v -0.303091 0.038291 -0.010301
v -0.303772 0.000000 -0.023035
v -0.309495 0.077009 -0.130089
v -0.308177 0.000000 -0.105433
v 0.257332 0.038291 -0.040261
v 0.256651 0.000000 -0.052996
v 0.250928 0.077009 -0.160049
v 0.252246 0.000000 -0.135393
vn -1.0000 0.0000 0.0000
vn 0.0000 -0.3160 -0.9488
vn 1.0000 -0.0000 0.0000
vn 0.0000 -0.3053 0.9523
vn 0.0000 -1.0000 0.0000
vn 0.0000 0.9517 -0.3072
vn 0.0506 -0.3160 0.9474
vn 0.9986 0.0000 -0.0534
vn -0.0508 -0.3053 -0.9509
vn 0.0164 0.9517 0.3067
vn -0.9986 -0.0000 0.0534
s off
f 1//1 2//1 4//1 3//1
f 3//2 4//2 8//2 7//2
f 7//3 8//3 6//3 5//3
f 5//4 6//4 2//4 1//4
f 3//5 7//5 5//5 1//5
f 8//6 4//6 2//6 6//6
f 14//5 10//5 12//5 16//5
f 14//7 13//7 9//7 10//7
f 16//8 15//8 13//8 14//8
f 12//9 11//9 15//9 16//9
f 9//10 13//10 15//10 11//10
f 10//11 9//11 11//11 12//11
