# Blender v2.78 (sub 0) OBJ File: 'Low_Poly_Trees_Pack.blend'
# www.blender.org
g Dead_Pine_Tree_l_04_Collider
v -0.070473 0.000000 -0.347582
v -0.332578 0.000000 -0.024634
v -0.098454 0.000000 0.326041
v 0.321852 0.000000 0.210250
v 0.308083 0.000000 -0.195566
v -0.043155 11.083607 -0.197488
v -0.150196 11.083607 -0.065303
v -0.057558 11.083607 0.077347
v 0.106736 11.083607 0.033324
v 0.115638 11.083607 -0.136533
v -0.117263 15.185802 0.136222
v 0.107233 3.629813 0.151906
v 0.121547 3.673176 -0.179429
v -0.364765 3.650885 -0.049309
v -0.231743 3.632488 0.242640
v -0.159533 3.558357 -0.309652
vn 0.9989 0.0007 0.0463
vn -0.8866 0.0288 0.4616
vn 0.3971 0.0066 -0.9177
vn 0.2587 0.0154 0.9658
vn -0.7766 0.0371 -0.6289
vn -0.7813 -0.0120 -0.6241
vn 0.2624 0.0314 0.9644
vn 0.3901 0.0217 -0.9205
vn -0.8684 -0.0124 0.4958
vn 0.9985 0.0549 0.0040
vn 0.2588 -0.0101 0.9659
vn 0.3572 0.0821 -0.9304
vn -0.8385 -0.0200 0.5445
vn 0.9972 0.0531 0.0523
vn -0.7799 0.0213 -0.6255
s off
f 13//1 10//1 9//1 12//1
f 15//2 8//2 7//2 14//2
f 16//3 6//3 10//3 13//3
f 12//4 9//4 8//4 15//4
f 7//5 11//5 6//5
f 2//6 14//6 16//6 1//6
f 4//7 12//7 15//7 3//7
f 1//8 16//8 13//8 5//8
f 3//9 15//9 14//9 2//9
f 5//10 13//10 12//10 4//10
f 9//11 11//11 8//11
f 6//12 11//12 10//12
f 8//13 11//13 7//13
f 10//14 11//14 9//14
f 14//15 7//15 6//15 16//15
