# Blender v2.78 (sub 0) OBJ File: 'Low_Poly_Trees_Pack.blend'
# www.blender.org
g Dead_Pine_Tree_crk_l_05_Collider
v -0.064126 0.000000 -0.316280
v -0.302627 0.000000 -0.022415
v -0.089587 0.000000 0.296678
v 0.292866 0.000000 0.191316
v 0.280338 0.000000 -0.177954
v -0.037758 13.086980 0.085924
v -0.022808 13.086980 -0.003050
v -0.143372 13.086980 0.028732
v -0.096610 13.086980 0.101535
v -0.084833 13.086980 -0.038389
vn 0.2643 0.0145 0.9643
vn 0.3928 0.0208 -0.9194
vn -0.8335 0.0079 0.5525
vn 0.9997 0.0242 0.0053
vn 0.0000 1.0000 0.0000
vn -0.7721 0.0121 -0.6354
s off
f 4//1 6//1 9//1 3//1
f 1//2 10//2 7//2 5//2
f 3//3 9//3 8//3 2//3
f 5//4 7//4 6//4 4//4
f 9//5 6//5 7//5
f 8//5 9//5 7//5
f 10//5 8//5 7//5
f 2//6 8//6 10//6 1//6
