# Blender v2.78 (sub 0) OBJ File: 'Low_Poly_Trees_Pack.blend'
# www.blender.org
g Dead_Pine_Tree_crk_l_02_Collider
v -0.064126 0.000000 -0.316280
v -0.302627 0.000000 -0.022415
v -0.089587 0.000000 0.296678
v 0.292866 0.000000 0.191316
v 0.280338 0.000000 -0.177954
v 0.110512 9.904909 0.059811
v 0.136609 9.904909 -0.095509
v -0.073858 9.904909 -0.040028
v 0.007775 9.904909 0.087064
v 0.028334 9.904909 -0.157199
vn 0.2636 0.0177 0.9645
vn 0.4041 0.0122 -0.9146
vn -0.8343 0.0201 0.5510
vn 0.9995 0.0165 0.0259
vn 0.0000 1.0000 -0.0000
vn -0.7698 0.0170 -0.6381
s off
f 4//1 6//1 9//1 3//1
f 1//2 10//2 7//2 5//2
f 3//3 9//3 8//3 2//3
f 5//4 7//4 6//4 4//4
f 9//5 6//5 7//5
f 8//5 9//5 7//5
f 10//5 8//5 7//5
f 2//6 8//6 10//6 1//6
