# Blender v2.78 (sub 0) OBJ File: 'Low_Poly_Trees_Pack.blend'
# www.blender.org
g Dead_Pine_Tree_crk_l_07_Collider
v -0.264801 0.000000 0.209536
v 0.122314 0.000000 0.293020
v 0.319261 0.000000 -0.056813
v 0.039924 0.000000 -0.363852
v -0.298749 0.000000 -0.177387
v -0.054162 3.419994 -0.300827
v -0.021750 3.440058 0.186631
v 0.168872 3.422541 -0.052059
v -0.331209 3.351959 0.124479
v 0.252789 3.441704 -0.044516
v 3.219544 2.421686 1.623296
v 3.364457 2.709525 1.647114
v 0.390735 3.800009 0.042344
v 0.176544 3.742309 0.379849
v 3.140094 2.693108 1.851849
v 3.143714 2.393547 1.770855
v 0.090197 3.388966 0.242570
v 10.566693 0.294257 5.662468
v -0.323855 2.024012 -0.173235
v -0.312011 2.382927 0.149068
v -0.026962 2.431294 -0.319047
vn -0.2026 0.0208 0.9790
vn 0.7440 0.0328 -0.6674
vn -0.1379 -0.9575 -0.2535
vn 0.1713 0.9493 0.2638
vn 0.4427 -0.1497 -0.8841
vn -0.5022 -0.2313 0.8332
vn -0.1731 -0.9469 -0.2711
vn -0.4939 -0.2187 0.8415
vn 0.4672 -0.0534 -0.8825
vn 0.1917 0.9396 0.2835
vn -0.4634 0.0002 -0.8862
vn 0.8350 0.0439 0.5486
vn -0.9973 -0.0154 0.0722
vn 0.7410 0.0332 -0.6707
vn -0.2078 0.0212 0.9779
vn -0.8449 -0.0218 -0.5344
vn -0.7934 0.4210 -0.4396
vn -0.1503 0.9882 -0.0307
vn -0.8170 0.3910 -0.4238
s off
f 7//1 9//1 20//1
f 21//2 6//2 8//2
f 11//3 18//3 16//3
f 18//4 12//4 15//4
f 12//5 18//5 11//5
f 16//6 18//6 15//6
f 10//7 11//7 16//7 17//7
f 17//8 16//8 15//8 14//8
f 13//9 12//9 11//9 10//9
f 15//10 12//10 13//10 14//10
f 5//11 19//11 21//11 4//11
f 3//12 8//12 7//12 2//12
f 1//13 20//13 19//13 5//13
f 4//14 21//14 8//14 3//14
f 2//15 7//15 20//15 1//15
f 21//16 20//16 9//16 6//16
f 19//17 20//17 21//17
f 7//18 8//18 6//18 9//18
f 10//19 17//19 14//19 13//19
