# Blender v2.78 (sub 0) OBJ File: 'Low_Poly_Trees_Pack.blend'
# www.blender.org
g Pine_Tree_crk_m_01_Collider
v 0.000000 0.000000 -0.327751
v -0.309382 0.000000 -0.102972
v -0.191209 0.000000 0.260729
v 0.191209 0.000000 0.260729
v 0.309382 0.000000 -0.102972
v 0.264141 0.626330 -0.066577
v 0.157753 0.774134 0.236575
v -0.247674 0.774161 -0.057985
v 0.002894 0.774207 -0.240033
v -0.151965 0.774118 0.236575
v 7.868834 0.038903 0.069231
v 7.880538 0.118815 0.127696
v 7.876575 0.088161 0.222501
v 7.862438 -0.010700 0.222627
v 7.857646 -0.041143 0.127901
v 0.846456 1.351694 -0.057982
v 0.896057 1.266515 0.177800
v 0.931192 0.837729 -0.056413
v 0.878988 1.143893 -0.202839
v 0.944140 0.931284 0.234246
vn 0.9498 0.0507 0.3086
vn -0.5852 0.0935 -0.8055
vn -0.0000 0.0312 0.9995
vn 0.5854 0.0891 -0.8058
vn -0.9495 0.0578 0.3085
vn 0.1564 0.9387 0.3073
vn -0.0384 -0.4718 -0.8808
vn 0.0176 0.1306 0.9913
vn 0.1228 0.5787 -0.8063
vn -0.1278 -0.9424 0.3091
vn -0.9882 -0.1275 0.0853
vn -0.9650 -0.2337 0.1186
vn -0.0001 1.0000 0.0002
vn 0.5749 0.7967 -0.1867
s off
f 5//1 6//1 7//1 4//1
f 2//2 8//2 9//2 1//2
f 4//3 7//3 10//3 3//3
f 1//4 9//4 6//4 5//4
f 3//5 10//5 8//5 2//5
f 17//6 13//6 12//6 16//6
f 19//7 11//7 15//7 18//7
f 20//8 14//8 13//8 17//8
f 16//9 12//9 11//9 19//9
f 18//10 15//10 14//10 20//10
f 19//11 18//11 20//11 17//11
f 16//12 19//12 17//12
f 9//13 8//13 10//13 7//13
f 6//14 9//14 7//14
