# Blender v2.78 (sub 0) OBJ File: 'Low_Poly_Trees_Pack.blend'
# www.blender.org
g Pine_Tree_crk_m_02_Collider
v 0.000000 0.000000 -0.380848
v -0.361940 0.000000 -0.117884
v -0.223691 0.000000 0.307602
v 0.223691 0.000000 0.307602
v 0.361940 0.000000 -0.117884
v -0.179033 1.201977 0.279357
v 0.002354 1.201721 -0.278832
v 0.298534 1.153767 -0.067660
v 0.185389 1.153922 0.280528
v 6.856344 0.167892 3.451125
v 6.817524 0.246476 3.563450
v 6.753039 0.160311 3.656835
v 6.752025 0.028467 3.602234
v 6.815860 0.033153 3.475093
v 0.405202 1.168355 -0.016811
v 0.240783 1.156671 0.306312
v 0.406788 1.711004 0.207215
v 0.507800 1.510952 -0.078055
v 0.241761 1.492047 0.444767
v -0.202604 0.567561 0.294265
v 0.001111 0.567441 -0.332677
v -0.336823 0.426578 -0.099346
vn 0.8806 -0.1872 0.4353
vn -0.9507 0.0281 -0.3089
vn -0.0001 0.0235 0.9997
vn 0.5864 0.0674 -0.8072
vn -0.1446 0.7754 0.6146
vn 0.4205 -0.2801 -0.8630
vn -0.4711 -0.3351 0.8159
vn 0.4068 0.8092 -0.4240
vn -0.1217 -0.9878 -0.0976
vn -0.9502 0.0425 0.3088
vn -0.0000 0.0235 0.9997
vn -0.5863 0.0696 -0.8071
vn 0.9503 0.0388 0.3088
vn -0.4680 0.8705 -0.1522
vn -0.8786 0.1844 -0.4404
vn 0.8806 -0.1871 0.4353
vn 0.1305 0.9906 0.0420
s off
f 11//1 12//1 10//1
f 20//2 6//2 7//2 21//2
f 9//3 6//3 20//3
f 21//4 7//4 8//4
f 19//5 12//5 11//5 17//5
f 18//6 10//6 14//6 15//6
f 16//7 13//7 12//7 19//7
f 17//8 11//8 10//8 18//8
f 15//9 14//9 13//9 16//9
f 3//10 20//10 22//10 2//10
f 1//4 21//4 8//4 5//4
f 4//11 9//11 20//11 3//11
f 2//12 22//12 21//12 1//12
f 5//13 8//13 9//13 4//13
f 21//14 22//14 20//14
f 17//15 18//15 19//15
f 16//15 19//15 18//15 15//15
f 13//16 14//16 10//16 12//16
f 8//17 7//17 6//17 9//17
