# Blender v2.78 (sub 0) OBJ File: 'Low_Poly_Trees_Pack.blend'
# www.blender.org
g Pine_Tree_crk_m_03_Collider
v 0.063700 0.000000 -0.186048
v -0.155608 0.000000 -0.118582
v -0.159213 0.000000 0.110840
v 0.057866 0.000000 0.185165
v 0.195634 0.000000 0.001678
v 0.162879 0.375798 0.013545
v 0.043569 0.464480 0.164952
v -0.129322 0.464497 -0.081051
v 0.048294 0.464524 -0.135692
v -0.132242 0.464471 0.104756
v 4.101632 0.074117 2.094618
v 4.100800 0.123797 2.140218
v 4.086289 0.096564 2.200192
v 4.078164 0.030051 2.191659
v 4.087641 0.016178 2.126410
v 0.522582 0.797576 0.223763
v 0.439940 0.723244 0.352342
v 0.487046 0.457116 0.170434
v 0.565894 0.666518 0.124783
v 0.390809 0.500401 0.344155
v 2.362438 0.393097 1.442070
v 2.313862 0.342314 1.536346
v 2.338091 0.169058 1.408502
v 2.384510 0.302728 1.369780
v 2.285234 0.197636 1.527987
vn 0.7987 0.0507 0.5997
vn -0.2928 0.0935 -0.9516
vn -0.3238 0.0312 0.9456
vn 0.8149 0.0891 -0.5727
vn -0.9982 0.0578 -0.0157
vn -0.0384 0.8979 0.4385
vn 0.3108 -0.4130 -0.8560
vn -0.3503 -0.0139 0.9365
vn 0.3711 0.6328 -0.6796
vn -0.1548 -0.9730 0.1713
vn -0.8344 0.2026 -0.5125
vn -0.8611 0.0929 -0.4998
vn -0.0001 1.0000 0.0001
vn 0.6044 0.7967 0.0096
vn -0.2298 -0.9658 0.1198
vn 0.5261 0.6120 -0.5904
vn -0.5213 0.0720 0.8504
vn 0.4747 -0.3698 -0.7987
vn -0.0979 0.8913 0.4427
s off
f 5//1 6//1 7//1 4//1
f 2//2 8//2 9//2 1//2
f 4//3 7//3 10//3 3//3
f 1//4 9//4 6//4 5//4
f 3//5 10//5 8//5 2//5
f 22//6 13//6 12//6 21//6
f 24//7 11//7 15//7 23//7
f 25//8 14//8 13//8 22//8
f 21//9 12//9 11//9 24//9
f 23//10 15//10 14//10 25//10
f 19//11 18//11 20//11 17//11
f 16//12 19//12 17//12
f 9//13 8//13 10//13 7//13
f 6//14 9//14 7//14
f 18//15 23//15 25//15 20//15
f 16//16 21//16 24//16 19//16
f 20//17 25//17 22//17 17//17
f 19//18 24//18 23//18 18//18
f 17//19 22//19 21//19 16//19
