# Blender v2.78 (sub 0) OBJ File: 'Low_Poly_Trees_Pack.blend'
# www.blender.org
g Pine_Tree_l_05_Collider
v -0.070473 0.000000 -0.347582
v -0.332578 0.000000 -0.024634
v -0.098454 0.000000 0.326041
v 0.321852 0.000000 0.210250
v 0.308083 0.000000 -0.195566
v 0.520338 11.037509 -0.237899
v 0.382345 11.037509 -0.067493
v 0.501770 11.037509 0.116405
v 0.713571 11.037509 0.059653
v 0.725046 11.037509 -0.159319
v 1.657500 16.898912 -0.075286
v 0.222479 3.629813 0.133265
v 0.236793 3.673176 -0.198070
v -0.249519 3.650885 -0.067951
v -0.116497 3.632488 0.223998
v -0.044287 3.558357 -0.328293
vn 0.9970 -0.0660 0.0415
vn -0.8795 0.0777 0.4696
vn 0.3989 -0.0203 -0.9168
vn 0.2586 -0.0076 0.9659
vn -0.7664 0.1659 -0.6206
vn -0.7796 0.0097 -0.6262
vn 0.2625 0.0280 0.9645
vn 0.3927 0.0046 -0.9197
vn -0.8679 0.0177 0.4964
vn 0.9997 0.0234 0.0021
vn 0.2588 -0.0194 0.9657
vn 0.3580 -0.0436 -0.9327
vn -0.8249 0.1802 0.5357
vn 0.9861 -0.1576 0.0517
vn -0.7734 0.0661 -0.6305
s off
f 13//1 10//1 9//1 12//1
f 15//2 8//2 7//2 14//2
f 16//3 6//3 10//3 13//3
f 12//4 9//4 8//4 15//4
f 7//5 11//5 6//5
f 2//6 14//6 16//6 1//6
f 4//7 12//7 15//7 3//7
f 1//8 16//8 13//8 5//8
f 3//9 15//9 14//9 2//9
f 5//10 13//10 12//10 4//10
f 9//11 11//11 8//11
f 6//12 11//12 10//12
f 8//13 11//13 7//13
f 10//14 11//14 9//14
f 14//15 7//15 6//15 16//15
