# Blender v2.78 (sub 0) OBJ File: 'Low_Poly_Trees_Pack.blend'
# www.blender.org
g Pine_Tree_m_07_Collider
v -0.040380 0.000000 -0.178493
v -0.134112 0.000000 0.078085
v 0.108415 0.000000 0.147833
v 0.175420 0.000000 -0.058385
v -0.028766 4.344147 -0.002754
v -0.069258 4.345110 0.097716
v 0.053285 4.344608 0.150283
v 0.085134 4.344004 0.052371
vn -0.9359 0.0161 -0.3519
vn 0.4691 0.0333 -0.8825
vn -0.3177 -0.0021 0.9482
vn 0.9510 0.0119 0.3091
vn 0.0054 1.0000 -0.0059
s off
f 2//1 6//1 5//1 1//1
f 1//2 5//2 8//2 4//2
f 3//3 7//3 6//3 2//3
f 4//4 8//4 7//4 3//4
f 6//5 7//5 8//5 5//5
