# Blender v2.78 (sub 0) OBJ File: 'Low_Poly_Trees_Pack.blend'
# www.blender.org
g Pine_Tree_s_05_Collider
v -0.021178 0.000000 -0.093613
v -0.070337 0.000000 0.040953
v 0.056860 0.000000 0.077533
v 0.092001 0.000000 -0.030621
v 0.433615 2.314452 -0.052473
v 0.415679 2.330661 -0.013097
v 0.458497 2.308436 0.017029
v 0.473273 2.294369 -0.021862
v 0.043032 1.145353 0.048654
v 0.164369 1.145066 0.001070
v 0.078146 1.145103 -0.044768
v 0.138512 1.145223 0.080620
vn -0.8845 0.2621 -0.3858
vn 0.4950 -0.1531 -0.8553
vn -0.3824 0.1613 0.9098
vn 0.9104 -0.2348 0.3405
vn 0.5175 0.8483 -0.1119
vn 0.9488 -0.0685 0.3084
vn -0.2941 0.0205 0.9555
vn 0.4791 -0.0050 -0.8778
vn -0.9337 0.0952 -0.3452
s off
f 9//1 6//1 5//1 11//1
f 11//2 5//2 8//2 10//2
f 12//3 7//3 6//3 9//3
f 10//4 8//4 7//4 12//4
f 6//5 7//5 8//5 5//5
f 4//6 10//6 12//6 3//6
f 3//7 12//7 9//7 2//7
f 1//8 11//8 10//8 4//8
f 2//9 9//9 11//9 1//9
