# Blender v2.78 (sub 0) OBJ File: 'Low_Poly_Trees_Pack.blend'
# www.blender.org
g Pine_Tree_l_02_Collider
v -0.063449 0.000000 -0.312936
v -0.299428 0.000000 -0.022178
v -0.088640 0.000000 0.293542
v 0.289771 0.000000 0.189293
v 0.277375 0.000000 -0.176073
v 0.005999 17.105274 -0.030356
vn -0.8316 0.0151 0.5552
vn 0.3726 0.0138 -0.9279
vn 0.9993 0.0161 -0.0339
vn 0.2656 0.0168 0.9639
vn -0.7764 0.0136 -0.6301
s off
f 3//1 6//1 2//1
f 1//2 6//2 5//2
f 5//3 6//3 4//3
f 4//4 6//4 3//4
f 2//5 6//5 1//5
