# Blender v2.78 (sub 0) OBJ File: 'Low_Poly_Trees_Pack.blend'
# www.blender.org
g Acacia_Log_08_Collider
v 1.019677 0.206265 -0.186875
v 1.021326 0.401117 -0.030222
v 1.023787 0.312335 0.203490
v 1.023658 0.062614 0.191280
v 1.021118 -0.002941 -0.049979
v -1.007543 0.206265 -0.247591
v -1.025290 0.401117 -0.091938
v -1.051768 0.312335 0.140283
v -1.050385 0.062614 0.128150
v -1.023052 -0.002941 -0.111569
v -0.273083 0.039228 0.182458
v -0.259417 -0.026327 -0.058038
v -0.260536 0.377730 -0.038344
v -0.273775 0.288949 0.194629
v -0.251662 0.182879 -0.194501
vn -0.0474 -0.9646 0.2593
vn 0.0034 0.9342 0.3569
vn 0.0418 -0.5469 -0.8362
vn -0.0711 -0.0488 0.9963
vn 0.0737 0.6261 -0.7762
vn -0.0067 0.6259 -0.7799
vn -0.0059 -0.0488 0.9988
vn 0.0152 -0.5470 -0.8370
vn -0.0193 0.9346 0.3552
vn 0.0158 -0.9647 0.2629
vn -0.9936 0.0000 -0.1133
vn 0.9999 -0.0000 -0.0105
s off
f 12//1 11//1 9//1 10//1
f 14//2 13//2 7//2 8//2
f 15//3 12//3 10//3 6//3
f 11//4 14//4 8//4 9//4
f 13//5 15//5 6//5 7//5
f 2//6 1//6 15//6 13//6
f 4//7 3//7 14//7 11//7
f 1//8 5//8 12//8 15//8
f 3//9 2//9 13//9 14//9
f 5//10 4//10 11//10 12//10
f 7//11 6//11 8//11
f 9//11 8//11 6//11 10//11
f 2//12 3//12 1//12
f 4//12 5//12 1//12 3//12
