# Blender v2.78 (sub 0) OBJ File: 'Low_Poly_Trees_Pack.blend'
# www.blender.org
g Oak_Firewood_04_Collider
v -0.279696 0.000000 0.066282
v -0.279696 0.125297 0.066282
v -0.279696 0.000000 -0.066032
v -0.279696 0.125297 -0.066032
v 0.335486 0.000000 0.136977
v 0.335486 0.125297 0.136977
v 0.355430 0.000000 0.006176
v 0.355430 0.125297 0.006176
v 0.005285 -0.000000 -0.062759
v 0.005285 0.125297 -0.062759
v 0.059168 0.000000 0.103681
v 0.059168 0.125297 0.103681
v 0.084940 0.125297 -0.025712
v 0.004256 0.125297 0.069172
v 0.084940 0.000000 -0.025712
v 0.004256 -0.000000 0.069172
vn -1.0000 0.0000 0.0000
vn 0.1171 0.0000 -0.9931
vn 0.9886 0.0000 0.1507
vn -0.0102 0.0000 0.9999
vn 0.0000 -1.0000 0.0000
vn 0.0000 1.0000 0.0000
vn -0.1196 0.0000 0.9928
vn 0.0115 0.0000 -0.9999
vn -0.9807 -0.0000 -0.1953
vn 1.0000 -0.0000 0.0078
s off
f 1//1 2//1 4//1 3//1
f 15//2 13//2 8//2 7//2
f 7//3 8//3 6//3 5//3
f 16//4 14//4 2//4 1//4
f 15//5 7//5 5//5 11//5
f 10//6 4//6 2//6 14//6
f 8//6 13//6 12//6 6//6
f 3//5 9//5 16//5 1//5
f 5//7 6//7 12//7 11//7
f 3//8 4//8 10//8 9//8
f 11//9 12//9 13//9 15//9
f 14//10 16//10 9//10 10//10
