# Blender v2.78 (sub 0) OBJ File: 'Low_Poly_Trees_Pack.blend'
# www.blender.org
g Oak_Firewood_05_Collider
v -0.279696 0.000000 0.041060
v -0.279696 0.078130 0.066282
v -0.279696 0.000000 -0.041793
v -0.279696 0.039478 -0.053257
v 0.281528 0.000000 0.041060
v 0.281528 0.078130 0.066282
v 0.281528 0.000000 -0.041793
v 0.281528 0.039478 -0.053257
vn -1.0000 -0.0000 0.0000
vn 0.0000 -0.2789 -0.9603
vn 1.0000 -0.0000 0.0000
vn 0.0000 -0.3072 0.9516
vn 0.0000 -1.0000 0.0000
vn 0.0000 0.9515 -0.3077
s off
f 1//1 2//1 4//1 3//1
f 3//2 4//2 8//2 7//2
f 7//3 8//3 6//3 5//3
f 5//4 6//4 2//4 1//4
f 3//5 7//5 5//5 1//5
f 8//6 4//6 2//6 6//6
