# Blender v2.78 (sub 0) OBJ File: 'Low_Poly_Trees_Pack.blend'
# www.blender.org
g Simple_Log_07_Collider
v 1.193932 0.206259 -0.197653
v 1.204434 0.407780 -0.035970
v 1.220102 0.315959 0.205248
v 1.219284 0.057691 0.192645
v 1.203110 -0.010108 -0.056361
v -1.197229 0.159420 -0.200399
v -1.210736 0.307723 -0.081930
v -1.230889 0.240151 0.094815
v -1.229836 0.050086 0.085581
v -1.209033 0.000191 -0.096871
v 0.014502 0.048386 0.185778
v 0.007089 -0.012663 -0.038428
v 0.007696 0.363625 -0.020068
v 0.014877 0.280945 0.197125
v 0.002882 0.182165 -0.165648
vn -0.0226 -0.9647 0.2624
vn -0.0602 0.9333 0.3540
vn 0.0345 -0.5462 -0.8369
vn -0.0802 -0.0486 0.9956
vn 0.0108 0.6252 -0.7804
vn -0.0335 0.6262 -0.7789
vn -0.0053 -0.0487 0.9988
vn -0.0114 -0.5470 -0.8371
vn -0.0296 0.9337 0.3569
vn 0.0060 -0.9649 0.2624
vn -0.9936 0.0000 -0.1133
vn 0.9979 -0.0000 -0.0648
s off
f 12//1 11//1 9//1 10//1
f 14//2 13//2 7//2 8//2
f 15//3 12//3 10//3 6//3
f 11//4 14//4 8//4 9//4
f 13//5 15//5 6//5 7//5
f 2//6 1//6 15//6 13//6
f 4//7 3//7 14//7 11//7
f 1//8 5//8 12//8 15//8
f 3//9 2//9 13//9 14//9
f 5//10 4//10 11//10 12//10
f 7//11 6//11 8//11
f 9//11 8//11 6//11 10//11
f 2//12 3//12 1//12
f 4//12 5//12 1//12 3//12
