# Blender v2.78 (sub 0) OBJ File: 'Low_Poly_Trees_Pack.blend'
# www.blender.org
g Simple_Log_06_Collider
v 0.937675 0.206257 -0.200342
v 0.937675 0.409575 -0.036873
v 0.937675 0.316936 0.207008
v 0.937675 0.056364 0.194267
v 0.937675 -0.012039 -0.057490
v -0.816498 0.171010 -0.216904
v -0.825764 0.324894 -0.093528
v -0.839589 0.254778 0.090538
v -0.838866 0.057561 0.080922
v -0.824595 0.005789 -0.109088
v -0.076289 0.050500 0.167599
v -0.039942 -0.009092 -0.048338
v -0.042919 0.358215 -0.030655
v -0.078129 0.277508 0.178527
v -0.019318 0.181086 -0.170865
v -0.482703 0.055892 0.096132
v -0.476168 0.332409 -0.092798
v -0.475585 -0.000177 -0.109649
v -0.483064 0.269477 0.106547
v -0.471546 0.178756 -0.226415
vn -0.0159 -0.9649 0.2621
vn -0.0374 0.9447 0.3258
vn -0.0108 -0.5462 -0.8376
vn -0.0428 -0.0488 0.9979
vn -0.0238 0.6404 -0.7677
vn -0.0390 0.6219 -0.7821
vn -0.0260 -0.0486 0.9985
vn -0.0105 -0.5444 -0.8388
vn -0.0464 0.9342 0.3538
vn -0.0009 -0.9645 0.2639
vn -0.9972 0.0000 -0.0749
vn 1.0000 0.0000 -0.0000
vn 0.0813 0.6397 -0.7643
vn -0.1737 -0.0485 0.9836
vn 0.1054 -0.5459 -0.8312
vn -0.0896 0.9424 0.3221
vn -0.0572 -0.9643 0.2586
s off
f 18//1 16//1 9//1 10//1
f 19//2 17//2 7//2 8//2
f 20//3 18//3 10//3 6//3
f 16//4 19//4 8//4 9//4
f 17//5 20//5 6//5 7//5
f 2//6 1//6 15//6 13//6
f 4//7 3//7 14//7 11//7
f 1//8 5//8 12//8 15//8
f 3//9 2//9 13//9 14//9
f 5//10 4//10 11//10 12//10
f 7//11 6//11 8//11
f 9//11 8//11 6//11 10//11
f 2//12 3//12 1//12
f 4//12 5//12 1//12 3//12
f 13//13 15//13 20//13 17//13
f 11//14 14//14 19//14 16//14
f 15//15 12//15 18//15 20//15
f 14//16 13//16 17//16 19//16
f 12//17 11//17 16//17 18//17
