# Blender v2.78 (sub 0) OBJ File: 'Low_Poly_Trees_Pack.blend'
# www.blender.org
g Simple_Log_05_Collider
v 1.084156 0.158201 -0.149121
v 1.084156 0.302527 -0.033082
v 1.084156 0.236767 0.140038
v 1.084156 0.051799 0.130993
v 1.084156 0.003243 -0.047717
v -1.077712 0.206265 -0.242994
v -1.095459 0.401117 -0.087341
v -1.121937 0.312335 0.144879
v -1.120554 0.062614 0.132747
v -1.093221 -0.002941 -0.106972
v 0.090963 0.048688 0.185229
v 0.067273 -0.010552 -0.031156
v 0.069213 0.354580 -0.013436
v 0.092162 0.274352 0.196180
v 0.053831 0.178500 -0.153938
vn -0.0230 -0.9643 0.2637
vn 0.0144 0.9339 0.3573
vn 0.0518 -0.5444 -0.8373
vn -0.0437 -0.0485 0.9979
vn 0.0754 0.6225 -0.7790
vn 0.0164 0.6245 -0.7809
vn 0.0546 -0.0487 0.9973
vn -0.0065 -0.5461 -0.8377
vn 0.0550 0.9340 0.3530
vn 0.0174 -0.9649 0.2622
vn -0.9936 0.0000 -0.1133
vn 1.0000 0.0000 0.0000
s off
f 12//1 11//1 9//1 10//1
f 14//2 13//2 7//2 8//2
f 15//3 12//3 10//3 6//3
f 11//4 14//4 8//4 9//4
f 13//5 15//5 6//5 7//5
f 2//6 1//6 15//6 13//6
f 4//7 3//7 14//7 11//7
f 1//8 5//8 12//8 15//8
f 3//9 2//9 13//9 14//9
f 5//10 4//10 11//10 12//10
f 7//11 6//11 8//11
f 9//11 8//11 6//11 10//11
f 2//12 3//12 1//12
f 4//12 5//12 1//12 3//12
