# Blender v2.78 (sub 0) OBJ File: 'Low_Poly_Trees_Pack.blend'
# www.blender.org
g Simple_Log_01_Collider
v 1.143271 0.136160 -0.199668
v 1.143271 0.245089 -0.056799
v 1.143271 0.142874 0.090948
v 1.143271 -0.029228 0.039392
v 1.143271 -0.033377 -0.140219
v -1.438503 0.087126 -0.062936
v -1.433269 0.132941 -0.003073
v -1.427857 0.085397 0.062685
v -1.429746 0.020015 0.029526
v -1.413119 0.020020 -0.046431
vn -0.0429 -0.3095 -0.9499
vn -0.0064 -0.3359 0.9419
vn -0.0472 0.7946 -0.6053
vn -0.0198 -0.9997 0.0149
vn -0.9000 -0.3889 -0.1970
vn -0.9963 -0.0139 0.0842
vn -0.9964 0.0034 0.0845
vn 1.0000 0.0000 -0.0000
vn -0.0241 0.8182 0.5745
s off
f 1//1 5//1 10//1 6//1
f 4//2 3//2 8//2 9//2
f 2//3 1//3 6//3 7//3
f 5//4 4//4 9//4 10//4
f 10//5 9//5 6//5
f 8//6 6//6 9//6
f 7//7 6//7 8//7
f 2//8 3//8 1//8
f 4//8 5//8 1//8 3//8
f 3//9 2//9 7//9 8//9
