# Blender v2.78 (sub 0) OBJ File: 'Low_Poly_Trees_Pack.blend'
# www.blender.org
g Simple_Log_02_Collider
v 0.617867 0.130448 -0.136307
v 0.617867 0.219558 -0.019433
v 0.617867 0.135941 0.101432
v 0.617867 -0.004848 0.059256
v 0.617867 -0.008243 -0.087675
v -0.627719 0.095132 -0.063552
v -0.621334 0.163184 0.025215
v -0.614561 0.092564 0.122731
v -0.617376 -0.004552 0.073541
v -0.608866 -0.004544 -0.039587
vn -0.0429 -0.2942 -0.9548
vn 0.0197 -0.3586 0.9333
vn -0.0579 0.7941 -0.6051
vn -0.0013 -0.9999 0.0130
vn -0.9765 -0.2024 -0.0735
vn -0.9975 -0.0067 0.0704
vn -0.9975 0.0017 0.0705
vn 1.0000 0.0000 -0.0000
vn -0.0176 0.8164 0.5772
s off
f 1//1 5//1 10//1 6//1
f 4//2 3//2 8//2 9//2
f 2//3 1//3 6//3 7//3
f 5//4 4//4 9//4 10//4
f 10//5 9//5 6//5
f 8//6 6//6 9//6
f 7//7 6//7 8//7
f 2//8 3//8 1//8
f 4//8 5//8 1//8 3//8
f 3//9 2//9 7//9 8//9
