# Blender v2.78 (sub 0) OBJ File: 'Low_Poly_Trees_Pack.blend'
# www.blender.org
g Apple_04
v -0.172900 0.000000 0.000000
v 0.000000 0.000000 -0.172900
v 0.172900 0.000000 0.000000
v 0.000000 0.000000 0.172900
v 0.000000 -0.172900 0.000000
v 0.000000 0.172900 0.000000
v -0.129675 0.000000 0.129675
v -0.129675 0.129675 0.000000
v -0.129675 0.000000 -0.129675
v -0.129675 -0.129675 0.000000
v 0.000000 0.129675 -0.129675
v 0.129675 0.000000 -0.129675
v 0.000000 -0.129675 -0.129675
v 0.129675 0.129675 0.000000
v 0.129675 0.000000 0.129675
v 0.129675 -0.129675 0.000000
v 0.000000 0.129675 0.129675
v 0.000000 -0.129675 0.129675
v -0.096056 -0.096056 0.096056
v -0.096056 0.096056 0.096056
v -0.096056 -0.096056 -0.096056
v -0.096056 0.096056 -0.096056
v 0.096056 -0.096056 0.096056
v 0.096056 0.096056 0.096056
v 0.096056 -0.096056 -0.096056
v 0.096056 0.096056 -0.096056
vt 0.3436 0.1566
vt 0.3351 0.1566
vt 0.3358 0.1488
vt 0.3436 0.1481
vt 0.3515 0.1488
vt 0.3522 0.1566
vt 0.3515 0.1645
vt 0.3436 0.1652
vt 0.3358 0.1645
vt 0.3654 0.1566
vt 0.3592 0.1410
vt 0.3592 0.1722
vt 0.3515 0.1645
vt 0.3522 0.1566
vt 0.3515 0.1488
vt 0.3592 0.1410
vt 0.3592 0.1722
vt 0.3436 0.1566
vt 0.3436 0.1652
vt 0.3358 0.1645
vt 0.3351 0.1566
vt 0.3358 0.1488
vt 0.3436 0.1481
vt 0.3218 0.1566
vt 0.3280 0.1722
vt 0.3280 0.1410
vt 0.3280 0.1722
vt 0.3280 0.1410
vt 0.3436 0.1784
vt 0.3436 0.1348
vt 0.3436 0.1784
vt 0.3436 0.1348
vn -0.8704 0.3482 0.3482
vn -0.8704 0.3482 -0.3482
vn -0.8704 -0.3482 -0.3482
vn -0.8704 -0.3482 0.3482
vn -0.3482 0.3482 -0.8704
vn 0.3482 0.3482 -0.8704
vn 0.3482 -0.3482 -0.8704
vn -0.3482 -0.3482 -0.8704
vn 0.8704 0.3482 -0.3482
vn 0.8704 0.3482 0.3482
vn 0.8704 -0.3482 0.3482
vn 0.8704 -0.3482 -0.3482
vn 0.3482 0.3482 0.8704
vn -0.3482 0.3482 0.8704
vn -0.3482 -0.3482 0.8704
vn 0.3482 -0.3482 0.8704
vn -0.3482 -0.8704 0.3482
vn -0.3482 -0.8704 -0.3482
vn 0.3482 -0.8704 -0.3482
vn 0.3482 -0.8704 0.3482
vn 0.3482 0.8704 0.3482
vn 0.3482 0.8704 -0.3482
vn -0.3482 0.8704 -0.3482
vn -0.3482 0.8704 0.3482
s off
f 1/1/1 7/2/1 20/3/1 8/4/1
f 1/1/2 8/4/2 22/5/2 9/6/2
f 1/1/3 9/6/3 21/7/3 10/8/3
f 1/1/4 10/8/4 19/9/4 7/2/4
f 2/10/5 9/6/5 22/5/5 11/11/5
f 2/10/6 11/12/6 26/13/6 12/14/6
f 2/10/7 12/14/7 25/15/7 13/16/7
f 2/10/8 13/17/8 21/7/8 9/6/8
f 3/18/9 12/14/9 26/13/9 14/19/9
f 3/18/10 14/19/10 24/20/10 15/21/10
f 3/18/11 15/21/11 23/22/11 16/23/11
f 3/18/12 16/23/12 25/15/12 12/14/12
f 4/24/13 15/21/13 24/20/13 17/25/13
f 4/24/14 17/26/14 20/3/14 7/2/14
f 4/24/15 7/2/15 19/9/15 18/27/15
f 4/24/16 18/28/16 23/22/16 15/21/16
f 5/29/17 18/27/17 19/9/17 10/8/17
f 5/29/18 10/8/18 21/7/18 13/17/18
f 5/30/19 13/16/19 25/15/19 16/23/19
f 5/30/20 16/23/20 23/22/20 18/28/20
f 6/31/21 17/25/21 24/20/21 14/19/21
f 6/31/22 14/19/22 26/13/22 11/12/22
f 6/32/23 11/11/23 22/5/23 8/4/23
f 6/32/24 8/4/24 20/3/24 17/26/24
